<svg width="60" height="60" viewBox="0 0 60 60" fill="none" xmlns="http://www.w3.org/2000/svg">
<g clip-path="url(#clip0_103_966)">
<circle cx="30" cy="30" r="30" fill="#454CEE"/>
<path d="M31.3099 33.64H27.6939L27.3099 18.6H31.6939L31.3099 33.64ZM27.1819 39.08C27.1819 38.3973 27.3739 37.8427 27.7579 37.416C28.1632 36.968 28.7392 36.744 29.4859 36.744C30.2112 36.744 30.7872 36.968 31.2139 37.416C31.6405 37.8427 31.8539 38.3973 31.8539 39.08C31.8539 39.6987 31.6405 40.232 31.2139 40.68C30.7872 41.1067 30.2112 41.32 29.4859 41.32C28.7819 41.32 28.2165 41.1067 27.7899 40.68C27.3845 40.2533 27.1819 39.72 27.1819 39.08Z" fill="white"/>
</g>
<defs>
<clipPath id="clip0_103_966">
<rect width="60" height="60" fill="white"/>
</clipPath>
</defs>
</svg>
