<svg width="288" height="246" viewBox="0 0 288 246" fill="none" xmlns="http://www.w3.org/2000/svg">
<g style="mix-blend-mode:lighten">
<path d="M143.95 144.08C143.01 144.08 142.12 143.89 141.43 143.49L84.8099 110.8C84.0799 110.38 83.6799 109.77 83.6799 109.1C83.6799 108.32 84.2299 107.55 85.1899 107L141.05 74.75C142.76 73.76 145.27 73.67 146.77 74.53L203.39 107.22C204.12 107.64 204.52 108.25 204.52 108.92C204.52 109.7 203.97 110.47 203.01 111.02L147.15 143.27C146.22 143.8 145.06 144.08 143.95 144.08ZM141.87 142.73C143.08 143.43 145.3 143.33 146.71 142.51L202.57 110.26C203.24 109.87 203.64 109.37 203.64 108.92C203.64 108.47 203.26 108.16 202.95 107.98L146.33 75.29C145.12 74.59 142.9 74.69 141.49 75.51L85.6299 107.76C84.9599 108.15 84.5599 108.65 84.5599 109.1C84.5599 109.55 84.9399 109.86 85.2499 110.04L141.87 142.73Z" fill="#8686F2"/>
</g>
<path opacity="0.5" d="M77.4998 147.84C77.3498 147.84 77.1998 147.76 77.1198 147.62C76.9998 147.41 77.0698 147.14 77.2798 147.02L113.05 126.37C113.26 126.25 113.53 126.32 113.65 126.53C113.77 126.74 113.7 127.01 113.49 127.13L77.7198 147.78C77.6498 147.82 77.5798 147.84 77.4998 147.84Z" fill="url(#paint0_linear_103_5536)"/>
<path opacity="0.5" d="M210.63 147.72C210.55 147.72 210.48 147.7 210.41 147.66L174.85 127.13C174.64 127.01 174.57 126.74 174.69 126.53C174.81 126.32 175.08 126.25 175.29 126.37L210.85 146.9C211.06 147.02 211.13 147.29 211.01 147.5C210.93 147.64 210.78 147.72 210.63 147.72Z" fill="url(#paint1_linear_103_5536)"/>
<path opacity="0.5" d="M143.96 216.69C142.52 216.69 141.08 216.32 139.79 215.57C125.21 207.12 76.6698 179.05 75.4998 178.54C75.2698 178.47 75.1498 178.24 75.2198 178C75.2898 177.77 75.5498 177.64 75.7798 177.71C76.5398 177.93 139.59 214.45 140.23 214.81C142.53 216.14 145.39 216.14 147.7 214.81L211.83 177.64C212.04 177.52 212.31 177.59 212.43 177.8C212.55 178.01 212.48 178.28 212.27 178.4L148.14 215.57C146.85 216.32 145.41 216.69 143.96 216.69Z" fill="url(#paint2_linear_103_5536)"/>
<path d="M204.08 85.0898V92.0398L143.96 126.75L83.8298 92.0398V85.0898H204.08Z" fill="url(#paint3_linear_103_5536)"/>
<path d="M143.96 119.81L83.8298 85.0899L143.95 50.3799L204.08 85.0899L143.96 119.81Z" fill="#BCBEFF"/>
<path d="M143.96 118.99L84.5298 84.6899L83.8298 85.0899L143.96 119.81L204.08 85.0899L203.38 84.6899L143.96 118.99Z" fill="white"/>
<path d="M143.96 111.8L97.7097 85.0999L143.96 58.3999L190.2 85.0999L143.96 111.8Z" fill="#0F054C"/>
<path opacity="0.5" d="M143.96 111.8L97.7097 85.0999L143.96 58.3999L190.2 85.0999L143.96 111.8Z" fill="url(#paint4_linear_103_5536)"/>
<path opacity="0.5" d="M143.96 51.6699L190.2 78.3699V85.0999L143.96 58.3999V51.6699Z" fill="url(#paint5_linear_103_5536)"/>
<path opacity="0.5" d="M143.96 58.3999L97.7097 85.0999V78.3699L143.96 51.6699V58.3999Z" fill="url(#paint6_linear_103_5536)"/>
<path opacity="0.5" d="M143.96 105.07L97.7097 78.3699L143.96 51.6699L190.2 78.3699L143.96 105.07Z" fill="url(#paint7_linear_103_5536)"/>
<path opacity="0.5" d="M143.96 89.0397L125.48 78.3697L143.96 67.6997L162.43 78.3697L143.96 89.0397Z" fill="#42E8E0"/>
<path opacity="0.5" d="M143.96 68.6797L161.58 78.8597L162.43 78.3697L143.96 67.6997L125.48 78.3697L126.33 78.8597L143.96 68.6797Z" fill="#42E8E0"/>
<path opacity="0.5" d="M143.96 105.07V111.8L190.2 85.1001V78.3701L143.96 105.07Z" fill="url(#paint8_linear_103_5536)"/>
<path opacity="0.5" d="M97.7097 78.3701V85.1001L143.96 111.8V105.07L97.7097 78.3701Z" fill="url(#paint9_linear_103_5536)"/>
<path opacity="0.8" d="M143.96 104.33L98.3497 78L97.7097 78.37L143.96 105.07L190.2 78.37L189.57 78L143.96 104.33Z" fill="#42E8E0"/>
<g opacity="0.11">
<path d="M55.0099 134.42C52.5899 133.02 49.6099 133.02 47.1899 134.42L0.549941 161.28C-0.180059 161.7 -0.180059 162.76 0.549941 163.19L47.5699 190.34C49.7099 191.57 52.3399 191.57 54.4699 190.34L101.57 163.22C102.3 162.8 102.3 161.74 101.57 161.31L55.0099 134.43V134.42Z" fill="url(#paint10_linear_103_5536)"/>
</g>
<g opacity="0.11">
<path d="M55.0099 126.56C52.5899 125.16 49.6099 125.16 47.1899 126.56L0.549941 153.42C-0.180059 153.84 -0.180059 154.9 0.549941 155.33L47.5699 182.48C49.7099 183.71 52.3399 183.71 54.4699 182.48L101.57 155.36C102.3 154.94 102.3 153.88 101.57 153.45L55.0099 126.57V126.56Z" fill="url(#paint11_linear_103_5536)"/>
</g>
<g opacity="0.11">
<path d="M55.0099 118.71C52.5899 117.31 49.6099 117.31 47.1899 118.71L0.549941 145.57C-0.180059 145.99 -0.180059 147.05 0.549941 147.48L47.5699 174.63C49.7099 175.86 52.3399 175.86 54.4699 174.63L101.57 147.51C102.3 147.09 102.3 146.03 101.57 145.6L55.0099 118.72V118.71Z" fill="url(#paint12_linear_103_5536)"/>
</g>
<g opacity="0.11">
<path d="M55.0099 110.85C52.5899 109.45 49.6099 109.45 47.1899 110.85L0.549941 137.71C-0.180059 138.13 -0.180059 139.19 0.549941 139.62L47.5699 166.77C49.7099 168 52.3399 168 54.4699 166.77L101.57 139.65C102.3 139.23 102.3 138.17 101.57 137.74L55.0099 110.86V110.85Z" fill="url(#paint13_linear_103_5536)"/>
</g>
<path opacity="0.5" d="M101.57 137.74L55.01 110.86C52.59 109.46 49.61 109.46 47.19 110.86L0.55 137.71C0.18 137.92 0 138.29 0 138.66V154.46C0 154.83 0.18 155.2 0.55 155.41L47.57 182.56C49.71 183.79 52.34 183.79 54.47 182.56L101.57 155.44C101.94 155.23 102.12 154.86 102.12 154.49V138.69C102.12 138.32 101.94 137.95 101.57 137.74Z" fill="url(#paint14_linear_103_5536)"/>
<g opacity="0.11">
<path d="M55.0099 110.85C52.5899 109.45 49.6099 109.45 47.1899 110.85L0.549941 137.71C-0.180059 138.13 -0.180059 139.19 0.549941 139.62L47.5699 166.77C49.7099 168 52.3399 168 54.4699 166.77L101.57 139.65C102.3 139.23 102.3 138.17 101.57 137.74L55.0099 110.86V110.85Z" fill="url(#paint15_linear_103_5536)"/>
</g>
<g opacity="0.5">
<path d="M52.74 126.25C51.71 125.66 50.45 125.66 49.42 126.25L28.53 138.29C28.2 138.48 28.2 138.95 28.53 139.14L49.51 151.25C50.46 151.8 51.64 151.8 52.59 151.25L73.6 139.15C73.93 138.96 73.93 138.49 73.6 138.3L52.74 126.25Z" fill="#42E8E0"/>
</g>
<path d="M28.5299 139.04L49.4199 127C50.4499 126.41 51.7099 126.41 52.7399 127L73.5999 139.05C73.5999 139.05 73.6299 139.08 73.6499 139.1C73.9199 138.89 73.9099 138.47 73.5999 138.3L52.7399 126.25C51.7099 125.66 50.4499 125.66 49.4199 126.25L28.5299 138.29C28.2199 138.47 28.2199 138.88 28.4799 139.09C28.4999 139.08 28.5099 139.05 28.5299 139.04Z" fill="#42E8E0"/>
<path d="M101.57 138.56L54.4699 165.68C52.3299 166.91 49.6999 166.91 47.5699 165.68L0.549884 138.53C0.369884 138.43 0.229884 138.28 0.139884 138.12C-0.140116 138.62 -0.000115693 139.3 0.549884 139.62L47.5699 166.77C49.7099 168 52.3399 168 54.4699 166.77L101.57 139.65C102.12 139.33 102.26 138.65 101.98 138.15C101.89 138.31 101.75 138.46 101.57 138.56Z" fill="url(#paint16_linear_103_5536)"/>
<g opacity="0.11">
<path d="M240.8 134.42C238.38 133.02 235.4 133.02 232.98 134.42L186.35 161.28C185.62 161.7 185.62 162.76 186.35 163.19L233.37 190.34C235.51 191.57 238.14 191.57 240.28 190.34L287.38 163.22C288.11 162.8 288.11 161.74 287.38 161.31L240.82 134.43L240.8 134.42Z" fill="url(#paint17_linear_103_5536)"/>
</g>
<g opacity="0.11">
<path d="M240.8 126.56C238.38 125.16 235.4 125.16 232.98 126.56L186.35 153.42C185.62 153.84 185.62 154.9 186.35 155.33L233.37 182.48C235.51 183.71 238.14 183.71 240.28 182.48L287.38 155.36C288.11 154.94 288.11 153.88 287.38 153.45L240.82 126.57L240.8 126.56Z" fill="url(#paint18_linear_103_5536)"/>
</g>
<g opacity="0.11">
<path d="M240.8 118.71C238.38 117.31 235.4 117.31 232.98 118.71L186.35 145.57C185.62 145.99 185.62 147.05 186.35 147.48L233.37 174.63C235.51 175.86 238.14 175.86 240.28 174.63L287.38 147.51C288.11 147.09 288.11 146.03 287.38 145.6L240.82 118.72L240.8 118.71Z" fill="url(#paint19_linear_103_5536)"/>
</g>
<g opacity="0.11">
<path d="M240.8 110.85C238.38 109.45 235.4 109.45 232.98 110.85L186.35 137.71C185.62 138.13 185.62 139.19 186.35 139.62L233.37 166.77C235.51 168 238.14 168 240.28 166.77L287.38 139.65C288.11 139.23 288.11 138.17 287.38 137.74L240.82 110.86L240.8 110.85Z" fill="url(#paint20_linear_103_5536)"/>
</g>
<path opacity="0.5" d="M287.36 137.74L240.8 110.86C238.38 109.46 235.4 109.46 232.98 110.86L186.35 137.72C185.98 137.93 185.8 138.3 185.8 138.67V154.47C185.8 154.84 185.98 155.21 186.35 155.42L233.37 182.57C235.51 183.8 238.14 183.8 240.28 182.57L287.38 155.45C287.75 155.24 287.93 154.87 287.93 154.5V138.7C287.93 138.33 287.75 137.96 287.38 137.75L287.36 137.74Z" fill="url(#paint21_linear_103_5536)"/>
<g opacity="0.11">
<path d="M240.8 110.85C238.38 109.45 235.4 109.45 232.98 110.85L186.35 137.71C185.62 138.13 185.62 139.19 186.35 139.62L233.37 166.77C235.51 168 238.14 168 240.28 166.77L287.38 139.65C288.11 139.23 288.11 138.17 287.38 137.74L240.82 110.86L240.8 110.85Z" fill="url(#paint22_linear_103_5536)"/>
</g>
<g opacity="0.5">
<path d="M238.52 126.25C237.49 125.66 236.23 125.66 235.2 126.25L214.31 138.29C213.98 138.48 213.98 138.95 214.31 139.14L235.29 151.25C236.24 151.8 237.42 151.8 238.37 151.25L259.38 139.15C259.71 138.96 259.71 138.49 259.38 138.3L238.52 126.25Z" fill="#42E8E0"/>
</g>
<path d="M214.31 139.04L235.2 127C236.23 126.41 237.49 126.41 238.52 127L259.38 139.05C259.38 139.05 259.41 139.08 259.43 139.1C259.7 138.89 259.69 138.47 259.38 138.3L238.52 126.25C237.49 125.66 236.23 125.66 235.2 126.25L214.31 138.29C214 138.47 214 138.88 214.26 139.09C214.28 139.08 214.29 139.05 214.31 139.04Z" fill="#42E8E0"/>
<path d="M287.36 138.56L240.26 165.68C238.12 166.91 235.49 166.91 233.35 165.68L186.33 138.53C186.15 138.43 186.01 138.28 185.92 138.12C185.64 138.62 185.78 139.3 186.33 139.62L233.35 166.77C235.49 168 238.12 168 240.26 166.77L287.36 139.65C287.91 139.33 288.05 138.65 287.77 138.15C287.68 138.31 287.54 138.46 287.36 138.56Z" fill="url(#paint23_linear_103_5536)"/>
<g opacity="0.11">
<path d="M140.05 192.18C142.33 190.87 145.13 190.86 147.41 192.18L191.25 217.44C191.94 217.84 191.94 218.83 191.25 219.23L147.04 244.75C145.03 245.91 142.56 245.91 140.55 244.75L96.2697 219.25C95.5797 218.85 95.5797 217.86 96.2697 217.46L140.05 192.18Z" fill="url(#paint24_linear_103_5536)"/>
</g>
<g opacity="0.11">
<path d="M140.05 184.79C142.33 183.48 145.13 183.47 147.41 184.79L191.25 210.05C191.94 210.45 191.94 211.44 191.25 211.84L147.04 237.36C145.03 238.52 142.56 238.52 140.55 237.36L96.2697 211.86C95.5797 211.46 95.5797 210.47 96.2697 210.07L140.05 184.79Z" fill="url(#paint25_linear_103_5536)"/>
</g>
<g opacity="0.11">
<path d="M140.05 177.4C142.33 176.09 145.13 176.08 147.41 177.4L191.25 202.66C191.94 203.06 191.94 204.05 191.25 204.45L147.04 229.97C145.03 231.13 142.56 231.13 140.55 229.97L96.2697 204.47C95.5797 204.07 95.5797 203.08 96.2697 202.68L140.05 177.4Z" fill="url(#paint26_linear_103_5536)"/>
</g>
<g opacity="0.11">
<path d="M140.05 170.02C142.33 168.71 145.13 168.7 147.41 170.02L191.25 195.28C191.94 195.68 191.94 196.67 191.25 197.07L147.04 222.59C145.03 223.75 142.56 223.75 140.55 222.59L96.2697 197.09C95.5797 196.69 95.5797 195.7 96.2697 195.3L140.05 170.02Z" fill="url(#paint27_linear_103_5536)"/>
</g>
<path opacity="0.11" d="M96.2698 195.29L140.05 170.01C142.33 168.7 145.13 168.69 147.41 170.01L191.25 195.27C191.6 195.47 191.77 195.82 191.77 196.17V218.33C191.77 218.68 191.6 219.03 191.25 219.23L147.04 244.75C145.03 245.91 142.56 245.91 140.55 244.75L96.2698 219.25C95.9198 219.05 95.7498 218.7 95.7498 218.35V196.19C95.7498 195.84 95.9198 195.49 96.2698 195.29Z" fill="url(#paint28_linear_103_5536)"/>
<g opacity="0.11">
<path d="M139.26 151.91C142.02 150.32 145.42 150.31 148.18 151.91L201.34 182.53C202.18 183.01 202.18 184.22 201.34 184.7L147.73 215.65C145.29 217.06 142.29 217.06 139.86 215.65L86.1698 184.73C85.3298 184.25 85.3298 183.04 86.1698 182.56L139.25 151.91H139.26Z" fill="url(#paint29_linear_103_5536)"/>
</g>
<g opacity="0.11">
<path d="M139.26 142.95C142.02 141.36 145.42 141.36 148.18 142.95L201.34 173.57C202.18 174.05 202.18 175.26 201.34 175.74L147.73 206.69C145.29 208.1 142.29 208.1 139.86 206.69L86.1698 175.77C85.3298 175.29 85.3298 174.08 86.1698 173.6L139.25 142.95H139.26Z" fill="url(#paint30_linear_103_5536)"/>
</g>
<g opacity="0.11">
<path d="M139.26 133.99C142.02 132.4 145.42 132.4 148.18 133.99L201.34 164.61C202.18 165.09 202.18 166.3 201.34 166.78L147.73 197.73C145.29 199.14 142.29 199.14 139.86 197.73L86.1698 166.81C85.3298 166.33 85.3298 165.12 86.1698 164.64L139.25 133.99H139.26Z" fill="url(#paint31_linear_103_5536)"/>
</g>
<g opacity="0.11">
<path d="M139.26 125.04C142.02 123.45 145.42 123.45 148.18 125.04L201.34 155.66C202.18 156.14 202.18 157.35 201.34 157.83L147.73 188.78C145.29 190.19 142.29 190.19 139.86 188.78L86.1698 157.86C85.3298 157.38 85.3298 156.17 86.1698 155.69L139.25 125.04H139.26Z" fill="url(#paint32_linear_103_5536)"/>
</g>
<path opacity="0.5" d="M86.1798 155.69L139.26 125.04C142.02 123.45 145.42 123.45 148.18 125.04L201.34 155.66C201.76 155.9 201.97 156.32 201.97 156.75V183.62C201.97 184.04 201.76 184.47 201.34 184.71L147.73 215.66C145.29 217.07 142.29 217.07 139.86 215.66L86.1698 184.74C85.7498 184.5 85.5398 184.08 85.5398 183.65V156.78C85.5398 156.36 85.7498 155.93 86.1698 155.69H86.1798Z" fill="url(#paint33_linear_103_5536)"/>
<g opacity="0.11">
<path d="M139.26 125.04C142.02 123.45 145.42 123.45 148.18 125.04L201.34 155.66C202.18 156.14 202.18 157.35 201.34 157.83L147.73 188.78C145.29 190.19 142.29 190.19 139.86 188.78L86.1698 157.86C85.3298 157.38 85.3298 156.17 86.1698 155.69L139.25 125.04H139.26Z" fill="url(#paint34_linear_103_5536)"/>
</g>
<path d="M86.1799 156.62L139.87 187.54C142.31 188.95 145.31 188.95 147.74 187.54L201.35 156.59C201.56 156.47 201.71 156.31 201.82 156.12C202.14 156.69 201.98 157.46 201.35 157.83L147.74 188.78C145.3 190.19 142.3 190.19 139.87 188.78L86.1799 157.86C85.5499 157.5 85.3999 156.72 85.7099 156.15C85.8099 156.34 85.9699 156.5 86.1799 156.62Z" fill="url(#paint35_linear_103_5536)"/>
<path opacity="0.2" d="M143.76 173.74C159.925 173.74 173.03 166.174 173.03 156.84C173.03 147.506 159.925 139.94 143.76 139.94C127.594 139.94 114.49 147.506 114.49 156.84C114.49 166.174 127.594 173.74 143.76 173.74Z" fill="#180D5B"/>
<path d="M154.9 142.51C154.9 142.51 155.61 143.25 156.35 144.13C157.09 145 159.16 146.22 160.04 146.76C160.91 147.3 164.91 150.33 165.74 153.31C166.58 156.29 163.72 156.69 160.8 156.17C157.88 155.65 155.15 152.96 154.36 151.99C153.57 151.02 150.8 148.81 147.22 146.95C143.64 145.09 145.8 142.6 145.8 142.6L154.9 142.51Z" fill="#1C22A4"/>
<path d="M128.29 151.37C128.29 151.37 127.7 152.71 127.53 154.44C127.36 156.16 127.12 159.9 127.03 161C126.94 162.1 126.9 164.77 128.83 167.33C130.75 169.89 131.75 170.9 134.31 169.9C136.87 168.89 136.81 164.6 136.36 162.39C135.91 160.18 135.49 155.24 135.53 154.72C135.58 154.2 135.38 153.87 135.38 153.87L128.29 151.38V151.37Z" fill="#1C22A4"/>
<path d="M163.73 91.8499C163.73 91.8499 163.19 111.54 158.6 121.99C158.6 121.99 155.31 131.2 154.88 142.14C154.88 142.14 155.64 144.03 154.56 145.56C153.48 147.09 146.75 148.5 145.63 143.46C144.51 138.42 144.94 129 146.17 125.07C147.39 121.14 145.73 110.31 145.73 110.31C145.73 110.31 143.89 111.49 141.47 119.27C139.06 127.05 137.28 130.02 136.45 132.17C135.62 134.32 134.86 147.5 135.38 153.94C135.38 153.94 129.92 154.71 128.35 152.11C126.77 149.5 126.25 136.01 126.65 131.71C127.05 127.41 128.85 113.63 128.6 109.37C128.35 105.11 127.46 101.64 128.44 97.3899C129.42 93.1299 158.2 83.6699 158.2 83.6699L163.72 91.8599L163.73 91.8499Z" fill="#454CEE"/>
<path d="M128.61 109.37C128.36 105.11 127.47 101.64 128.45 97.3902C128.82 95.7902 133.11 93.4502 138.33 91.1602C147.14 90.3602 158.31 89.4202 159.08 89.5402C159.78 89.6502 161.6 90.3402 163.11 90.9402L163.72 91.8502C163.72 91.8502 163.69 93.0502 163.57 95.0002C161.52 95.6102 157.56 94.9802 157.56 94.9802C157 96.3602 153.57 101.27 149.3 103.39C145.03 105.51 132.54 104.78 131.82 105.59C131.1 106.4 130.96 117.18 131.04 118.55C131.12 119.92 129.86 128.55 128.7 136.18C127.56 143.69 129.3 152.81 129.35 153.1C128.95 152.84 128.6 152.52 128.35 152.11C126.77 149.5 126.25 136.01 126.65 131.71C127.05 127.41 128.85 113.63 128.6 109.37H128.61Z" fill="#1C22A4"/>
<path d="M154.09 27.4498C154.09 27.4498 160.48 28.9098 162.63 29.4098C162.99 29.4898 163.27 29.7398 163.41 30.0798C164.03 31.6498 165.59 36.5298 164.41 43.6498C162.97 52.3998 163.43 58.2998 163.43 58.2998L166.38 73.6798C166.38 73.6798 170.09 88.3198 169.77 88.7198C169.45 89.1198 161.22 95.3798 158.65 94.4998C156.08 93.6198 156.92 92.1598 156.92 92.1598C156.92 92.1598 154.84 102.77 145.61 102.67C136.39 102.57 128.85 102.6 127.28 98.8698C125.71 95.1398 127.71 79.4698 129.33 73.2598C130.96 67.0498 134.82 54.6798 134.82 54.6798L121.31 39.7298L132.86 30.9098C132.86 30.9098 135.62 25.7798 136.75 25.1298C137.88 24.4798 138.48 25.0298 138.48 25.0298L154.08 27.4398L154.09 27.4498Z" fill="#151B9C"/>
<path d="M158.49 91.13C158.49 91.66 158.79 92.46 160.45 93.02C162.24 93.63 166.63 90.97 169.51 88.96C168.07 90.15 161 95.31 158.65 94.51C158.14 94.33 157.77 94.14 157.49 93.93C158.02 92.75 158.33 91.73 158.49 91.13Z" fill="url(#paint36_linear_103_5536)"/>
<path d="M127.36 97.6301C129.01 101.57 136.97 101.53 146.7 101.64C149.18 101.67 151.16 100.96 152.75 99.9001C151.07 101.51 148.76 102.71 145.62 102.68C136.4 102.58 128.86 102.61 127.29 98.8801C126.78 97.6601 126.65 95.1401 126.76 92.1001C126.74 94.5701 126.91 96.5701 127.36 97.6401V97.6301Z" fill="url(#paint37_linear_103_5536)"/>
<path d="M137.01 25.0201C137.01 25.0201 134.65 27.8701 138.05 31.7301C140.14 34.1001 143.73 39.2101 146.8 44.5201C148.71 47.8401 150.48 49.6001 151.48 52.4501C151.48 52.4501 151.62 49.0601 151.75 43.8401C151.88 38.9101 151.94 33.7801 151.72 32.4901C151.27 29.8301 139.62 23.7301 137.01 25.0201Z" fill="#F0F6FF"/>
<path d="M145.83 33.6002C145.83 33.6002 147.04 34.3502 147.46 34.2902C147.88 34.2302 149.21 32.9302 149.21 32.9302C149.21 32.9302 152.56 32.8702 152.92 31.4402C153.29 30.0102 153.53 28.5602 153.87 27.8102C154.21 27.0602 155.65 23.4902 155.66 22.0302C155.67 20.5802 155.62 17.9802 156.24 16.6102C156.87 15.2402 157.71 1.49021 144.44 1.88021C131.17 2.27021 135.29 16.0502 135.29 16.0502C135.29 16.0502 134.32 16.4602 134.91 18.2402C135.5 20.0102 135.63 20.2002 135.93 21.0802C136.23 21.9602 136.38 22.5202 137.22 23.2402L137.44 24.8702C137.44 24.8702 136.81 27.3702 138.46 29.7902C140.11 32.2102 145.82 33.6002 145.82 33.6002H145.83Z" fill="#FCD1C5"/>
<path d="M162.99 29.5698C162.99 29.5698 164.4 29.7798 169 41.3298C171.56 47.7698 175.52 54.4498 176.35 59.2398C177.19 64.0298 176.72 69.1498 175.77 69.5098C174.86 69.8598 158.36 76.0298 153.2 77.9798C152.91 78.0898 152.6 77.9098 152.55 77.6098L151.13 69.6398L161.37 65.6898C161.37 65.6898 163.32 63.3098 165.15 62.4098C165.15 62.4098 163.1 58.6298 163.23 57.5998C163.36 56.5698 163.05 45.8798 164.25 41.5398C165.45 37.1898 162.99 29.5798 162.99 29.5798V29.5698Z" fill="#454CEE"/>
<path d="M157 60.0899C157 60.0899 158.41 59.1399 158.76 59.0099C159.11 58.8799 160.99 58.2299 161.35 58.0699C161.62 57.9499 162.72 58.0399 163.27 58.0999C163.47 58.1199 163.64 58.2399 163.74 58.4099C164.18 59.2199 165.39 61.5699 165.25 62.4699C165.25 62.4699 161.84 64.6199 161.46 65.5799L160.92 65.6999C160.92 65.6999 158.64 60.7999 157 60.0999V60.0899Z" fill="#FCD1C5"/>
<path d="M129.34 73.27C129.73 71.78 130.25 69.93 130.82 67.98L151.55 76.87C151.55 76.87 145.34 84.5 134.47 84.01C131.5 83.88 129.33 82.8 127.73 81.88C128.21 78.49 128.79 75.35 129.34 73.27Z" fill="#454CEE"/>
<path d="M121.32 39.7402C121.32 39.7402 126.79 40.4902 131.2 47.4902C135.62 54.4902 138.84 62.5902 138.84 62.5902L138.99 63.5002C139.39 65.8802 141.92 67.2502 144.13 66.2602C148.79 64.1802 155.7 61.0302 156.99 60.0802C156.99 60.0802 161.12 62.3602 162.25 67.7602C163.15 72.0602 162.92 72.0802 162.92 72.0802C162.92 72.0802 144.51 80.6702 137.4 80.5902C130.29 80.5102 121.27 57.1302 120.28 52.3002C119.29 47.4702 118.19 41.1002 121.32 39.7402Z" fill="#454CEE"/>
<path d="M121.32 39.7402C121.32 39.7402 126.79 40.4902 131.2 47.4902C135.62 54.4902 138.84 62.5902 138.84 62.5902L138.99 63.5002C139.39 65.8802 141.92 67.2502 144.13 66.2602C148.79 64.1802 155.7 61.0302 156.99 60.0802C156.99 60.0802 161.12 62.3602 162.25 67.7602C163.15 72.0602 162.92 72.0802 162.92 72.0802C162.92 72.0802 144.51 80.6702 137.4 80.5902C130.29 80.5102 121.27 57.1302 120.28 52.3002C119.29 47.4702 118.19 41.1002 121.32 39.7402Z" fill="#2C31A0"/>
<path d="M141.49 67.3603C141.49 67.3603 139.17 69.5303 138.16 68.3403C137.15 67.1503 137.45 67.0203 137.45 67.0203C137.45 67.0203 135.36 67.0003 135.11 65.6903C134.86 64.3803 133.83 65.0703 133.77 63.6103C133.71 62.1503 135.46 62.4503 135.46 62.4503L141.5 67.3503L141.49 67.3603Z" fill="#151B9C"/>
<path d="M144.3 66.2C144.3 66.2 143.66 65.61 142.84 64.91C142.02 64.21 140.68 61.33 140.46 61.08C140.24 60.83 137.46 58.69 136.12 58.66C134.78 58.62 135.78 60.12 136.08 60.33C136.38 60.54 137.7 61.19 137.7 61.19C137.7 61.19 139.05 62.32 139.2 62.49C139.35 62.66 135.46 62.22 134.84 62.6C134.22 62.98 134.37 63.97 134.8 64.24C135.24 64.51 135.57 64.5 135.57 64.5C135.57 64.5 135.13 65.67 136.3 66.21C137.47 66.75 137.74 66.45 137.74 66.45C137.74 66.45 137.84 68.47 139.77 68.07L144.31 66.19L144.3 66.2Z" fill="#FCD1C5"/>
<path d="M156.55 9.58005C156.55 9.58005 158.28 15.09 153.72 13.53C149.16 11.97 145.04 9.34005 143.6 10.33C142.51 11.09 142.56 13.43 142.65 14.5C142.68 14.86 142.58 15.23 142.38 15.53L141.03 17.49C140.88 17.71 140.79 17.97 140.77 18.24L140.67 19.61C140.65 19.95 140.37 20.23 140.03 20.25L139.72 20.27C139.37 20.29 139.07 20.05 139.01 19.7L138.66 17.69C138.66 17.69 137.59 14.99 135.32 16.05C135.32 16.05 133.8 14.01 134.31 9.65005C134.81 5.29005 136.77 0.760046 145.32 0.0400464C153.87 -0.689954 156.57 9.59005 156.57 9.59005L156.55 9.58005Z" fill="#AA8383"/>
<path d="M143.48 38.45L144.76 37.46C144.76 37.46 145.94 38.44 146.41 39.49C146.87 40.53 146.41 43.85 146.41 43.85L146.8 44.52L147.28 43.64L147.69 39.72C147.69 39.72 147.25 36.82 147.21 36.75C147.17 36.68 144.74 37.01 144.74 37.01C144.74 37.01 143.9 37.65 143.49 38.46L143.48 38.45Z" fill="#C4CCD6"/>
<path d="M149.63 34.5498C149.63 34.5498 151 34.6398 151.61 35.1498C151.61 35.1498 150.18 35.2198 149.95 35.2498C149.72 35.2798 149.63 34.5498 149.63 34.5498Z" fill="#C4CCD6"/>
<path d="M147.03 34.8599L144.74 36.9999C144.74 36.9999 146.75 37.9299 147.32 39.7299C147.32 39.7299 149.82 40.1999 150.04 39.2899C150.27 38.3899 150.04 36.1099 150.33 35.0999C150.63 34.0899 147.03 34.8599 147.03 34.8599Z" fill="#454CEE"/>
<path d="M149.94 39.2402C149.94 39.2402 150.37 41.1202 150.83 41.8902C151.3 42.6702 151.77 43.5302 151.77 43.5302L151.71 54.5402C151.71 54.5402 147.66 46.1902 146.78 44.5002C146.78 44.5002 146.91 40.4802 147.3 39.7202C147.68 38.9602 149.93 39.2302 149.93 39.2302L149.94 39.2402Z" fill="#454CEE"/>
<path d="M139.07 22.9702C141.73 30.6502 149.22 32.9202 149.22 32.9202C149.22 32.9202 147.88 34.2202 147.47 34.2802C147.05 34.3402 145.84 33.5902 145.84 33.5902C145.84 33.5902 140.13 32.2002 138.48 29.7802C136.83 27.3602 137.46 24.8602 137.46 24.8602L137.24 23.2302C138.43 23.6202 139.08 22.9702 139.08 22.9702H139.07Z" fill="#E2B1A6"/>
<path d="M132.98 31.96C132.98 31.96 134.03 35.58 134.17 35.72C134.31 35.86 136.81 35.57 136.81 35.57L135.59 37.87C135.59 37.87 148.19 51.38 150.8 58.65C150.8 58.65 144.84 49.44 134.35 38.44L135.83 36.19L133.25 36.69L132.98 31.96Z" fill="#454CEE"/>
<path d="M153.68 28.7603L154.35 29.5203L153.56 30.2503L155.89 32.3603C155.89 32.3603 156.6 47.1403 153.76 56.9303C153.76 56.9303 157.62 47.9503 156.75 31.9603L154.23 30.2503L155.06 29.4403L153.69 28.7603H153.68Z" fill="#454CEE"/>
<path d="M145.74 110.33C145.74 110.33 145.71 110.35 145.65 110.4L148.91 106.93C147.4 109.05 149.14 118.78 149.32 121.01C149.5 123.24 147.58 127.84 146.86 133.23C146.14 138.61 147.61 146.29 147.62 146.32C146.69 145.78 145.94 144.88 145.64 143.48C144.53 138.45 144.95 129.02 146.18 125.09C147.4 121.16 145.74 110.33 145.74 110.33Z" fill="#1C22A4"/>
<path d="M137.41 80.5903C130.3 80.5103 121.28 57.1303 120.29 52.3003C120.12 51.4903 119.96 50.6403 119.81 49.7803C119.84 49.8503 121.68 54.9003 123.45 59.3703C125.24 63.8803 134.74 77.5303 139.59 78.4203C143.97 79.2203 159.72 71.8703 162.77 70.4203C163.05 72.0603 162.93 72.0803 162.93 72.0803C162.93 72.0803 144.52 80.6703 137.41 80.5903Z" fill="url(#paint38_linear_103_5536)"/>
<path d="M139.71 20.2602C139.36 20.2802 139.06 20.0402 139 19.6902L138.65 17.6802C138.65 17.6802 137.58 14.9802 135.31 16.0402C135.31 16.0402 133.88 14.1002 134.27 9.99023C136.79 13.7802 142.39 15.5202 142.39 15.5202L141.04 17.4802C140.89 17.7002 140.8 17.9602 140.78 18.2302L140.68 19.6002C140.66 19.9402 140.38 20.2202 140.04 20.2402L139.73 20.2602H139.71Z" fill="#936D6D"/>
<defs>
<linearGradient id="paint0_linear_103_5536" x1="77.0598" y1="137.08" x2="113.7" y2="137.08" gradientUnits="userSpaceOnUse">
<stop stop-color="#5761D7"/>
<stop offset="0.07" stop-color="#5471D8"/>
<stop offset="0.28" stop-color="#4D9BDA"/>
<stop offset="0.48" stop-color="#48BDDD"/>
<stop offset="0.67" stop-color="#44D4DE"/>
<stop offset="0.85" stop-color="#42E3DF"/>
<stop offset="1" stop-color="#42E8E0"/>
</linearGradient>
<linearGradient id="paint1_linear_103_5536" x1="174.63" y1="137.02" x2="211.07" y2="137.02" gradientUnits="userSpaceOnUse">
<stop stop-color="#42E8E0"/>
<stop offset="0.15" stop-color="#42E3DF"/>
<stop offset="0.33" stop-color="#44D4DE"/>
<stop offset="0.52" stop-color="#48BDDD"/>
<stop offset="0.72" stop-color="#4D9BDA"/>
<stop offset="0.93" stop-color="#5471D8"/>
<stop offset="1" stop-color="#5761D7"/>
</linearGradient>
<linearGradient id="paint2_linear_103_5536" x1="75.1998" y1="197.14" x2="212.48" y2="197.14" gradientUnits="userSpaceOnUse">
<stop stop-color="#5761D7"/>
<stop offset="0.07" stop-color="#5471D8"/>
<stop offset="0.28" stop-color="#4D9BDA"/>
<stop offset="0.48" stop-color="#48BDDD"/>
<stop offset="0.67" stop-color="#44D4DE"/>
<stop offset="0.85" stop-color="#42E3DF"/>
<stop offset="1" stop-color="#42E8E0"/>
</linearGradient>
<linearGradient id="paint3_linear_103_5536" x1="54.0998" y1="105.92" x2="208.2" y2="105.92" gradientUnits="userSpaceOnUse">
<stop stop-color="#5761D7"/>
<stop offset="0.16" stop-color="#5E67D9"/>
<stop offset="0.41" stop-color="#7179E1"/>
<stop offset="0.69" stop-color="#9197EE"/>
<stop offset="1" stop-color="#BCBEFF"/>
</linearGradient>
<linearGradient id="paint4_linear_103_5536" x1="97.7097" y1="85.0999" x2="190.2" y2="85.0999" gradientUnits="userSpaceOnUse">
<stop stop-color="#42E8E0"/>
<stop offset="0.15" stop-color="#42E3DF"/>
<stop offset="0.33" stop-color="#44D4DE"/>
<stop offset="0.52" stop-color="#48BDDD"/>
<stop offset="0.72" stop-color="#4D9BDA"/>
<stop offset="0.93" stop-color="#5471D8"/>
<stop offset="1" stop-color="#5761D7"/>
</linearGradient>
<linearGradient id="paint5_linear_103_5536" x1="143.96" y1="68.3799" x2="190.2" y2="68.3799" gradientUnits="userSpaceOnUse">
<stop stop-color="#42E8E0"/>
<stop offset="0.15" stop-color="#42E3DF"/>
<stop offset="0.33" stop-color="#44D4DE"/>
<stop offset="0.52" stop-color="#48BDDD"/>
<stop offset="0.72" stop-color="#4D9BDA"/>
<stop offset="0.93" stop-color="#5471D8"/>
<stop offset="1" stop-color="#5761D7"/>
</linearGradient>
<linearGradient id="paint6_linear_103_5536" x1="97.7097" y1="68.3799" x2="143.96" y2="68.3799" gradientUnits="userSpaceOnUse">
<stop stop-color="#42E8E0"/>
<stop offset="0.15" stop-color="#42E3DF"/>
<stop offset="0.33" stop-color="#44D4DE"/>
<stop offset="0.52" stop-color="#48BDDD"/>
<stop offset="0.72" stop-color="#4D9BDA"/>
<stop offset="0.93" stop-color="#5471D8"/>
<stop offset="1" stop-color="#5761D7"/>
</linearGradient>
<linearGradient id="paint7_linear_103_5536" x1="97.7097" y1="78.3699" x2="190.2" y2="78.3699" gradientUnits="userSpaceOnUse">
<stop stop-color="#42E8E0"/>
<stop offset="0.15" stop-color="#42E3DF"/>
<stop offset="0.33" stop-color="#44D4DE"/>
<stop offset="0.52" stop-color="#48BDDD"/>
<stop offset="0.72" stop-color="#4D9BDA"/>
<stop offset="0.93" stop-color="#5471D8"/>
<stop offset="1" stop-color="#5761D7"/>
</linearGradient>
<linearGradient id="paint8_linear_103_5536" x1="143.96" y1="95.0801" x2="190.2" y2="95.0801" gradientUnits="userSpaceOnUse">
<stop stop-color="#42E8E0"/>
<stop offset="0.15" stop-color="#42E3DF"/>
<stop offset="0.33" stop-color="#44D4DE"/>
<stop offset="0.52" stop-color="#48BDDD"/>
<stop offset="0.72" stop-color="#4D9BDA"/>
<stop offset="0.93" stop-color="#5471D8"/>
<stop offset="1" stop-color="#5761D7"/>
</linearGradient>
<linearGradient id="paint9_linear_103_5536" x1="97.7097" y1="95.0801" x2="143.96" y2="95.0801" gradientUnits="userSpaceOnUse">
<stop stop-color="#42E8E0"/>
<stop offset="0.15" stop-color="#42E3DF"/>
<stop offset="0.33" stop-color="#44D4DE"/>
<stop offset="0.52" stop-color="#48BDDD"/>
<stop offset="0.72" stop-color="#4D9BDA"/>
<stop offset="0.93" stop-color="#5471D8"/>
<stop offset="1" stop-color="#5761D7"/>
</linearGradient>
<linearGradient id="paint10_linear_103_5536" x1="-5.85937e-05" y1="162.32" x2="102.13" y2="162.32" gradientUnits="userSpaceOnUse">
<stop stop-color="#5761D7"/>
<stop offset="0.07" stop-color="#5471D8"/>
<stop offset="0.28" stop-color="#4D9BDA"/>
<stop offset="0.48" stop-color="#48BDDD"/>
<stop offset="0.67" stop-color="#44D4DE"/>
<stop offset="0.85" stop-color="#42E3DF"/>
<stop offset="1" stop-color="#42E8E0"/>
</linearGradient>
<linearGradient id="paint11_linear_103_5536" x1="-5.85937e-05" y1="154.46" x2="102.13" y2="154.46" gradientUnits="userSpaceOnUse">
<stop stop-color="#5761D7"/>
<stop offset="0.07" stop-color="#5471D8"/>
<stop offset="0.28" stop-color="#4D9BDA"/>
<stop offset="0.48" stop-color="#48BDDD"/>
<stop offset="0.67" stop-color="#44D4DE"/>
<stop offset="0.85" stop-color="#42E3DF"/>
<stop offset="1" stop-color="#42E8E0"/>
</linearGradient>
<linearGradient id="paint12_linear_103_5536" x1="-5.85937e-05" y1="146.6" x2="102.13" y2="146.6" gradientUnits="userSpaceOnUse">
<stop stop-color="#5761D7"/>
<stop offset="0.07" stop-color="#5471D8"/>
<stop offset="0.28" stop-color="#4D9BDA"/>
<stop offset="0.48" stop-color="#48BDDD"/>
<stop offset="0.67" stop-color="#44D4DE"/>
<stop offset="0.85" stop-color="#42E3DF"/>
<stop offset="1" stop-color="#42E8E0"/>
</linearGradient>
<linearGradient id="paint13_linear_103_5536" x1="-5.85937e-05" y1="138.75" x2="102.13" y2="138.75" gradientUnits="userSpaceOnUse">
<stop stop-color="#5761D7"/>
<stop offset="0.07" stop-color="#5471D8"/>
<stop offset="0.28" stop-color="#4D9BDA"/>
<stop offset="0.48" stop-color="#48BDDD"/>
<stop offset="0.67" stop-color="#44D4DE"/>
<stop offset="0.85" stop-color="#42E3DF"/>
<stop offset="1" stop-color="#42E8E0"/>
</linearGradient>
<linearGradient id="paint14_linear_103_5536" x1="0" y1="146.64" x2="102.13" y2="146.64" gradientUnits="userSpaceOnUse">
<stop stop-color="#5761D7"/>
<stop offset="0.07" stop-color="#5471D8"/>
<stop offset="0.28" stop-color="#4D9BDA"/>
<stop offset="0.48" stop-color="#48BDDD"/>
<stop offset="0.67" stop-color="#44D4DE"/>
<stop offset="0.85" stop-color="#42E3DF"/>
<stop offset="1" stop-color="#42E8E0"/>
</linearGradient>
<linearGradient id="paint15_linear_103_5536" x1="-5.85937e-05" y1="138.75" x2="102.13" y2="138.75" gradientUnits="userSpaceOnUse">
<stop stop-color="#5761D7"/>
<stop offset="0.07" stop-color="#5471D8"/>
<stop offset="0.28" stop-color="#4D9BDA"/>
<stop offset="0.48" stop-color="#48BDDD"/>
<stop offset="0.67" stop-color="#44D4DE"/>
<stop offset="0.85" stop-color="#42E3DF"/>
<stop offset="1" stop-color="#42E8E0"/>
</linearGradient>
<linearGradient id="paint16_linear_103_5536" x1="-0.000115689" y1="152.91" x2="102.12" y2="152.91" gradientUnits="userSpaceOnUse">
<stop stop-color="#5761D7"/>
<stop offset="0.07" stop-color="#5471D8"/>
<stop offset="0.28" stop-color="#4D9BDA"/>
<stop offset="0.48" stop-color="#48BDDD"/>
<stop offset="0.67" stop-color="#44D4DE"/>
<stop offset="0.85" stop-color="#42E3DF"/>
<stop offset="1" stop-color="#42E8E0"/>
</linearGradient>
<linearGradient id="paint17_linear_103_5536" x1="185.79" y1="162.32" x2="287.91" y2="162.32" gradientUnits="userSpaceOnUse">
<stop stop-color="#5761D7"/>
<stop offset="0.07" stop-color="#5471D8"/>
<stop offset="0.28" stop-color="#4D9BDA"/>
<stop offset="0.48" stop-color="#48BDDD"/>
<stop offset="0.67" stop-color="#44D4DE"/>
<stop offset="0.85" stop-color="#42E3DF"/>
<stop offset="1" stop-color="#42E8E0"/>
</linearGradient>
<linearGradient id="paint18_linear_103_5536" x1="185.79" y1="154.46" x2="287.91" y2="154.46" gradientUnits="userSpaceOnUse">
<stop stop-color="#5761D7"/>
<stop offset="0.07" stop-color="#5471D8"/>
<stop offset="0.28" stop-color="#4D9BDA"/>
<stop offset="0.48" stop-color="#48BDDD"/>
<stop offset="0.67" stop-color="#44D4DE"/>
<stop offset="0.85" stop-color="#42E3DF"/>
<stop offset="1" stop-color="#42E8E0"/>
</linearGradient>
<linearGradient id="paint19_linear_103_5536" x1="185.79" y1="146.6" x2="287.91" y2="146.6" gradientUnits="userSpaceOnUse">
<stop stop-color="#5761D7"/>
<stop offset="0.07" stop-color="#5471D8"/>
<stop offset="0.28" stop-color="#4D9BDA"/>
<stop offset="0.48" stop-color="#48BDDD"/>
<stop offset="0.67" stop-color="#44D4DE"/>
<stop offset="0.85" stop-color="#42E3DF"/>
<stop offset="1" stop-color="#42E8E0"/>
</linearGradient>
<linearGradient id="paint20_linear_103_5536" x1="185.79" y1="138.75" x2="287.91" y2="138.75" gradientUnits="userSpaceOnUse">
<stop stop-color="#5761D7"/>
<stop offset="0.07" stop-color="#5471D8"/>
<stop offset="0.28" stop-color="#4D9BDA"/>
<stop offset="0.48" stop-color="#48BDDD"/>
<stop offset="0.67" stop-color="#44D4DE"/>
<stop offset="0.85" stop-color="#42E3DF"/>
<stop offset="1" stop-color="#42E8E0"/>
</linearGradient>
<linearGradient id="paint21_linear_103_5536" x1="185.79" y1="146.64" x2="287.91" y2="146.64" gradientUnits="userSpaceOnUse">
<stop stop-color="#5761D7"/>
<stop offset="0.07" stop-color="#5471D8"/>
<stop offset="0.28" stop-color="#4D9BDA"/>
<stop offset="0.48" stop-color="#48BDDD"/>
<stop offset="0.67" stop-color="#44D4DE"/>
<stop offset="0.85" stop-color="#42E3DF"/>
<stop offset="1" stop-color="#42E8E0"/>
</linearGradient>
<linearGradient id="paint22_linear_103_5536" x1="185.79" y1="138.75" x2="287.91" y2="138.75" gradientUnits="userSpaceOnUse">
<stop stop-color="#5761D7"/>
<stop offset="0.07" stop-color="#5471D8"/>
<stop offset="0.28" stop-color="#4D9BDA"/>
<stop offset="0.48" stop-color="#48BDDD"/>
<stop offset="0.67" stop-color="#44D4DE"/>
<stop offset="0.85" stop-color="#42E3DF"/>
<stop offset="1" stop-color="#42E8E0"/>
</linearGradient>
<linearGradient id="paint23_linear_103_5536" x1="185.79" y1="152.91" x2="287.91" y2="152.91" gradientUnits="userSpaceOnUse">
<stop stop-color="#5761D7"/>
<stop offset="0.07" stop-color="#5471D8"/>
<stop offset="0.28" stop-color="#4D9BDA"/>
<stop offset="0.48" stop-color="#48BDDD"/>
<stop offset="0.67" stop-color="#44D4DE"/>
<stop offset="0.85" stop-color="#42E3DF"/>
<stop offset="1" stop-color="#42E8E0"/>
</linearGradient>
<linearGradient id="paint24_linear_103_5536" x1="191.77" y1="218.4" x2="95.7497" y2="218.4" gradientUnits="userSpaceOnUse">
<stop stop-color="#5761D7"/>
<stop offset="0.07" stop-color="#5471D8"/>
<stop offset="0.28" stop-color="#4D9BDA"/>
<stop offset="0.48" stop-color="#48BDDD"/>
<stop offset="0.67" stop-color="#44D4DE"/>
<stop offset="0.85" stop-color="#42E3DF"/>
<stop offset="1" stop-color="#42E8E0"/>
</linearGradient>
<linearGradient id="paint25_linear_103_5536" x1="191.77" y1="211.02" x2="95.7497" y2="211.02" gradientUnits="userSpaceOnUse">
<stop stop-color="#5761D7"/>
<stop offset="0.07" stop-color="#5471D8"/>
<stop offset="0.28" stop-color="#4D9BDA"/>
<stop offset="0.48" stop-color="#48BDDD"/>
<stop offset="0.67" stop-color="#44D4DE"/>
<stop offset="0.85" stop-color="#42E3DF"/>
<stop offset="1" stop-color="#42E8E0"/>
</linearGradient>
<linearGradient id="paint26_linear_103_5536" x1="191.77" y1="203.63" x2="95.7497" y2="203.63" gradientUnits="userSpaceOnUse">
<stop stop-color="#5761D7"/>
<stop offset="0.07" stop-color="#5471D8"/>
<stop offset="0.28" stop-color="#4D9BDA"/>
<stop offset="0.48" stop-color="#48BDDD"/>
<stop offset="0.67" stop-color="#44D4DE"/>
<stop offset="0.85" stop-color="#42E3DF"/>
<stop offset="1" stop-color="#42E8E0"/>
</linearGradient>
<linearGradient id="paint27_linear_103_5536" x1="191.77" y1="196.24" x2="95.7497" y2="196.24" gradientUnits="userSpaceOnUse">
<stop stop-color="#5761D7"/>
<stop offset="0.07" stop-color="#5471D8"/>
<stop offset="0.28" stop-color="#4D9BDA"/>
<stop offset="0.48" stop-color="#48BDDD"/>
<stop offset="0.67" stop-color="#44D4DE"/>
<stop offset="0.85" stop-color="#42E3DF"/>
<stop offset="1" stop-color="#42E8E0"/>
</linearGradient>
<linearGradient id="paint28_linear_103_5536" x1="191.77" y1="207.32" x2="95.7498" y2="207.32" gradientUnits="userSpaceOnUse">
<stop stop-color="#5761D7"/>
<stop offset="0.07" stop-color="#5471D8"/>
<stop offset="0.28" stop-color="#4D9BDA"/>
<stop offset="0.48" stop-color="#48BDDD"/>
<stop offset="0.67" stop-color="#44D4DE"/>
<stop offset="0.85" stop-color="#42E3DF"/>
<stop offset="1" stop-color="#42E8E0"/>
</linearGradient>
<linearGradient id="paint29_linear_103_5536" x1="201.97" y1="183.71" x2="85.5498" y2="183.71" gradientUnits="userSpaceOnUse">
<stop stop-color="#5761D7"/>
<stop offset="0.07" stop-color="#5471D8"/>
<stop offset="0.28" stop-color="#4D9BDA"/>
<stop offset="0.48" stop-color="#48BDDD"/>
<stop offset="0.67" stop-color="#44D4DE"/>
<stop offset="0.85" stop-color="#42E3DF"/>
<stop offset="1" stop-color="#42E8E0"/>
</linearGradient>
<linearGradient id="paint30_linear_103_5536" x1="201.97" y1="174.75" x2="85.5498" y2="174.75" gradientUnits="userSpaceOnUse">
<stop stop-color="#5761D7"/>
<stop offset="0.07" stop-color="#5471D8"/>
<stop offset="0.28" stop-color="#4D9BDA"/>
<stop offset="0.48" stop-color="#48BDDD"/>
<stop offset="0.67" stop-color="#44D4DE"/>
<stop offset="0.85" stop-color="#42E3DF"/>
<stop offset="1" stop-color="#42E8E0"/>
</linearGradient>
<linearGradient id="paint31_linear_103_5536" x1="201.97" y1="165.79" x2="85.5498" y2="165.79" gradientUnits="userSpaceOnUse">
<stop stop-color="#5761D7"/>
<stop offset="0.07" stop-color="#5471D8"/>
<stop offset="0.28" stop-color="#4D9BDA"/>
<stop offset="0.48" stop-color="#48BDDD"/>
<stop offset="0.67" stop-color="#44D4DE"/>
<stop offset="0.85" stop-color="#42E3DF"/>
<stop offset="1" stop-color="#42E8E0"/>
</linearGradient>
<linearGradient id="paint32_linear_103_5536" x1="201.97" y1="156.84" x2="85.5498" y2="156.84" gradientUnits="userSpaceOnUse">
<stop stop-color="#5761D7"/>
<stop offset="0.07" stop-color="#5471D8"/>
<stop offset="0.28" stop-color="#4D9BDA"/>
<stop offset="0.48" stop-color="#48BDDD"/>
<stop offset="0.67" stop-color="#44D4DE"/>
<stop offset="0.85" stop-color="#42E3DF"/>
<stop offset="1" stop-color="#42E8E0"/>
</linearGradient>
<linearGradient id="paint33_linear_103_5536" x1="201.97" y1="170.27" x2="85.5498" y2="170.27" gradientUnits="userSpaceOnUse">
<stop stop-color="#5761D7"/>
<stop offset="0.07" stop-color="#5471D8"/>
<stop offset="0.28" stop-color="#4D9BDA"/>
<stop offset="0.48" stop-color="#48BDDD"/>
<stop offset="0.67" stop-color="#44D4DE"/>
<stop offset="0.85" stop-color="#42E3DF"/>
<stop offset="1" stop-color="#42E8E0"/>
</linearGradient>
<linearGradient id="paint34_linear_103_5536" x1="201.97" y1="156.84" x2="85.5498" y2="156.84" gradientUnits="userSpaceOnUse">
<stop stop-color="#5761D7"/>
<stop offset="0.07" stop-color="#5471D8"/>
<stop offset="0.28" stop-color="#4D9BDA"/>
<stop offset="0.48" stop-color="#48BDDD"/>
<stop offset="0.67" stop-color="#44D4DE"/>
<stop offset="0.85" stop-color="#42E3DF"/>
<stop offset="1" stop-color="#42E8E0"/>
</linearGradient>
<linearGradient id="paint35_linear_103_5536" x1="201.97" y1="172.98" x2="85.5499" y2="172.98" gradientUnits="userSpaceOnUse">
<stop stop-color="#5761D7"/>
<stop offset="0.07" stop-color="#5471D8"/>
<stop offset="0.28" stop-color="#4D9BDA"/>
<stop offset="0.48" stop-color="#48BDDD"/>
<stop offset="0.67" stop-color="#44D4DE"/>
<stop offset="0.85" stop-color="#42E3DF"/>
<stop offset="1" stop-color="#42E8E0"/>
</linearGradient>
<linearGradient id="paint36_linear_103_5536" x1="169.656" y1="91.4688" x2="157.397" y2="92.18" gradientUnits="userSpaceOnUse">
<stop stop-color="#5761D7"/>
<stop offset="0.07" stop-color="#5471D8"/>
<stop offset="0.28" stop-color="#4D9BDA"/>
<stop offset="0.48" stop-color="#48BDDD"/>
<stop offset="0.67" stop-color="#44D4DE"/>
<stop offset="0.85" stop-color="#42E3DF"/>
<stop offset="1" stop-color="#42E8E0"/>
</linearGradient>
<linearGradient id="paint37_linear_103_5536" x1="152.556" y1="96.4576" x2="126.889" y2="97.9466" gradientUnits="userSpaceOnUse">
<stop stop-color="#5761D7"/>
<stop offset="0.07" stop-color="#5471D8"/>
<stop offset="0.28" stop-color="#4D9BDA"/>
<stop offset="0.48" stop-color="#48BDDD"/>
<stop offset="0.67" stop-color="#44D4DE"/>
<stop offset="0.85" stop-color="#42E3DF"/>
<stop offset="1" stop-color="#42E8E0"/>
</linearGradient>
<linearGradient id="paint38_linear_103_5536" x1="162.459" y1="63.2386" x2="120.719" y2="65.6599" gradientUnits="userSpaceOnUse">
<stop stop-color="#5761D7"/>
<stop offset="0.07" stop-color="#5471D8"/>
<stop offset="0.28" stop-color="#4D9BDA"/>
<stop offset="0.48" stop-color="#48BDDD"/>
<stop offset="0.67" stop-color="#44D4DE"/>
<stop offset="0.85" stop-color="#42E3DF"/>
<stop offset="1" stop-color="#42E8E0"/>
</linearGradient>
</defs>
</svg>
