<svg width="416" height="466" viewBox="0 0 416 466" fill="none" xmlns="http://www.w3.org/2000/svg">
<path d="M415.15 287.48L347.817 248.611C347.021 248.133 345.959 248.399 345.481 249.248C345.003 250.045 345.268 251.107 346.118 251.585L410.902 288.967L110.558 462.336L10.2485 404.405V135.138L17.1518 131.155L8.54928 121.226L-0.0532227 141.032L6.85002 137.049V405.36C6.85002 405.945 7.16863 406.529 7.69965 406.847L109.708 465.734C109.708 465.734 110.239 465.947 110.558 465.947C110.877 465.947 111.142 465.894 111.408 465.734L415.15 290.347C415.681 290.029 416 289.498 416 288.861C416 288.223 415.681 287.692 415.15 287.374V287.48Z" fill="#777CF5"/>
<path d="M298.91 60.0554C225.099 215.796 53.7389 405.148 52.0928 406.423C68.2357 397.13 220.479 287.055 312.504 72.5868L298.91 60.0554Z" fill="#843A84"/>
<path d="M314.947 0L324.665 1.91158L327.585 82.2509L317.177 80.18L300.185 52.4091L314.947 0Z" fill="#B65EB6"/>
<path d="M314.947 -1.22562e-06L256.8 47.0991L275.917 57.6128C185.75 266.559 28.1969 390.333 26.5508 391.555L52.0928 406.369C53.7389 405.148 211.611 281.108 301.778 71.6841L317.177 80.1269L315 -0.0531006L314.947 -1.22562e-06Z" fill="#FF98FF"/>
<path d="M319.992 105.774V288.595C319.938 292.524 322.487 296.454 327.638 299.427C337.834 305.321 354.455 305.321 364.65 299.427C369.695 296.507 372.244 292.684 372.297 288.861V106.093L319.938 105.827L319.992 105.774Z" fill="url(#paint0_linear_5_23469)"/>
<path d="M364.544 95.0478C360.455 92.7115 355.835 91.3309 350.153 90.7999C338.79 89.7379 328.063 92.9239 322.859 98.871C319.62 102.588 319.142 106.624 321.213 110.34C322.487 112.571 324.665 114.642 327.744 116.447C333.851 120.005 341.763 121.491 350.313 120.695C358.862 119.898 365.5 117.084 369.429 112.624C371.022 110.765 371.978 108.854 372.244 106.889C372.828 102.588 370.173 98.34 364.544 95.0478Z" fill="url(#paint1_linear_5_23469)"/>
<path d="M272.731 155.634V315.888C272.678 319.817 275.227 323.747 280.378 326.72C290.573 332.614 307.194 332.614 317.39 326.72C322.434 323.8 324.983 319.977 325.036 316.154V155.9L272.678 155.634H272.731Z" fill="url(#paint2_linear_5_23469)"/>
<path d="M317.283 144.908C313.194 142.572 308.575 141.191 302.893 140.66C291.529 139.598 280.802 142.784 275.598 148.731C272.518 152.236 271.934 156.059 273.634 159.617C274.802 162.059 277.138 164.343 280.484 166.307C286.59 169.865 294.503 171.352 303.052 170.555C311.601 169.759 318.239 166.944 322.169 162.484C323.921 160.466 324.877 158.342 325.036 156.218C325.355 152.13 322.647 148.041 317.283 144.961V144.908Z" fill="url(#paint3_linear_5_23469)"/>
<path d="M225.099 205.76V343.394C225.045 347.323 227.594 351.252 232.745 354.226C242.941 360.12 259.562 360.12 269.757 354.226C274.802 351.305 277.351 347.482 277.404 343.659V206.026L225.045 205.76H225.099Z" fill="url(#paint4_linear_5_23469)"/>
<path d="M269.651 194.981C265.562 192.644 260.942 191.264 255.26 190.733C243.896 189.671 233.17 192.857 227.966 198.804C225.098 202.096 224.408 205.654 225.683 208.946C226.745 211.654 229.187 214.203 232.851 216.327C238.958 219.884 246.87 221.371 255.42 220.575C263.969 219.778 270.607 216.964 274.536 212.504C275.917 210.911 276.82 209.265 277.191 207.618C278.253 203.052 275.651 198.432 269.651 194.981Z" fill="url(#paint5_linear_5_23469)"/>
<path d="M177.413 255.089V370.899C177.36 374.828 179.909 378.758 185.06 381.731C195.255 387.625 211.876 387.625 222.072 381.731C227.117 378.811 229.665 374.988 229.719 371.165V255.355L177.36 255.089H177.413Z" fill="url(#paint6_linear_5_23469)"/>
<path d="M222.019 244.363C217.93 242.027 213.31 240.646 207.628 240.115C196.264 239.053 185.538 242.239 180.334 248.186C175.13 254.134 177.042 260.983 185.219 265.709C191.379 269.267 199.238 270.754 207.788 269.957C216.337 269.161 222.975 266.346 226.904 261.886C232.108 255.939 230.197 249.089 222.019 244.363Z" fill="url(#paint7_linear_5_23469)"/>
<path d="M129.037 312.33V398.829C128.984 402.759 131.533 406.688 136.684 409.662C146.879 415.556 163.5 415.556 173.696 409.662C178.741 406.741 181.289 402.918 181.343 399.095V312.596L128.984 312.33H129.037Z" fill="url(#paint8_linear_5_23469)"/>
<path d="M173.59 301.604C169.501 299.268 164.881 297.887 159.199 297.356C147.835 296.294 137.109 299.48 131.905 305.428C126.701 311.375 128.612 318.224 136.79 322.95C142.897 326.508 150.809 327.995 159.358 327.198C167.908 326.402 174.546 323.587 178.475 319.127C183.679 313.18 181.767 306.33 173.59 301.604Z" fill="url(#paint9_linear_5_23469)"/>
<path d="M80.6615 366.386V426.813C80.6084 430.742 83.1573 434.671 88.3082 437.645C98.5037 443.539 115.125 443.539 125.32 437.645C130.365 434.724 132.914 430.901 132.967 427.078V366.651L80.6084 366.386H80.6615Z" fill="url(#paint10_linear_5_23469)"/>
<path d="M125.214 355.606C121.125 353.27 116.505 351.889 110.823 351.358C99.4595 350.297 88.733 353.482 83.529 359.43C78.325 365.377 80.2367 372.227 88.4144 376.952C94.5211 380.51 102.433 381.997 110.983 381.2C119.532 380.404 126.17 377.59 130.099 373.129C135.303 367.182 133.392 360.332 125.214 355.606Z" fill="url(#paint11_linear_5_23469)"/>
<path style="mix-blend-mode:screen" opacity="0.6" d="M371.341 109.278C370.651 110.712 369.111 112.518 366.934 114.164C362.579 117.509 355.304 119.474 347.976 119.739C340.648 120.164 333.32 118.624 328.382 116.075C325.939 114.854 324.027 113.473 322.912 112.305C321.744 111.19 321.266 110.34 321.266 110.34C321.266 110.34 321.585 111.243 322.594 112.571C323.603 113.898 325.302 115.65 327.798 117.137C330.24 118.624 333.373 120.058 336.878 120.907C340.383 121.81 344.259 122.075 348.083 121.969C351.906 121.757 355.729 121.173 359.181 120.005C362.632 118.889 365.606 117.084 367.783 115.173C369.961 113.261 371.235 111.084 371.766 109.491C372.297 107.898 372.297 106.942 372.297 106.942C372.297 106.942 372.138 107.898 371.394 109.332L371.341 109.278Z" fill="url(#paint12_radial_5_23469)"/>
<path style="mix-blend-mode:screen" opacity="0.6" d="M325.09 156.165C325.09 156.165 324.983 157.121 324.293 158.661C323.656 160.201 322.169 162.006 319.992 163.758C315.637 167.263 308.15 169.281 300.716 169.546C293.228 169.971 285.741 168.325 280.803 165.67C278.307 164.343 276.448 162.909 275.333 161.688C274.218 160.466 273.74 159.617 273.74 159.617C273.74 159.617 274.005 160.572 274.961 161.953C275.917 163.334 277.616 165.192 280.112 166.785C282.555 168.325 285.741 169.865 289.352 170.714C292.91 171.617 296.892 171.936 300.769 171.83C304.698 171.617 308.575 171.033 312.08 169.812C315.584 168.644 318.611 166.785 320.788 164.767C322.965 162.75 324.187 160.519 324.718 158.873C325.196 157.227 325.09 156.218 325.09 156.218V156.165Z" fill="url(#paint13_radial_5_23469)"/>
<path style="mix-blend-mode:screen" opacity="0.6" d="M276.076 209.955C275.227 211.335 273.581 213.035 271.35 214.628C266.784 217.814 259.402 219.513 251.968 219.672C244.587 219.884 237.206 218.132 232.374 215.318C229.984 213.937 228.179 212.451 227.17 211.123C226.161 209.849 225.736 208.946 225.736 208.946C225.736 208.946 225.948 209.902 226.798 211.335C227.648 212.769 229.241 214.681 231.683 216.327C232.905 217.176 234.232 217.92 235.772 218.663C237.259 219.353 238.958 220.044 240.711 220.522C244.215 221.531 248.145 221.955 252.021 221.902C255.898 221.796 259.774 221.265 263.279 220.203C266.784 219.141 269.864 217.495 272.147 215.636C274.43 213.778 275.811 211.707 276.501 210.167C277.192 208.627 277.245 207.618 277.245 207.618C277.245 207.618 276.979 208.574 276.13 209.955H276.076Z" fill="url(#paint14_radial_5_23469)"/>
<path style="mix-blend-mode:screen" opacity="0.6" d="M228.444 259.284C227.594 260.718 225.948 262.364 223.718 263.957C219.151 267.143 211.77 268.842 204.336 269.001C196.955 269.214 189.574 267.461 184.741 264.647C182.352 263.267 180.546 261.78 179.537 260.452C178.528 259.178 178.104 258.275 178.104 258.275C178.104 258.275 178.316 259.231 179.166 260.665C180.015 262.098 181.608 264.01 184.051 265.656C185.272 266.506 186.6 267.249 188.14 267.992C189.627 268.683 191.326 269.373 193.078 269.851C196.583 270.86 200.513 271.285 204.389 271.232C208.265 271.125 212.142 270.594 215.647 269.532C219.151 268.47 222.231 266.824 224.515 264.966C226.798 263.107 228.179 261.036 228.869 259.497C229.559 257.957 229.612 256.948 229.612 256.948C229.612 256.948 229.347 257.904 228.497 259.284H228.444Z" fill="url(#paint15_radial_5_23469)"/>
<path style="mix-blend-mode:screen" opacity="0.6" d="M179.909 316.631C179.059 318.065 177.413 319.711 175.183 321.304C170.616 324.49 163.235 326.189 155.801 326.349C148.42 326.561 141.038 324.809 136.206 321.995C133.817 320.614 132.011 319.127 131.002 317.8C129.993 316.525 129.568 315.623 129.568 315.623C129.568 315.623 129.781 316.578 130.63 318.012C131.48 319.446 133.073 321.357 135.516 323.003C136.737 323.853 138.065 324.596 139.605 325.34C141.091 326.03 142.791 326.72 144.543 327.198C148.048 328.207 151.977 328.632 155.854 328.579C159.73 328.473 163.607 327.942 167.111 326.88C170.616 325.818 173.696 324.172 175.979 322.313C178.263 320.455 179.643 318.384 180.334 316.844C181.024 315.304 181.077 314.295 181.077 314.295C181.077 314.295 180.812 315.251 179.962 316.631H179.909Z" fill="url(#paint16_radial_5_23469)"/>
<path style="mix-blend-mode:screen" opacity="0.6" d="M131.321 370.58C130.471 371.961 128.825 373.66 126.595 375.253C122.028 378.439 114.647 380.138 107.213 380.298C99.8314 380.51 92.4502 378.758 87.618 375.943C85.2284 374.563 83.4229 373.076 82.414 371.749C81.405 370.474 80.9802 369.572 80.9802 369.572C80.9802 369.572 81.1926 370.527 82.0423 371.961C82.8919 373.395 84.485 375.306 86.9276 376.952C88.149 377.802 89.4765 378.545 91.0165 379.289C92.5033 379.979 94.2026 380.669 95.955 381.147C99.4597 382.156 103.389 382.581 107.266 382.528C111.142 382.422 115.019 381.891 118.523 380.829C122.028 379.767 125.108 378.121 127.391 376.262C129.675 374.404 131.055 372.333 131.746 370.793C132.436 369.253 132.489 368.244 132.489 368.244C132.489 368.244 132.224 369.2 131.374 370.58H131.321Z" fill="url(#paint17_radial_5_23469)"/>
<defs>
<linearGradient id="paint0_linear_5_23469" x1="319.992" y1="204.804" x2="372.297" y2="204.804" gradientUnits="userSpaceOnUse">
<stop stop-color="#454CEE"/>
<stop offset="0.31" stop-color="#777CF5"/>
<stop offset="0.97" stop-color="#9397FF"/>
<stop offset="1" stop-color="#9397FF"/>
</linearGradient>
<linearGradient id="paint1_linear_5_23469" x1="319.992" y1="105.721" x2="372.297" y2="105.721" gradientUnits="userSpaceOnUse">
<stop stop-color="#6E74F5"/>
<stop offset="1" stop-color="#A8ACFF"/>
</linearGradient>
<linearGradient id="paint2_linear_5_23469" x1="272.731" y1="243.354" x2="325.089" y2="243.354" gradientUnits="userSpaceOnUse">
<stop stop-color="#454CEE"/>
<stop offset="0.31" stop-color="#777CF5"/>
<stop offset="0.97" stop-color="#9397FF"/>
<stop offset="1" stop-color="#9397FF"/>
</linearGradient>
<linearGradient id="paint3_linear_5_23469" x1="272.731" y1="155.581" x2="325.089" y2="155.581" gradientUnits="userSpaceOnUse">
<stop stop-color="#6B71F5"/>
<stop offset="1" stop-color="#A8ACFF"/>
</linearGradient>
<linearGradient id="paint4_linear_5_23469" x1="225.099" y1="282.17" x2="277.457" y2="282.17" gradientUnits="userSpaceOnUse">
<stop stop-color="#454CEE"/>
<stop offset="0.31" stop-color="#777CF5"/>
<stop offset="0.97" stop-color="#9397FF"/>
<stop offset="1" stop-color="#9397FF"/>
</linearGradient>
<linearGradient id="paint5_linear_5_23469" x1="225.098" y1="205.707" x2="277.457" y2="205.707" gradientUnits="userSpaceOnUse">
<stop stop-color="#6B71F5"/>
<stop offset="1" stop-color="#A8ACFF"/>
</linearGradient>
<linearGradient id="paint6_linear_5_23469" x1="177.413" y1="320.614" x2="229.772" y2="320.614" gradientUnits="userSpaceOnUse">
<stop stop-color="#454CEE"/>
<stop offset="0.31" stop-color="#777CF5"/>
<stop offset="0.97" stop-color="#9397FF"/>
<stop offset="1" stop-color="#9397FF"/>
</linearGradient>
<linearGradient id="paint7_linear_5_23469" x1="177.413" y1="255.036" x2="229.772" y2="255.036" gradientUnits="userSpaceOnUse">
<stop stop-color="#6B71F5"/>
<stop offset="1" stop-color="#A8ACFF"/>
</linearGradient>
<linearGradient id="paint8_linear_5_23469" x1="129.037" y1="363.2" x2="181.396" y2="363.2" gradientUnits="userSpaceOnUse">
<stop stop-color="#454CEE"/>
<stop offset="0.31" stop-color="#777CF5"/>
<stop offset="0.97" stop-color="#9397FF"/>
<stop offset="1" stop-color="#9397FF"/>
</linearGradient>
<linearGradient id="paint9_linear_5_23469" x1="129.037" y1="312.277" x2="181.396" y2="312.277" gradientUnits="userSpaceOnUse">
<stop stop-color="#6B71F5"/>
<stop offset="1" stop-color="#A8ACFF"/>
</linearGradient>
<linearGradient id="paint10_linear_5_23469" x1="80.6615" y1="404.192" x2="132.967" y2="404.192" gradientUnits="userSpaceOnUse">
<stop stop-color="#454CEE"/>
<stop offset="0.31" stop-color="#777CF5"/>
<stop offset="0.97" stop-color="#9397FF"/>
<stop offset="1" stop-color="#9397FF"/>
</linearGradient>
<linearGradient id="paint11_linear_5_23469" x1="80.6615" y1="366.333" x2="132.967" y2="366.333" gradientUnits="userSpaceOnUse">
<stop stop-color="#6B71F5"/>
<stop offset="1" stop-color="#A8ACFF"/>
</linearGradient>
<radialGradient id="paint12_radial_5_23469" cx="0" cy="0" r="1" gradientUnits="userSpaceOnUse" gradientTransform="translate(349.304 120.429) scale(29.0467 29.0454)">
<stop stop-color="#FF98FF"/>
<stop offset="0.16" stop-color="#C877C8"/>
<stop offset="0.39" stop-color="#824D82"/>
<stop offset="0.6" stop-color="#4A2C4A"/>
<stop offset="0.78" stop-color="#211421"/>
<stop offset="0.92" stop-color="#090509"/>
<stop offset="1"/>
</radialGradient>
<radialGradient id="paint13_radial_5_23469" cx="0" cy="0" r="1" gradientUnits="userSpaceOnUse" gradientTransform="translate(301.141 170.821) scale(37.4899 37.4882)">
<stop stop-color="#FF98FF"/>
<stop offset="0.16" stop-color="#C877C8"/>
<stop offset="0.39" stop-color="#824D82"/>
<stop offset="0.6" stop-color="#4A2C4A"/>
<stop offset="0.78" stop-color="#211421"/>
<stop offset="0.92" stop-color="#090509"/>
<stop offset="1"/>
</radialGradient>
<radialGradient id="paint14_radial_5_23469" cx="0" cy="0" r="1" gradientUnits="userSpaceOnUse" gradientTransform="translate(252.074 220.84) scale(31.6487 31.6472)">
<stop stop-color="#A8ACFF"/>
<stop offset="0.16" stop-color="#7579D7"/>
<stop offset="0.39" stop-color="#3E4291"/>
<stop offset="0.6" stop-color="#303588"/>
<stop offset="0.78" stop-color="#151744"/>
<stop offset="0.92" stop-color="#0A0A12"/>
<stop offset="1"/>
</radialGradient>
<radialGradient id="paint15_radial_5_23469" cx="0" cy="0" r="1" gradientUnits="userSpaceOnUse" gradientTransform="translate(204.442 270.17) scale(31.6487 31.6472)">
<stop stop-color="#A8ACFF"/>
<stop offset="0.16" stop-color="#7579D7"/>
<stop offset="0.39" stop-color="#3E4291"/>
<stop offset="0.6" stop-color="#303588"/>
<stop offset="0.78" stop-color="#151744"/>
<stop offset="0.92" stop-color="#0A0A12"/>
<stop offset="1"/>
</radialGradient>
<radialGradient id="paint16_radial_5_23469" cx="0" cy="0" r="1" gradientUnits="userSpaceOnUse" gradientTransform="translate(155.907 327.517) scale(31.6487 31.6472)">
<stop stop-color="#A8ACFF"/>
<stop offset="0.16" stop-color="#7579D7"/>
<stop offset="0.39" stop-color="#3E4291"/>
<stop offset="0.6" stop-color="#303588"/>
<stop offset="0.78" stop-color="#151744"/>
<stop offset="0.92" stop-color="#0A0A12"/>
<stop offset="1"/>
</radialGradient>
<radialGradient id="paint17_radial_5_23469" cx="0" cy="0" r="1" gradientUnits="userSpaceOnUse" gradientTransform="translate(107.319 381.466) scale(31.6487 31.6472)">
<stop stop-color="#A8ACFF"/>
<stop offset="0.16" stop-color="#7579D7"/>
<stop offset="0.39" stop-color="#3E4291"/>
<stop offset="0.6" stop-color="#303588"/>
<stop offset="0.78" stop-color="#151744"/>
<stop offset="0.92" stop-color="#0A0A12"/>
<stop offset="1"/>
</radialGradient>
</defs>
</svg>
