<svg width="110" height="76" viewBox="0 0 110 76" fill="none" xmlns="http://www.w3.org/2000/svg">
<mask id="mask0_118_18496" style="mask-type:luminance" maskUnits="userSpaceOnUse" x="0" y="0" width="110" height="76">
<path d="M110 0H0V76H110V0Z" fill="white"/>
</mask>
<g mask="url(#mask0_118_18496)">
<path d="M56.971 57.152V53.1635H53.2099V57.152H50.5096V47.0349H53.2099V51.0234H56.971V47.0349H59.6713V57.152H56.971ZM70.6728 47.0349V55.9846C70.6728 58.903 69.1298 60.9459 65.658 60.9459C61.029 60.9459 60.9325 57.4438 60.9325 57.4438H63.6328C63.6328 57.4438 63.7292 58.903 65.658 58.903C67.3746 58.903 67.9725 57.9302 67.9725 56.1792V55.6928H67.8761C67.8761 55.6928 67.0081 57.0547 64.8865 57.0547C61.9933 57.0547 60.5468 54.5254 60.5468 51.8989C60.5468 49.2723 61.9933 46.743 64.8865 46.743C67.1046 46.743 67.9725 48.3968 67.9725 48.3968H68.069V47.0349H70.6728ZM68.069 51.8989C68.069 50.2646 67.2975 48.7859 65.658 48.7859C64.0185 48.7859 63.247 50.2646 63.247 51.8989C63.247 53.5332 64.0185 55.0118 65.658 55.0118C67.2975 55.0118 68.069 53.5332 68.069 51.8989ZM71.6432 60.6541V47.0349H74.247V48.3968H74.3435C74.3435 48.3968 75.2114 46.743 77.4295 46.743C80.3227 46.743 81.7692 49.2723 81.7692 52.0934C81.7692 54.9146 80.3227 57.4438 77.4295 57.4438C75.3079 57.4438 74.4399 56.0819 74.4399 56.0819H74.3435V60.6541H71.6432ZM74.247 52.0934C74.247 53.9223 75.0185 55.401 76.658 55.401C78.2975 55.401 79.069 53.9223 79.069 52.0934C79.069 50.2646 78.2975 48.7859 76.658 48.7859C75.0185 48.7859 74.247 50.2646 74.247 52.0934ZM82.5468 52.0934C82.5468 49.1361 84.2634 46.743 87.5616 46.743C90.8598 46.743 92.3835 49.1361 92.3835 52.0934C92.3835 52.3269 92.3642 52.6771 92.3642 52.6771H85.2663C85.382 54.2336 86.0378 55.401 87.658 55.401C89.2974 55.401 89.5868 53.8445 89.5868 53.8445H92.287C92.287 53.8445 91.7084 57.4438 87.5616 57.4438C84.1862 57.4438 82.5468 55.0508 82.5468 52.0934ZM87.5616 48.7859C86.2307 48.7859 85.5749 49.6809 85.3435 50.9261H89.6061C89.4325 49.6809 88.8924 48.7859 87.5616 48.7859ZM94.2122 46.0621V45.2838H101.638V46.0621H94.2122ZM102.602 47.0349V57.152H99.9985V55.4982H99.9021C99.9021 55.4982 99.0341 57.4438 96.816 57.4438C94.0193 57.4438 93.2478 55.5955 93.2478 53.2608V47.0349H95.9481V52.6771C95.9481 54.4282 96.4303 55.2064 97.684 55.2064C99.1305 55.2064 99.9021 54.3309 99.9021 52.288V47.0349H102.602Z" fill="#454CEE"/>
<path d="M50.4011 70.9415C50.4011 72.7703 51.0954 74.249 52.812 74.249C54.5286 74.249 55.223 72.7703 55.223 70.9415C55.223 69.1126 54.5286 67.6339 52.812 67.6339C51.0954 67.6339 50.4011 69.1126 50.4011 70.9415ZM47.7008 70.9415C47.7008 67.9841 49.5138 65.591 52.812 65.591C56.1102 65.591 57.9233 67.9841 57.9233 70.9415C57.9233 73.8988 56.1102 76.2919 52.812 76.2919C49.5138 76.2919 47.7008 73.8988 47.7008 70.9415ZM57.8298 76L61.4366 65.8829H64.4841L68.0909 76H65.1977L62.8832 68.8207L60.5687 76H57.8298ZM70.6872 70.9415C70.6872 72.7703 71.3815 74.249 73.0981 74.249C74.8148 74.249 75.5091 72.7703 75.5091 70.9415C75.5091 69.1126 74.8148 67.6339 73.0981 67.6339C71.3815 67.6339 70.6872 69.1126 70.6872 70.9415ZM67.9869 70.9415C67.9869 67.9841 69.8 65.591 73.0981 65.591C76.3963 65.591 78.2094 67.9841 78.2094 70.9415C78.2094 73.8988 76.3963 76.2919 73.0981 76.2919C69.8 76.2919 67.9869 73.8988 67.9869 70.9415ZM85.5447 76V72.0115H81.7836V76H79.0834V65.8829H81.7836V69.8714H85.5447V65.8829H88.2447V76H85.5447ZM98.5714 65.8829V76H95.9676V74.3462H95.8712C95.8712 74.3462 95.0032 76.2919 92.7851 76.2919C89.9884 76.2919 89.2169 74.4435 89.2169 72.1088V65.8829H91.9172V71.5251C91.9172 73.2762 92.3994 74.0544 93.6531 74.0544C95.0997 74.0544 95.8712 73.1789 95.8712 71.136V65.8829H98.5714ZM106 76V72.0115H102.239V76H99.5388V65.8829H102.239V69.8714H106V65.8829H108.7V76H106Z" fill="#454CEE"/>
<path d="M58.4657 36.48H73.0821L51.5342 0.152008H36.4657L58.4657 36.48Z" fill="#2E34C5"/>
<path d="M14.6164 76H0L36.6164 0.152008H51.6849L14.6164 76Z" fill="#454CEE"/>
<path d="M50.0274 57.152H46.2624L44.9014 54.6437H37.0712L35.7102 57.152H31.9452L39.0509 44.08H42.9395L50.0274 57.152ZM40.995 47.4185L38.5205 51.9585H43.4521L40.995 47.4185Z" fill="#454CEE"/>
<path d="M39.898 67.1579C41.7349 67.1579 43.1709 67.3166 44.2058 67.6339C45.2522 67.9516 45.9788 68.4103 46.3859 69.0101C46.8045 69.6099 47.0137 70.3684 47.0137 71.2859V71.3388C47.0137 72.5736 46.5312 73.6084 45.5662 74.4435C44.6009 75.2668 42.8918 75.6842 40.4387 75.696H31.9452V62.624H46.0894V65.2171H35.3808V67.1579H39.898ZM40.1771 72.9792C41.2934 72.9792 42.0956 72.8442 42.5838 72.5736C43.0835 72.3031 43.3337 71.8386 43.3337 71.1798C43.3337 70.7329 43.2231 70.3979 43.0025 70.1745C42.7815 69.951 42.45 69.7981 42.0079 69.7157C41.5664 69.6333 40.9558 69.5923 40.1771 69.5923H40.1596H35.3808V72.9615C37.0902 72.9615 38.2122 72.9676 38.7468 72.9792C39.2817 72.9792 39.619 72.9792 39.7585 72.9792H40.1771Z" fill="#454CEE"/>
</g>
</svg>
