<svg width="211" height="194" viewBox="0 0 211 194" fill="none" xmlns="http://www.w3.org/2000/svg">
<path d="M180.883 177.206C180.567 177.374 180.263 177.581 179.971 177.815C179.846 174.074 176.883 172.59 173.242 174.509C170.273 176.069 167.758 179.418 166.858 182.697C166.125 182.604 165.267 182.778 164.343 183.268C161.685 184.665 159.533 188.068 159.533 190.868C159.533 193.668 161.685 194.799 164.343 193.402L180.883 184.692C182.844 183.659 184.435 181.147 184.435 179.081C184.435 177.015 182.844 176.178 180.883 177.211V177.206Z" fill="white"/>
<path d="M119.075 1.84843C118.526 2.13658 118.008 2.55521 117.549 3.04451C117.477 0.304386 115.32 -0.788403 112.667 0.608845C111.815 1.05466 111.016 1.70707 110.319 2.47365C109.139 0.587098 106.689 0.152157 103.852 1.64727C99.8646 3.74586 96.6281 8.85641 96.6281 13.059C96.6281 13.407 96.6579 13.7278 96.6997 14.0431C96.1334 13.9072 95.4361 14.0159 94.6791 14.4128C92.7718 15.4186 91.2222 17.8651 91.2222 19.8713C91.2222 21.8775 92.7718 22.6984 94.6791 21.6926L119.069 8.84554C120.904 7.8778 122.394 5.52912 122.394 3.59363C122.394 1.65814 120.904 0.875247 119.069 1.84299L119.075 1.84843Z" fill="white"/>
<path d="M15.89 43.1243C15.89 44.0322 15.1927 45.1359 14.3284 45.5871C13.4642 46.0384 12.7668 45.6741 12.7668 44.7662C12.7668 43.8582 13.4642 42.7546 14.3284 42.3033C15.1927 41.8521 15.89 42.2163 15.89 43.1243Z" fill="white"/>
<path d="M20.9442 40.4602C20.9442 41.3682 20.2469 42.4718 19.3826 42.9231C18.5184 43.3743 17.821 43.0101 17.821 42.1021C17.821 41.1942 18.5184 40.0905 19.3826 39.6393C20.2469 39.188 20.9442 39.5523 20.9442 40.4602Z" fill="white"/>
<path d="M25.9987 37.8018C25.9987 38.7097 25.3013 39.8134 24.4371 40.2646C23.5728 40.7159 22.8755 40.3516 22.8755 39.4437C22.8755 38.5357 23.5728 37.4321 24.4371 36.9808C25.3013 36.5296 25.9987 36.8938 25.9987 37.8018Z" fill="white"/>
<path d="M31.0529 35.1377C31.0529 36.0456 30.3555 37.1493 29.4913 37.6006C28.627 38.0518 27.9297 37.6876 27.9297 36.7796C27.9297 35.8717 28.627 34.768 29.4913 34.3168C30.3555 33.8655 31.0529 34.2298 31.0529 35.1377Z" fill="white"/>
<path d="M202.727 57.6569L199.61 59.2988V56.0149L202.727 54.373V57.6569Z" fill="white"/>
<path d="M207.06 55.3517L203.937 56.9936V53.7098L207.06 52.0625V55.3517Z" fill="white"/>
<path d="M202.757 61.9193L199.64 63.5612V60.2774L202.757 58.6355V61.9193Z" fill="white"/>
<path d="M207.06 59.6522L203.937 61.2996V58.0103L207.06 56.3684V59.6522Z" fill="white"/>
<path opacity="0.4" d="M46.675 163.57C46.0909 163.875 45.5425 164.315 45.0597 164.837C44.9823 161.934 42.6995 160.776 39.8922 162.255C38.9922 162.728 38.1458 163.418 37.4067 164.234C36.1551 162.238 33.5624 161.776 30.5584 163.358C26.3325 165.582 22.9113 170.992 22.9113 175.444C22.9113 175.814 22.9411 176.157 22.9888 176.483C22.3868 176.341 21.6477 176.456 20.8491 176.88C18.8285 177.945 17.1895 180.533 17.1895 182.664C17.1895 184.796 18.8285 185.655 20.8491 184.589L46.675 170.986C48.618 169.964 50.1915 167.474 50.1915 165.43C50.1915 163.386 48.618 162.554 46.675 163.576V163.57Z" fill="white"/>
<path d="M125.321 121.778C124.415 121.653 123.557 121.408 122.847 121.033C120.72 119.913 120.72 118.092 122.847 116.972C124.975 115.852 128.426 115.852 130.554 116.972C131.263 117.347 131.734 117.798 131.967 118.277L146.695 110.518L115.355 94.0124C112.721 92.6261 108.453 92.6261 105.819 94.0124L74.4797 110.518L88.9155 118.119C88.3553 118.255 87.8308 118.445 87.3718 118.684C85.244 119.804 85.244 121.626 87.3718 122.746C89.4997 123.866 92.9507 123.866 95.0785 122.746C95.5374 122.501 95.895 122.229 96.1573 121.93L110.593 129.531L125.321 121.773V121.778Z" fill="#7DC3EA"/>
<path d="M195.462 139.197L164.122 122.691L149.395 130.45C149.156 129.971 148.691 129.52 147.982 129.145C145.854 128.025 142.403 128.025 140.275 129.145C138.148 130.265 138.148 132.086 140.275 133.206C140.985 133.581 141.843 133.826 142.749 133.951L128.021 141.709L143.184 149.696C143.267 149.022 143.786 148.364 144.763 147.847C146.891 146.727 150.342 146.727 152.47 147.847C154.598 148.967 154.598 150.789 152.47 151.909C151.493 152.425 150.241 152.697 148.959 152.74L164.122 160.727L195.462 144.221C198.096 142.835 198.096 140.584 195.462 139.197Z" fill="#7DC3EA"/>
<path d="M80.5413 150.674C79.844 150.31 79.0095 150.066 78.1215 149.935L92.8314 142.188L78.3956 134.587C78.1334 134.881 77.7817 135.158 77.3168 135.403C75.189 136.523 71.738 136.523 69.6102 135.403C67.4824 134.283 67.4824 132.461 69.6102 131.341C70.0691 131.097 70.5936 130.912 71.1539 130.776L56.7181 123.175L25.3789 139.681C22.7445 141.068 22.7445 143.319 25.3789 144.705L56.7181 161.211L71.4281 153.463C71.6665 153.931 72.1314 154.371 72.8287 154.736C74.9565 155.856 78.4075 155.856 80.5354 154.736C82.6632 153.616 82.6632 151.794 80.5354 150.674H80.5413Z" fill="#7DC3EA"/>
<path d="M130.399 163.288C131.609 163.25 132.795 162.989 133.719 162.499C135.733 161.439 135.733 159.721 133.719 158.661C131.704 157.601 128.444 157.601 126.429 158.661C125.506 159.145 125.011 159.77 124.933 160.406L110.593 152.854L96.6817 160.183C97.5221 160.303 98.3089 160.537 98.9704 160.879C100.985 161.939 100.985 163.657 98.9704 164.718C96.9559 165.778 93.6956 165.778 91.681 164.718C91.0254 164.37 90.5843 163.956 90.3578 163.511L76.4465 170.839L106.087 186.448C108.578 187.759 112.614 187.759 115.105 186.448L144.745 170.839L130.405 163.288H130.399Z" fill="#7DC3EA"/>
<path d="M144.531 88.4507L116.363 73.6137C113.174 71.9338 108 71.9338 104.812 73.6137L75.2665 89.1737L66.8506 86.0367V93.6047L80.5414 100.814V105.843C80.4818 106.773 81.1195 107.708 82.4665 108.414C85.0473 109.774 89.2255 109.774 91.8063 108.414C92.3666 108.121 92.7957 107.784 93.1116 107.43L110.593 116.635L128.432 107.24V100.52C130.626 100.221 133.051 100.52 134.774 101.423C135.632 101.874 136.198 102.423 136.485 102.999L154.324 93.6047V86.0367L144.531 88.4452V88.4507Z" fill="url(#paint0_linear_27_897)"/>
<path d="M126.769 100.254L126.483 100.613H126.644L110.593 109.072L93.1115 99.8679C92.7956 100.221 92.3665 100.558 91.8062 100.852C89.2254 102.211 85.0472 102.211 82.4664 100.852C81.4234 100.303 80.8095 99.6124 80.6128 98.9001C80.3207 99.9494 80.9347 101.059 82.4664 101.863C85.0472 103.222 89.2254 103.222 91.8062 101.863C92.3665 101.57 92.7956 101.233 93.1115 100.879L110.593 110.084L128.432 100.689V99.6776L126.769 100.254Z" fill="white"/>
<path d="M128.432 99.6776C127.336 99.5254 126.292 99.2264 125.434 98.7751C122.853 97.4159 122.853 95.214 125.434 93.8603C128.015 92.5011 132.193 92.5011 134.774 93.8603C135.632 94.3115 136.198 94.8606 136.485 95.4369L154.324 86.0422L116.363 66.0512C113.174 64.3713 108 64.3713 104.812 66.0512L66.8506 86.0422L84.3321 95.2467C83.6586 95.4152 83.0208 95.6381 82.4606 95.9317C79.8798 97.2909 79.8798 99.4928 82.4606 100.847C85.0414 102.206 89.2195 102.206 91.8003 100.847C92.3606 100.553 92.7897 100.216 93.1056 99.8625L110.587 109.067L128.426 99.6722L128.432 99.6776Z" fill="url(#paint1_radial_27_897)"/>
<path d="M84.338 95.2467L66.8564 86.0422V87.0535L83.1519 95.6327C83.5274 95.4805 83.9207 95.35 84.338 95.2467Z" fill="white"/>
<path d="M136.484 95.437C136.198 94.8607 135.632 94.3116 134.774 93.8603C132.193 92.5011 128.015 92.5011 125.434 93.8603C123.896 94.6704 123.288 95.774 123.58 96.8233C123.777 96.1111 124.391 95.4207 125.434 94.8715C128.015 93.5124 132.193 93.5124 134.774 94.8715C135.632 95.3228 136.198 95.8719 136.484 96.4482L154.324 87.0535V86.0422L136.484 95.437Z" fill="white"/>
<path d="M198.4 118.994L164.414 101.096L146.575 110.491C146.289 109.915 145.723 109.366 144.865 108.915C143.965 108.442 142.862 108.137 141.706 107.99C141.134 107.305 139.208 105.212 139.018 105.163C138.791 105.103 133.594 103.733 133.594 103.733V111.328C133.576 112.231 134.214 113.139 135.525 113.829C136.383 114.281 137.426 114.58 138.523 114.732L129.547 119.462L120.684 116.564V124.132L139.047 133.804C139.143 132.988 139.781 132.189 140.961 131.564C142.355 130.83 144.221 130.493 146.051 130.558V137.49L164.42 147.162L202.381 127.171C204.015 126.312 204.801 125.181 204.766 124.056V116.64L198.4 118.994Z" fill="url(#paint2_linear_27_897)"/>
<path d="M139.048 120.354V133.799C139.149 132.983 139.781 132.184 140.961 131.564C143.542 130.205 147.72 130.205 150.301 131.564C150.855 131.858 151.284 132.189 151.6 132.543C152.977 132.151 154.419 131.928 155.885 131.858V120.354H139.048Z" fill="#2B31C9"/>
<path d="M164.415 101.096L164.283 101.167V147.091L164.415 147.162L202.376 127.171C204.009 126.312 204.795 125.181 204.76 124.056V116.64L198.394 118.994L164.409 101.096H164.415Z" fill="#2B31C9"/>
<path d="M146.051 132.108V129.922L148.125 131.015L146.051 132.108Z" fill="#595FEA"/>
<path d="M204.706 117.07C204.497 117.994 203.728 118.891 202.375 119.603L164.414 139.594L148.405 131.162C148.387 130.933 148.316 130.471 148.316 130.471L146.051 129.922V130.933L164.42 140.605L202.381 120.614C204.223 119.647 204.992 118.331 204.712 117.064L204.706 117.07Z" fill="white"/>
<path d="M202.375 113.52L164.414 93.5286L146.575 102.923C146.289 102.347 145.723 101.798 144.864 101.347C142.284 99.9874 138.106 99.9874 135.525 101.347C132.944 102.706 132.944 104.908 135.525 106.261C136.383 106.713 137.426 107.012 138.523 107.164L120.684 116.559L139.053 126.231C139.149 125.415 139.786 124.616 140.966 123.991C143.547 122.632 147.725 122.632 150.306 123.991C152.887 125.35 152.887 127.552 150.306 128.906C149.126 129.531 147.606 129.862 146.057 129.911L164.426 139.583L202.387 119.592C205.576 117.912 205.576 115.189 202.387 113.509L202.375 113.52Z" fill="url(#paint3_linear_27_897)"/>
<path d="M135.525 107.278C136.014 107.534 136.562 107.735 137.14 107.892L138.523 107.164C137.426 107.012 136.383 106.713 135.525 106.261C134.482 105.712 133.868 105.022 133.671 104.31C133.379 105.359 133.993 106.468 135.525 107.273V107.278Z" fill="white"/>
<path d="M152.154 126.959C152.446 125.91 151.832 124.801 150.301 123.996C147.72 122.637 143.542 122.637 140.961 123.996C139.781 124.621 139.143 125.42 139.048 126.236L120.678 116.564V117.581L139.048 127.253C139.143 126.437 139.781 125.638 140.961 125.013C143.542 123.654 147.72 123.654 150.301 125.013C151.344 125.562 151.958 126.252 152.154 126.964V126.959Z" fill="white"/>
<path d="M100.33 124.127V116.559L91.6157 119.533L82.8481 114.917C82.5322 115.27 82.1031 115.607 81.5428 115.901C78.962 117.26 74.7838 117.26 72.203 115.901C69.6818 114.574 69.6342 112.443 72.0362 111.078L74.0746 112.117V102.728H67.7686L67.1428 106.642L56.5931 101.086L23.0128 118.771L16.2419 116.553V124.121C16.2419 125.219 17.0406 126.323 18.632 127.16L56.5931 147.151L74.4083 137.768C74.7004 138.333 75.2607 138.866 76.107 139.312C78.6878 140.671 82.866 140.671 85.4468 139.312C86.7879 138.605 87.4196 137.675 87.372 136.751V130.944L100.336 124.121L100.33 124.127Z" fill="#2B31C9"/>
<path d="M56.5931 101.091L23.0128 118.777L16.2419 116.559V124.127C16.2419 125.225 17.0406 126.329 18.632 127.166L56.5931 147.157V101.091Z" fill="#595FEA"/>
<path d="M72.5724 102.771L72.3578 103.282L72.4114 103.326C72.3459 103.358 72.2743 103.385 72.2088 103.418C70.671 104.228 70.0631 105.332 70.3551 106.381C70.5518 105.669 71.1657 104.978 72.2088 104.429C72.769 104.136 73.4008 103.907 74.0803 103.744V102.728L72.5783 102.76L72.5724 102.771Z" fill="white"/>
<path d="M85.4407 126.834C84.6003 126.388 83.5811 126.095 82.5082 125.942L100.324 116.559L82.842 107.354C82.5261 107.708 82.097 108.045 81.5367 108.338C78.9559 109.697 74.7778 109.697 72.197 108.338C69.6162 106.979 69.6162 104.777 72.197 103.423C72.7572 103.13 73.389 102.901 74.0685 102.738L56.587 93.5339L18.6259 113.525C15.4372 115.205 15.4372 117.929 18.6259 119.609L56.587 139.6L74.4023 130.216C74.6943 130.781 75.2546 131.314 76.1009 131.76C78.6818 133.119 82.8599 133.119 85.4407 131.76C88.0215 130.401 88.0215 128.199 85.4407 126.845V126.834Z" fill="url(#paint4_linear_27_897)"/>
<path d="M85.4407 131.754C82.8598 133.113 78.6817 133.113 76.1009 131.754C75.2605 131.308 74.6943 130.776 74.4022 130.21L56.5869 139.594L18.6259 119.603C17.2788 118.891 16.504 117.994 16.2954 117.07C16.0093 118.331 16.7841 119.647 18.6259 120.62L56.5869 140.611L74.4022 131.227C74.6943 131.792 75.2545 132.325 76.1009 132.771C78.6817 134.13 82.8598 134.13 85.4407 132.771C86.9784 131.961 87.5863 130.857 87.2943 129.808C87.0976 130.52 86.4837 131.211 85.4407 131.76V131.754Z" fill="white"/>
<path d="M82.5142 125.942C82.985 126.008 83.444 126.111 83.885 126.236L100.329 117.575V116.559L82.5142 125.942Z" fill="white"/>
<path d="M145.795 150.31L135.96 145.129C137.51 145.08 139.03 144.743 140.21 144.123C141.289 143.552 141.909 142.84 142.087 142.101L142.141 142.133V141.682C142.141 141.682 142.141 141.66 142.141 141.649V134.065L133.82 137.017L135.734 138.197C133.981 138.17 132.211 138.507 130.87 139.208C129.69 139.833 129.052 140.633 128.957 141.448L110.587 131.776L99.7932 137.458L98.6726 134.043L92.772 133.592V142.003L94.5779 141.584C94.9773 141.715 95.3587 141.867 95.7044 142.052C98.2852 143.411 98.2852 145.613 95.7044 146.966C93.1236 148.326 88.9455 148.326 86.3647 146.966C85.5243 146.521 84.958 145.988 84.666 145.422L74.8017 150.615L66.8447 147.238V154.806L104.806 174.797C107.995 176.477 113.168 176.477 116.357 174.797L154.318 154.806V147.238L145.789 150.31H145.795Z" fill="url(#paint5_linear_27_897)"/>
<path d="M95.7044 134.478C95.2991 134.266 94.8462 134.098 94.3753 133.951L94.2144 133.663L92.772 133.581V134.592C93.8448 134.745 94.8581 135.044 95.7044 135.484C96.7475 136.033 97.3614 136.724 97.5581 137.436C97.8501 136.386 97.2362 135.277 95.7044 134.467V134.478Z" fill="white"/>
<path d="M135.96 137.566C137.51 137.517 139.029 137.18 140.21 136.561C142.79 135.201 142.79 132.999 140.21 131.646C137.629 130.286 133.451 130.286 130.87 131.646C129.69 132.271 129.052 133.07 128.956 133.886L110.587 124.214L92.7716 133.597C93.8445 133.75 94.8577 134.049 95.7041 134.489C98.2849 135.848 98.2849 138.05 95.7041 139.404C93.1233 140.763 88.9451 140.763 86.3643 139.404C85.5239 138.958 84.9577 138.425 84.6656 137.86L66.8503 147.244L104.811 167.235C108 168.915 113.174 168.915 116.362 167.235L154.323 147.244L135.954 137.572L135.96 137.566Z" fill="url(#paint6_linear_27_897)"/>
<path d="M142.064 134.603C141.867 135.315 141.253 136.006 140.21 136.555C139.03 137.18 137.51 137.512 135.96 137.561L137.575 138.414C138.535 138.251 139.441 137.974 140.21 137.572C141.748 136.762 142.356 135.658 142.064 134.609V134.603Z" fill="white"/>
<path d="M116.369 167.229C113.18 168.909 108.006 168.909 104.818 167.229L66.8567 147.238V148.255L104.818 168.246C108.006 169.926 113.18 169.926 116.369 168.246L154.33 148.255V147.238L116.369 167.229Z" fill="white"/>
<path d="M56.8372 125.97C64.7079 125.97 71.0883 122.608 71.0883 118.462C71.0883 114.315 64.7079 110.954 56.8372 110.954C48.9666 110.954 42.5862 114.315 42.5862 118.462C42.5862 122.608 48.9666 125.97 56.8372 125.97Z" fill="#595FEA"/>
<path d="M48.4629 24.1392C48.4629 24.1392 48.8443 31.3048 49.4404 36.1163C50.0364 40.9279 62.7497 32.4194 62.7497 32.4194V26.9391L48.4629 24.1392Z" fill="#FF98FF"/>
<path d="M55.2339 113.264C55.4246 113.699 58.7207 117.358 62.0108 118.271C63.4412 118.668 64.4068 118.723 65.0386 118.652C65.6704 118.581 66.0637 117.989 65.8492 117.44C65.283 115.983 63.6558 112.954 59.5313 111.089C53.9465 108.567 55.2339 113.264 55.2339 113.264Z" fill="#2B31C9"/>
<path d="M54.1372 114.667C54.1372 114.667 55.3769 117.32 55.7584 119.544C55.9908 120.898 55.1743 122.659 54.5067 123.822C54.0895 124.546 53.0345 124.709 52.3729 124.16C51.2941 123.268 49.9292 121.724 49.7027 119.5C49.3213 115.754 49.7027 115.102 49.7027 115.102L54.1431 114.667H54.1372Z" fill="#2B31C9"/>
<path d="M46.2039 69.4167C46.2039 69.4167 45.7748 74.1413 46.2039 79.366C46.6331 84.5907 48.1708 109.024 48.4569 114.901C48.4569 114.901 48.3139 116.678 52.0927 116.287C55.8715 115.896 55.5675 113.922 55.5675 113.922C55.5675 113.922 60.8722 113.857 61.0391 111.008C61.206 108.154 66.4689 76.9575 66.4689 65.7415L46.2099 69.4276L46.2039 69.4167Z" fill="url(#paint7_radial_27_897)"/>
<path d="M68.4298 44.9949L71.0285 48.6647L79.9629 58.5052C79.9629 58.5052 79.653 59.4186 78.5444 59.6578C77.6742 59.8427 70.1642 53.3077 66.9218 50.4371C66.0576 49.6759 65.9146 48.4635 66.5821 47.5501L68.4358 44.9949H68.4298Z" fill="#FFC2B0"/>
<path d="M63.3577 29.9242C63.3577 29.9242 67.4881 29.8263 68.9246 35.2685C70.361 40.7107 71.4875 47.523 70.2358 48.0884C66.4868 49.7901 64.1087 47.8003 64.1087 47.8003L63.3577 29.9242Z" fill="#454CEE"/>
<path d="M64.5916 30.1579C63.8882 29.8915 63.0955 29.8534 62.3624 30.0437C58.8458 30.9625 45.6259 34.5019 43.4445 36.2036C40.9292 38.1663 47.2233 49.1974 47.1279 52.8129C47.0385 56.4283 46.5915 60.6908 46.2398 64.627C45.8882 68.5578 45.4173 70.7162 48.9398 72.3852C52.4624 74.0543 58.4823 74.1359 62.9882 71.0043C67.4942 67.8727 66.6777 65.7306 66.4869 63.4581C66.3022 61.1855 64.7644 51.3504 64.8955 48.5613C64.8955 48.5613 66.481 47.4957 67.6611 45.6636C68.8353 43.8314 66.7611 40.4714 65.8968 38.2859C65.0326 36.1003 66.3856 33.5994 66.1174 31.8161C65.9803 30.8973 65.3366 30.4461 64.5856 30.1633L64.5916 30.1579Z" fill="#454CEE"/>
<path d="M54.4888 37.5899L55.9908 39.1611C56.1875 39.3677 56.2709 39.6341 56.2292 39.9059L54.9179 48.2731C54.8821 48.5069 54.9477 48.7461 55.0967 48.9364L58.3093 52.9922C58.4524 53.1716 58.7563 53.1336 58.8398 52.9215L60.8067 47.762C60.8782 47.5663 60.8782 47.3543 60.8067 47.1586L57.8444 39.4547C57.7788 39.2861 57.7669 39.1013 57.8146 38.9327L58.3391 36.9211L54.4888 37.5899Z" fill="white"/>
<path d="M60.3656 33.9201C60.6457 35.9045 58.649 37.7747 55.9013 38.0955C53.1536 38.4163 50.7099 37.0679 50.4298 35.0781C50.1496 33.0937 52.1463 31.2234 54.894 30.9027C57.6358 30.5819 60.0854 31.9302 60.3656 33.9201Z" fill="white"/>
<path d="M58.9472 34.0833C59.1439 35.5023 57.7194 36.8397 55.7584 37.0681C53.7975 37.2964 52.0452 36.3341 51.8485 34.9097C51.6518 33.4907 53.0763 32.1532 55.0372 31.9249C56.9982 31.6965 58.7505 32.6588 58.9472 34.0833Z" fill="#FFC2B0"/>
<path d="M56.9982 29.4238C56.9982 29.4238 54.6141 27.6351 54.1432 28.5376C53.6723 29.4456 53.2849 33.3383 53.2849 33.3383L58.0233 34.5017L57.3021 30.5601C57.3021 30.5601 58.2498 29.8261 56.9922 29.4292L56.9982 29.4238Z" fill="#FFC2B0"/>
<path d="M64.4067 25.156C64.1742 28.7171 60.8246 31.4301 56.9265 31.218C53.0225 31.006 50.0484 27.9505 50.2808 24.3949C50.5133 20.8392 53.8629 18.1209 57.761 18.3329C61.659 18.5449 64.6391 21.6004 64.4067 25.156Z" fill="#FFC2B0"/>
<path d="M53.8153 29.6685C53.7735 29.8697 53.7318 30.0871 53.696 30.31C54.1729 32.5554 57.8563 33.5395 57.8563 33.5395L57.3139 30.5547C57.3139 30.5547 57.761 30.2067 57.6358 29.8642C56.1815 29.4456 54.3457 29.0759 53.8212 29.6685H53.8153Z" fill="#EA9C92"/>
<path d="M64.4067 25.156C64.1742 28.7171 60.8246 31.4301 56.9265 31.218C53.0225 31.006 50.0484 27.9505 50.2808 24.3949C50.5133 20.8392 53.8629 18.1209 57.761 18.3329C61.659 18.5449 64.6391 21.6004 64.4067 25.156Z" fill="#FFC2B0"/>
<path d="M39.9041 52.1006L40.6968 69.3786L43.4683 69.6396L45.2683 54.085L39.9041 52.1006Z" fill="#FFC2B0"/>
<path d="M49.0054 50.6599C48.8564 50.0564 47.6464 49.5616 47.4557 48.7788C46.5021 44.7555 46.2756 38.8186 46.2756 38.8186L45.5007 46.9248C46.3948 49.3279 47.1577 51.5352 47.1279 52.8128C47.0742 54.9332 46.8954 57.2819 46.6928 59.6523C46.6928 59.6523 49.9173 54.346 49.0054 50.6544V50.6599Z" fill="#595FEA"/>
<path d="M43.9748 35.8501C43.9748 35.8501 41.7636 36.6221 40.506 42.8255C39.2543 49.0288 38.3185 55.243 40.5477 56.0422C42.7768 56.8414 44.6484 57.4449 45.304 55.7867C45.9596 54.1285 46.3649 46.131 46.4484 43.2604C46.5318 40.3844 46.651 36.421 43.9689 35.8555L43.9748 35.8501Z" fill="#454CEE"/>
<path d="M79.2954 57.7874C79.2954 57.7874 80.4934 58.1897 81.3636 59.0487C82.0729 59.7555 82.4663 60.3535 82.7762 60.7776C83.4676 61.7181 84.0458 63.7461 83.6286 63.9961C83.2054 64.2462 80.8034 60.5982 80.416 61.4463C80.0285 62.2944 80.416 63.0773 79.9213 63.0936C79.4266 63.11 77.6981 59.4238 76.3391 58.2821C74.9802 57.1404 79.3014 57.7819 79.3014 57.7819L79.2954 57.7874Z" fill="#FFC2B0"/>
<path d="M55.5615 113.917C55.5615 113.917 56.2172 113.906 57.0754 113.775L58.1125 75.7996L55.5615 113.922V113.917Z" fill="#595FEA"/>
<path d="M51.5563 93.3982L50.0841 91.6422L34.5933 83.4598C34.0986 83.1989 33.6933 82.4975 33.6933 81.8886L33.7052 70.3192L32.8171 69.259L33.6516 68.8186C33.8125 68.7262 34.0271 68.7262 34.2595 68.8513L51.8185 78.1264C52.3132 78.3873 52.7185 79.0941 52.7185 79.6976L52.7066 92.3C52.7066 92.6425 52.5755 92.8763 52.3788 92.9742L51.5622 93.4037L51.5563 93.3982Z" fill="#595FEA"/>
<path d="M40.8398 86.7653L39.7371 86.1836L33.6934 76.6094V70.3246L32.8113 69.2644L33.6457 68.824C33.8066 68.7316 34.0212 68.7316 34.2537 68.8566L51.8127 78.1317C52.0749 78.2731 52.3133 78.5341 52.4743 78.8385L40.8338 86.7708L40.8398 86.7653Z" fill="#595FEA"/>
<path d="M33.2105 69.732L32.8171 69.259L33.6516 68.8186C33.8125 68.7262 34.0271 68.7262 34.2595 68.8513L34.5695 69.0144L33.2105 69.732Z" fill="#595FEA"/>
<path d="M51.9795 78.2296C52.367 78.5231 52.6709 79.0723 52.7127 79.5779L50.9961 80.4804L50.1736 79.1756L51.9795 78.2241V78.2296Z" fill="#595FEA"/>
<path d="M50.9782 78.5666L33.4192 69.2915C32.9245 69.0306 32.5192 69.3078 32.5192 69.9113L32.5073 82.5137C32.5073 83.1172 32.9067 83.8185 33.4073 84.085L50.9663 93.3601C51.461 93.621 51.8663 93.3438 51.8663 92.7403L51.8782 80.1379C51.8782 79.5344 51.4789 78.833 50.9782 78.5666Z" fill="url(#paint8_radial_27_897)"/>
<path d="M51.2464 78.4254L33.6874 69.1503C33.3953 68.9981 33.1391 69.0307 32.9722 69.2101C33.1033 69.1884 33.2583 69.2101 33.4252 69.2971L50.9841 78.5722C51.4788 78.8332 51.8842 79.54 51.8842 80.1435L51.8722 92.7459C51.8722 92.996 51.8007 93.1808 51.6875 93.3059C51.9557 93.2569 52.1345 93.0068 52.1404 92.5991L52.1524 79.9967C52.1524 79.3932 51.753 78.6918 51.2524 78.4254H51.2464Z" fill="white"/>
<path d="M47.3723 87.608L46.5378 87.1676V80.6108L47.3723 81.0512V87.608Z" fill="white"/>
<path d="M45.4232 86.5752L44.5828 86.1348V79.5835L45.4232 80.0239V86.5752Z" fill="white"/>
<path d="M43.4683 85.5476L42.6279 85.1072V78.5559L43.4683 78.9963V85.5476Z" fill="white"/>
<path d="M40.7206 69.2318C40.7206 69.2318 39.9875 73.2658 40.1008 74.5544C40.208 75.8483 40.971 77.9741 41.5431 77.9306C42.1213 77.8871 41.561 72.7385 42.5743 73.2495C43.5816 73.7606 43.6888 74.6413 44.1478 74.3314C44.6067 74.0216 43.3491 69.6178 43.6829 67.7095C44.0167 65.8012 40.7206 69.2263 40.7206 69.2263V69.2318Z" fill="#FFC2B0"/>
<path d="M60.0617 25.3408C63.614 26.4934 64.3054 25.7866 64.3352 25.754C64.365 25.5583 64.3948 25.3626 64.4068 25.1614C64.4544 24.4492 64.365 23.7533 64.1684 23.1009L54.9597 21.9646C54.9597 21.9646 56.414 24.1611 60.0617 25.3463V25.3408Z" fill="#EA9C92"/>
<path d="M64.6632 18.7243C63.8287 18.0719 60.8069 14.837 55.4009 15.5981C52.0214 16.0766 49.1724 18.1806 48.5406 22.9758C48.1174 26.2107 49.4168 29.3912 51.8128 31.7453C51.9439 31.6909 52.075 31.642 52.1943 31.5659C53.5472 30.7504 53.6962 30.3046 53.6962 30.2991L53.9943 27.8526C53.9823 27.5046 53.7022 27.1947 53.3207 27.173C53.0287 27.1567 52.6711 27.0262 52.3313 26.6239C51.5565 25.6996 51.9141 24.2534 53.4698 24.1991C54.2804 24.1719 54.5962 23.7696 54.7095 23.3944C54.8108 23.0682 55.1863 22.8834 55.538 23.003C57.3082 23.5847 61.6592 24.8461 64.4665 24.1175C68.0546 23.1933 65.5095 19.3767 64.6691 18.7188L64.6632 18.7243Z" fill="#FF98FF"/>
<path d="M60.6278 28.2549L62.7914 27.7112C62.7914 27.7112 61.7603 29.1954 60.2464 29.5706C58.7384 29.9511 58.5 28.7822 58.5 28.7822L60.6219 28.2494L60.6278 28.2549Z" fill="white"/>
<path d="M44.4041 74.2118L42.5564 73.2495L43.2478 74.2771L44.1836 74.5924L44.4041 74.2118Z" fill="#595FEA"/>
<path d="M53.2133 26.7925C53.2133 27.1622 52.8855 27.4612 52.4802 27.4612C52.0749 27.4612 51.7471 27.1622 51.7471 26.7925C51.7471 26.4228 52.0749 26.1238 52.4802 26.1238C52.8855 26.1238 53.2133 26.4228 53.2133 26.7925Z" fill="white"/>
<path opacity="0.5" d="M164.158 123.556C171.779 123.556 177.956 120.301 177.956 116.287C177.956 112.272 171.779 109.018 164.158 109.018C156.538 109.018 150.36 112.272 150.36 116.287C150.36 120.301 156.538 123.556 164.158 123.556Z" fill="#454CEE"/>
<path d="M165.166 111.513C164.975 111.948 161.667 115.624 158.359 116.542C156.922 116.939 155.957 116.994 155.319 116.923C154.681 116.852 154.288 116.254 154.503 115.705C155.069 114.243 156.702 111.198 160.85 109.328C166.459 106.794 165.166 111.513 165.166 111.513Z" fill="#2B31C9"/>
<path d="M166.268 112.927C166.268 112.927 165.022 115.596 164.641 117.826C164.409 119.185 165.225 120.952 165.899 122.126C166.316 122.855 167.377 123.018 168.044 122.463C169.123 121.566 170.5 120.017 170.726 117.782C171.108 114.02 170.726 113.367 170.726 113.367L166.268 112.932V112.927Z" fill="#2B31C9"/>
<path d="M174.237 67.481C174.237 67.481 174.666 72.2219 174.237 77.4683C173.808 82.7148 172.264 107.251 171.972 113.155C171.972 113.155 172.115 114.944 168.324 114.547C164.534 114.156 164.838 112.171 164.838 112.171C164.838 112.171 159.509 112.106 159.342 109.241C159.175 106.376 153.889 75.0435 153.889 63.7786L174.237 67.481Z" fill="url(#paint9_radial_27_897)"/>
<path d="M164.838 112.171C164.838 112.171 164.176 112.16 163.318 112.03L162.275 73.8909L164.838 112.177V112.171Z" fill="#595FEA"/>
<path d="M168.605 32.6803C177.211 35.9369 177.039 40.5745 177.039 40.5745C177.039 40.5745 175.352 57.5807 175.93 68.9435C176.168 73.6898 148.268 74.0541 152.434 61.3864C157.34 46.4516 155.504 34.3548 157.799 32.5335C160.093 30.7122 166.387 31.843 168.611 32.6857L168.605 32.6803Z" fill="#454CEE"/>
<path d="M171.37 36.7906C170.923 38.3836 168.628 39.2263 166.256 38.6663C163.884 38.1063 162.322 36.3665 162.775 34.7736C163.228 33.1806 165.517 32.3379 167.889 32.8979C170.262 33.4579 171.823 35.1976 171.37 36.7906Z" fill="#FFC2B0"/>
<path d="M167.729 39.335C167.204 39.335 166.662 39.2697 166.125 39.1447C164.868 38.8511 163.771 38.2368 163.044 37.4212C162.275 36.5622 161.995 35.5782 162.257 34.6485C162.782 32.7945 165.368 31.7942 168.027 32.4194C169.284 32.713 170.381 33.3274 171.108 34.1429C171.877 35.0019 172.157 35.9859 171.895 36.9156C171.633 37.8399 170.87 38.5793 169.737 38.9925C169.123 39.2208 168.438 39.3295 167.729 39.3295V39.335ZM166.411 33.2186C164.874 33.2186 163.592 33.8602 163.3 34.8986C163.127 35.5129 163.33 36.1871 163.878 36.8014C164.462 37.4539 165.356 37.9486 166.393 38.1933C167.431 38.4379 168.474 38.3999 169.332 38.0845C170.137 37.7909 170.673 37.2908 170.846 36.6764C171.019 36.062 170.816 35.3879 170.268 34.7735C169.684 34.1211 168.789 33.6264 167.752 33.3817C167.293 33.273 166.84 33.2241 166.411 33.2241V33.2186Z" fill="white"/>
<path d="M165.154 32.3215C165.154 32.3215 165.225 32.6369 165.076 35.1215C165.029 35.9044 168.033 36.6329 168.807 35.9261C169.582 35.2193 169.272 34.4799 169.457 31.8214C169.642 29.1628 165.148 32.3215 165.148 32.3215H165.154Z" fill="#FFC2B0"/>
<path d="M169.463 31.8267C169.463 31.8267 168.724 34.2949 165.082 35.2409L165.136 33.001L169.463 31.8321V31.8267Z" fill="#EA9C92"/>
<path d="M171.77 25.5582C172.687 28.7877 170.554 32.0824 167.013 32.9196C163.473 33.7569 159.861 31.8105 158.943 28.5811C158.025 25.3516 160.159 22.057 163.699 21.2197C167.24 20.3824 170.852 22.3288 171.77 25.5582Z" fill="#FFC2B0"/>
<path d="M166.876 27.2926C166.876 27.2926 163.228 28.717 160.707 28.7333C158.18 28.7496 158.74 26.8196 158.74 26.8196L166.238 25.8301L166.882 27.2871L166.876 27.2926Z" fill="#EA9C92"/>
<path d="M159.95 27.6676C159.95 27.6676 163.127 26.4388 165.911 26.9499C166.566 27.0695 167.174 27.3903 167.597 27.8633C167.734 28.0155 167.907 28.1569 168.104 28.2004C168.599 28.3037 169.409 26.4334 170.369 26.3899C171.329 26.3464 171.972 26.9662 171.185 28.1188C170.399 29.2714 170.667 30.5545 171.025 30.7393C171.382 30.9242 175.233 28.2384 171.841 22.1112C168.45 15.984 159.837 19.2841 158.502 20.5236C158.502 20.5236 157.089 21.6436 155.945 20.6487C155.945 20.6487 154.658 29.4399 159.956 27.6676H159.95Z" fill="#FF98FF"/>
<path d="M153.579 31.2831L148.954 29.4617C148.423 29.2551 148.012 28.8528 147.827 28.3526L143.256 16.2776L141.14 16.6147L144.835 31.6419C145.008 32.3432 145.497 32.9467 146.188 33.2947L153.889 37.2417L153.585 31.2776L153.579 31.2831Z" fill="#FFC2B0"/>
<path d="M201.72 33.2512L202.781 32.8054C203.687 32.4248 204.509 31.9083 205.218 31.2722L205.958 30.6089C206.375 30.2338 206.5 29.6629 206.273 29.1736C206.095 28.7876 205.6 28.6245 205.189 28.8094L202.971 29.8315C202.971 29.8315 203.317 28.9344 203.15 28.7006C202.983 28.4669 201.267 30.1957 200.474 31.419C199.681 32.6423 201.72 33.2512 201.72 33.2512Z" fill="#FFC2B0"/>
<path d="M183.255 38.079L187.213 37.6767C188.148 37.5789 189.054 37.3125 189.871 36.8884L200.474 31.4136L201.72 33.2458L190.878 40.879C190.544 41.1128 190.175 41.3085 189.787 41.4607L183.321 43.9834L183.249 38.0736L183.255 38.079Z" fill="#FFC2B0"/>
<path d="M141.14 16.6147L140.734 16.1907C140.269 15.7013 139.965 15.1033 139.864 14.4618L139.584 12.7002C139.495 12.1511 139.733 11.5966 140.222 11.2649C140.24 11.2541 140.257 11.2432 140.275 11.2323C140.788 10.9116 141.503 11.1453 141.742 11.6673L142.695 13.7659C142.695 13.7659 142.397 12.6785 142.779 12.5589C143.059 12.4719 143.595 13.8202 143.279 14.5705C142.963 15.3208 143.261 16.2831 143.261 16.2831L141.146 16.6202L141.14 16.6147Z" fill="#FFC2B0"/>
<path d="M162.728 31.2288L161.017 30.7993C161.017 30.7993 161.834 31.9682 163.026 32.2672C164.218 32.5663 164.403 31.6475 164.403 31.6475L162.728 31.2288Z" fill="white"/>
<path d="M160.165 31.6583C160.165 31.6583 152.434 30.2665 150.074 29.6087C147.714 28.9563 146.73 34.866 146.909 36.3666C147.088 37.8671 155.122 39.5362 156.082 42.1078C157.036 44.6794 160.165 31.6529 160.165 31.6529V31.6583Z" fill="#454CEE"/>
<path d="M171.978 34.2571C171.978 34.2571 177.628 36.4698 187.081 37.5463C187.463 37.5898 187.797 37.8236 187.922 38.1552C188.285 39.1121 188.905 41.1944 188.422 43.3365C188.22 44.2227 187.344 44.8425 186.354 44.837C183.398 44.8207 177.026 45.0762 175.995 47.5989C174.642 50.9045 171.978 34.2571 171.978 34.2571Z" fill="#454CEE"/>
<path d="M168.658 38.9054L167.109 40.4385C166.906 40.6397 166.81 40.9061 166.846 41.1779L167.913 49.5777C167.943 49.8115 167.871 50.0507 167.716 50.241L164.385 54.2153C164.236 54.3893 163.932 54.3458 163.86 54.1337L162.048 48.9253C161.977 48.7296 161.989 48.5176 162.066 48.3218L165.255 40.6941C165.326 40.5255 165.338 40.3461 165.303 40.1721L164.838 38.1497L168.67 38.9108L168.658 38.9054Z" fill="white"/>
<path d="M185.579 43.2711C183.887 43.4505 179.738 43.7767 176.55 44.0214C174.72 44.1627 173.504 45.7666 173.969 47.3867C175.667 53.3454 173.42 62.925 173.826 66.1653C174.314 70.0471 171.734 71.5423 171.722 71.5531C174.267 71.053 175.989 70.1341 175.93 68.9381C175.578 61.9627 176.079 52.8615 176.514 46.8702C178.373 45.0217 183.761 44.8151 186.396 44.8369C187.397 44.8423 188.244 44.1899 188.44 43.2928C188.685 42.1783 188.631 41.0801 188.47 40.1504C188.47 40.2102 188.47 42.9666 185.585 43.2711H185.579Z" fill="#595FEA"/>
<path d="M112.87 156.296C121.488 156.296 128.474 152.618 128.474 148.081C128.474 143.544 121.488 139.866 112.87 139.866C104.252 139.866 97.2659 143.544 97.2659 148.081C97.2659 152.618 104.252 156.296 112.87 156.296Z" fill="#C968C9"/>
<path d="M100.401 142.405C98.9825 142.96 98.0884 144.4 98.2076 145.95C98.2613 146.678 98.3626 147.363 98.5295 147.684C98.9825 148.549 100.461 149.734 102.821 148.88C105.181 148.032 110.42 143.536 110.617 140.6C110.981 135.136 104.138 140.953 100.401 142.411V142.405Z" fill="#2B31C9"/>
<path d="M114.265 151.435C114.265 151.435 113.698 154.583 113.973 155.16C114.247 155.736 115.892 156.97 118.318 156.704C120.744 156.437 127.723 154.241 129.279 150.044C131.687 143.536 115.802 150.533 115.802 150.533L114.265 151.435Z" fill="#2B31C9"/>
<path d="M121.083 101.097L121.626 150.25C121.572 151.958 120.344 153.404 118.693 153.659C118.49 153.692 118.27 153.714 118.037 153.735C116.363 153.871 115.391 153.213 114.837 152.528C114.384 151.974 114.151 151.267 114.116 150.544L113.43 129.558L109.997 110.796L105.247 144.004C105.169 144.901 104.698 145.732 103.941 146.189C103.417 146.504 102.708 146.749 101.778 146.727C100.419 146.689 99.4712 146.026 98.899 145.433C98.44 144.966 98.2016 144.319 98.2136 143.656L100.097 123.675L100.8 98.1934L121.101 101.102L121.083 101.097Z" fill="url(#paint10_radial_27_897)"/>
<path d="M114.104 57.0969L113.251 61.5768C113.251 61.5768 113.222 63.1045 115.087 63.5286C116.959 63.9527 117.537 62.849 117.537 62.849L118.383 57.8037L114.104 57.0969Z" fill="#FFC2B0"/>
<path d="M124.415 54.6448C123.086 58.4832 118.979 60.7068 115.236 59.6195C111.493 58.5321 109.538 54.5361 110.867 50.6978C112.196 46.8594 116.303 44.6358 120.046 45.7231C123.789 46.8105 125.744 50.8065 124.415 54.6448Z" fill="#FFC2B0"/>
<path d="M114.33 61.6583C114.199 61.6093 106.391 57.0261 103.506 61.8214C98.8036 69.6449 102.243 78.6155 100.562 98.0954C100.282 101.358 105.372 103.342 107.774 104.592C109.914 105.707 112.31 106.392 114.777 106.408C117.215 106.425 121.894 104.446 121.727 101.537C120.946 88.157 122.245 76.8758 123.443 65.937C123.443 65.937 121.947 64.4691 114.33 61.6528V61.6583Z" fill="#454CEE"/>
<path d="M109.991 110.796L105.241 144.003C105.163 144.9 104.693 145.732 103.936 146.189C103.81 146.265 103.673 146.336 103.53 146.396C104.514 145.721 107.399 117.847 107.929 114.748C108.459 111.644 109.991 110.796 109.991 110.796Z" fill="#595FEA"/>
<path d="M139.643 65.7141L146.182 53.8783L144.132 52.6985L137.355 61.7126L139.643 65.7141Z" fill="#FFC2B0"/>
<path d="M96.5327 53.1442L99.7095 39.9492L102.243 39.9764L101.289 50.9206L96.5327 53.1442Z" fill="#FFC2B0"/>
<path d="M123.444 65.9425C123.444 65.9425 130.757 68.5739 137.033 61.343C137.587 60.7069 138.726 60.7775 139.048 61.4626C139.614 62.6478 140.323 64.4365 139.465 66.1164C135.668 73.5485 122.716 73.2875 119.593 77.4575C116.47 81.6221 123.438 65.9425 123.438 65.9425H123.444Z" fill="#454CEE"/>
<path d="M109.377 60.0165C109.377 60.0165 103.339 60.4406 102.469 55.6726C102.022 53.2206 101.885 51.7526 101.861 50.91C101.843 50.3391 101.301 49.9041 100.675 49.9748C99.2269 50.1379 96.9918 50.5294 96.6878 51.4156C96.2348 52.7367 95.3825 59.2064 101.343 69.1394C105.247 75.6472 109.371 60.0165 109.371 60.0165H109.377Z" fill="#454CEE"/>
<path d="M99.6978 39.9819L99.7574 38.476C99.7752 37.9432 99.9481 37.4267 100.252 36.9754L101.927 34.4691L102.362 33.9689C102.767 33.5068 103.483 33.3926 104.031 33.7079L104.418 33.9308C104.907 34.2135 105.193 34.7137 105.151 35.2411L104.287 37.3832L105.378 37.1875C105.592 37.1494 105.795 37.2799 105.837 37.4702C105.867 37.6333 105.771 37.7964 105.598 37.8616L103.81 38.5195L102.189 40.6126L99.6978 39.9765V39.9819Z" fill="#FFC2B0"/>
<path d="M146.23 53.9544L146.993 52.6224C147.261 52.1494 147.398 51.6274 147.38 51.0946L147.285 48.1642L147.177 47.5336C147.076 46.9518 146.516 46.5278 145.866 46.5549L145.413 46.5713C144.835 46.593 144.316 46.9029 144.06 47.3813L143.655 49.6322L142.808 48.9689C142.642 48.8384 142.397 48.8601 142.26 49.0124C142.141 49.1428 142.141 49.3277 142.26 49.4582L143.458 50.8337L143.768 53.7043L146.242 53.9598L146.23 53.9544Z" fill="#FFC2B0"/>
<path d="M118.675 75.968C118.037 78.6103 121.87 98.5469 117.614 105.838C119.742 105.049 121.846 103.511 121.733 101.543C121.173 91.9738 121.679 83.4816 122.448 75.4189C126.09 73.7389 131.776 72.7331 135.799 70.0474C131.484 71.499 119.247 73.6084 118.675 75.968Z" fill="#595FEA"/>
<path d="M111.523 60.3917L112.608 59.375C112.608 59.375 114.39 61.0387 115.826 61.3268C115.826 61.3268 117.549 61.7726 118.395 61.8107L119.093 63.5667C119.093 63.5667 113.412 63.197 111.529 60.3917H111.523Z" fill="white"/>
<path d="M119.325 54.7645C119.623 54.7645 119.903 54.634 120.07 54.4111C120.368 54.0197 120.177 52.2201 121.095 51.9211C122.526 51.459 125.911 53.0846 126.269 48.3872C126.459 45.9461 125.154 45.2991 125.16 43.9617C125.16 43.9617 125.273 44.6304 118.383 44.2172C111.493 43.7986 109.258 49.3767 109.091 52.0353C108.93 54.6938 110.337 59.0596 115.045 59.663C115.826 59.7609 119.104 57.3579 119.021 57.0425C118.937 56.7272 117.698 56.7435 117.876 55.8247C118.025 55.0581 118.538 54.7754 119.319 54.7645H119.325Z" fill="#2B31C9"/>
<path d="M20.5094 84.5307L3.11728 75.3698C2.77158 75.1904 2.46165 75.1795 2.21728 75.3045V75.2937L0.530518 76.1853C0.530518 76.1853 1.27555 76.4354 1.71661 76.5822V88.1353C1.71661 89.0759 2.34244 90.1686 3.11728 90.5764L19.7405 99.3296V100.683L21.4452 99.7863H21.4332C21.7193 99.6232 21.9041 99.2698 21.9041 98.7642V86.9664C21.9041 86.0258 21.2783 84.933 20.5034 84.5253L20.5094 84.5307Z" fill="#454CEE"/>
<path d="M18.7928 100.64L1.40067 91.4788C0.62583 91.071 0 89.9782 0 89.0377V77.2399C0 76.2994 0.62583 75.8698 1.40067 76.2722L18.7928 85.4331C19.5676 85.8409 20.1934 86.9337 20.1934 87.8742V99.672C20.1934 100.613 19.5676 101.042 18.7928 100.64Z" fill="url(#paint11_radial_27_897)"/>
<path d="M18.7928 85.4333L1.40069 76.2778C0.959629 76.044 0.57221 76.093 0.315918 76.343C0.500687 76.3267 0.709297 76.3702 0.935787 76.4844L18.3279 85.6453C19.1027 86.0531 19.7286 87.1459 19.7286 88.0865V99.8842C19.7286 100.292 19.6094 100.591 19.4127 100.781C19.8716 100.749 20.1935 100.341 20.1935 99.6722V87.8744C20.1935 86.9339 19.5676 85.8411 18.7928 85.4333Z" fill="white"/>
<path d="M7.24777 87.4122C7.24777 88.0972 6.72326 88.369 6.07359 88.032C5.42392 87.6949 4.89941 86.863 4.89941 86.178C4.89941 85.493 5.42392 85.2211 6.07359 85.5582C6.72326 85.8953 7.24777 86.7271 7.24777 87.4122Z" fill="white"/>
<path d="M10.8061 89.2825C10.8061 89.9676 10.2816 90.2394 9.63194 89.9023C8.98227 89.5652 8.45776 88.7334 8.45776 88.0484C8.45776 87.3633 8.98227 87.0915 9.63194 87.4286C10.2816 87.7657 10.8061 88.5975 10.8061 89.2825Z" fill="white"/>
<path d="M14.3584 91.158C14.3584 91.843 13.8339 92.1149 13.1842 91.7778C12.5345 91.4407 12.01 90.6089 12.01 89.9239C12.01 89.2388 12.5345 88.967 13.1842 89.3041C13.8339 89.6466 14.3584 90.473 14.3584 91.158Z" fill="white"/>
<path d="M209.629 84.3241L192.624 75.3697C192.291 75.1903 191.981 75.1849 191.748 75.3045V75.2936L190.097 76.1635C190.097 76.1635 190.83 76.4081 191.253 76.5495V87.8471C191.253 88.7659 191.867 89.8315 192.624 90.2338L208.878 98.7967V100.123L210.547 99.248H210.535C210.815 99.0903 211 98.7424 211 98.2476V86.7108C211 85.792 210.386 84.7264 209.629 84.3241Z" fill="#C968C9"/>
<path d="M207.948 100.069L190.944 91.1146C190.187 90.7177 189.573 89.6467 189.573 88.7279V77.1911C189.573 76.2722 190.187 75.8482 190.944 76.2451L207.948 85.1994C208.705 85.5963 209.319 86.6673 209.319 87.5862V99.123C209.319 100.042 208.705 100.466 207.948 100.069Z" fill="url(#paint12_linear_27_897)"/>
<path d="M208.371 84.9331L191.367 75.9787C190.89 75.7286 190.467 75.8048 190.222 76.131C190.431 76.082 190.681 76.1146 190.95 76.256L207.954 85.2103C208.711 85.6072 209.325 86.6783 209.325 87.5971V99.1339C209.325 99.471 209.242 99.7374 209.099 99.9277C209.486 99.8352 209.742 99.4547 209.742 98.8621V87.3252C209.742 86.4064 209.128 85.3408 208.371 84.9385V84.9331Z" fill="white"/>
<path d="M196.665 87.1403C196.665 87.809 196.153 88.0809 195.515 87.7438C194.883 87.4121 194.365 86.5966 194.365 85.9333C194.365 85.2701 194.877 84.9928 195.515 85.3299C196.147 85.6615 196.665 86.477 196.665 87.1403Z" fill="white"/>
<path d="M200.14 88.9726C200.14 89.6413 199.628 89.9131 198.99 89.5761C198.358 89.2444 197.84 88.4289 197.84 87.7656C197.84 87.1023 198.352 86.8251 198.99 87.1621C199.622 87.4938 200.14 88.3093 200.14 88.9726Z" fill="white"/>
<path d="M203.615 90.7992C203.615 91.468 203.103 91.7398 202.465 91.4027C201.833 91.0711 201.314 90.2556 201.314 89.5923C201.314 88.929 201.827 88.6517 202.465 88.9888C203.097 89.3204 203.615 90.136 203.615 90.7992Z" fill="white"/>
<defs>
<linearGradient id="paint0_linear_27_897" x1="66.8565" y1="94.4963" x2="154.324" y2="94.4963" gradientUnits="userSpaceOnUse">
<stop stop-color="#FF2C9C"/>
<stop offset="0.31" stop-color="#FB289A"/>
<stop offset="0.6" stop-color="#F01D96"/>
<stop offset="0.88" stop-color="#DD0A90"/>
<stop offset="1" stop-color="#D3008D"/>
</linearGradient>
<radialGradient id="paint1_radial_27_897" cx="0" cy="0" r="1" gradientUnits="userSpaceOnUse" gradientTransform="translate(111.982 109.583) scale(50.7041 46.2505)">
<stop stop-color="#FF98FF"/>
<stop offset="0.06" stop-color="#E973E9"/>
<stop offset="0.39" stop-color="#FF98FF"/>
<stop offset="0.71" stop-color="#FF98FF"/>
<stop offset="1" stop-color="#D545D5"/>
</radialGradient>
<linearGradient id="paint2_linear_27_897" x1="120.678" y1="124.127" x2="204.766" y2="124.127" gradientUnits="userSpaceOnUse">
<stop stop-color="#86B8E0"/>
<stop offset="0.12" stop-color="#98C4E7"/>
<stop offset="0.33" stop-color="#B2D5F1"/>
<stop offset="0.54" stop-color="#C5E2F9"/>
<stop offset="0.76" stop-color="#D0E9FD"/>
<stop offset="1" stop-color="#D4ECFF"/>
</linearGradient>
<linearGradient id="paint3_linear_27_897" x1="-0.000211173" y1="116.559" x2="204.765" y2="116.559" gradientUnits="userSpaceOnUse">
<stop stop-color="#86B8E0"/>
<stop offset="0.12" stop-color="#98C4E7"/>
<stop offset="0.33" stop-color="#B2D5F1"/>
<stop offset="0.54" stop-color="#C5E2F9"/>
<stop offset="0.76" stop-color="#D0E9FD"/>
<stop offset="1" stop-color="#D4ECFF"/>
</linearGradient>
<linearGradient id="paint4_linear_27_897" x1="16.2418" y1="116.559" x2="100.33" y2="116.559" gradientUnits="userSpaceOnUse">
<stop stop-color="#699DD1"/>
<stop offset="0.27" stop-color="#6296CB"/>
<stop offset="0.64" stop-color="#5084BD"/>
<stop offset="1" stop-color="#396CAA"/>
</linearGradient>
<linearGradient id="paint5_linear_27_897" x1="66.8566" y1="153.915" x2="154.324" y2="153.915" gradientUnits="userSpaceOnUse">
<stop stop-color="#FF2C9C"/>
<stop offset="0.31" stop-color="#FB289A"/>
<stop offset="0.6" stop-color="#F01D96"/>
<stop offset="0.88" stop-color="#DD0A90"/>
<stop offset="1" stop-color="#D3008D"/>
</linearGradient>
<linearGradient id="paint6_linear_27_897" x1="66.8563" y1="146.347" x2="154.323" y2="146.347" gradientUnits="userSpaceOnUse">
<stop stop-color="#FF2C9C"/>
<stop offset="0.31" stop-color="#FB289A"/>
<stop offset="0.6" stop-color="#F01D96"/>
<stop offset="0.88" stop-color="#DD0A90"/>
<stop offset="1" stop-color="#D3008D"/>
</linearGradient>
<radialGradient id="paint7_radial_27_897" cx="0" cy="0" r="1" gradientUnits="userSpaceOnUse" gradientTransform="translate(56.8073 115.037) scale(44.0823 40.2103)">
<stop stop-color="#86B8E0"/>
<stop offset="0.17" stop-color="#9AC5E8"/>
<stop offset="0.47" stop-color="#B8DAF4"/>
<stop offset="0.72" stop-color="#CBE6FB"/>
<stop offset="0.9" stop-color="#D2EBFE"/>
<stop offset="1" stop-color="#D4ECFF"/>
</radialGradient>
<radialGradient id="paint8_radial_27_897" cx="0" cy="0" r="1" gradientUnits="userSpaceOnUse" gradientTransform="translate(49.8517 93.7406) scale(28.1027 25.6343)">
<stop stop-color="#86B8E0"/>
<stop offset="0.17" stop-color="#9AC5E8"/>
<stop offset="0.47" stop-color="#B8DAF4"/>
<stop offset="0.72" stop-color="#CBE6FB"/>
<stop offset="0.9" stop-color="#D2EBFE"/>
<stop offset="1" stop-color="#D4ECFF"/>
</radialGradient>
<radialGradient id="paint9_radial_27_897" cx="0" cy="0" r="1" gradientUnits="userSpaceOnUse" gradientTransform="translate(164.158 114.955) scale(54.4948 49.7083)">
<stop stop-color="#86B8E0"/>
<stop offset="0.17" stop-color="#9AC5E8"/>
<stop offset="0.47" stop-color="#B8DAF4"/>
<stop offset="0.72" stop-color="#CBE6FB"/>
<stop offset="0.9" stop-color="#D2EBFE"/>
<stop offset="1" stop-color="#D4ECFF"/>
</radialGradient>
<radialGradient id="paint10_radial_27_897" cx="0" cy="0" r="1" gradientUnits="userSpaceOnUse" gradientTransform="translate(108.209 151.115) scale(64.687 59.0052)">
<stop stop-color="#86B8E0"/>
<stop offset="0.17" stop-color="#9AC5E8"/>
<stop offset="0.47" stop-color="#B8DAF4"/>
<stop offset="0.72" stop-color="#CBE6FB"/>
<stop offset="0.9" stop-color="#D2EBFE"/>
<stop offset="1" stop-color="#D4ECFF"/>
</radialGradient>
<radialGradient id="paint11_radial_27_897" cx="0" cy="0" r="1" gradientUnits="userSpaceOnUse" gradientTransform="translate(18.0358 103.663) scale(36.2206 33.0392)">
<stop stop-color="#86B8E0"/>
<stop offset="0.27" stop-color="#A6CDEC"/>
<stop offset="0.55" stop-color="#BFDEF6"/>
<stop offset="0.8" stop-color="#CEE8FC"/>
<stop offset="1" stop-color="#D4ECFF"/>
</radialGradient>
<linearGradient id="paint12_linear_27_897" x1="189.579" y1="88.1625" x2="209.319" y2="88.1625" gradientUnits="userSpaceOnUse">
<stop stop-color="#FF2C9C"/>
<stop offset="0.31" stop-color="#FB289A"/>
<stop offset="0.6" stop-color="#F01D96"/>
<stop offset="0.88" stop-color="#DD0A90"/>
<stop offset="1" stop-color="#D3008D"/>
</linearGradient>
</defs>
</svg>
