<svg width="183" height="200" viewBox="0 0 183 200" fill="none" xmlns="http://www.w3.org/2000/svg">
<g style="mix-blend-mode:multiply">
<path d="M168.869 143.221C176.363 147.547 176.402 154.564 168.957 158.894L105.278 195.899C97.8328 200.225 85.7217 200.225 78.2283 195.899L14.1352 158.894C6.6418 154.569 6.59801 147.552 14.0428 143.226L77.7222 106.221C85.167 101.896 97.283 101.896 104.776 106.221L168.869 143.226V143.221Z" fill="#D7E4F9"/>
</g>
<path d="M176.703 135.154L106.655 175.862C98.4653 180.62 85.1426 180.62 76.8999 175.862L6.39848 135.159C2.2479 132.765 0.175049 129.617 0.184781 126.478L0.165317 130.857C0.155586 133.996 2.22844 137.144 6.37902 139.538L76.8804 180.241C85.1232 185 98.4459 185.005 106.635 180.241L176.684 139.533C180.752 137.168 182.791 134.074 182.8 130.974L182.82 126.595C182.81 129.694 180.776 132.789 176.703 135.154Z" fill="#454CEE"/>
<path d="M176.606 117.919C184.849 122.678 184.893 130.4 176.703 135.159L106.655 175.866C98.4654 180.625 85.1427 180.625 76.8999 175.866L6.39852 135.159C-1.84424 130.4 -1.8929 122.683 6.29634 117.924L76.3452 77.2161C84.5344 72.4573 97.862 72.4573 106.105 77.2161L176.606 117.919Z" fill="white" stroke="#454CEE" stroke-width="0.75" stroke-miterlimit="10"/>
<path d="M107.613 30.4455L110.421 28.8154L110.051 31.0537L107.248 32.6838L107.613 30.4455Z" fill="#4EA7EA" stroke="#454CEE" stroke-width="0.75" stroke-linecap="round" stroke-linejoin="round"/>
<path d="M93.3757 8.7243L96.1833 7.09424L98.3048 7.86791L95.5021 9.49797L93.3757 8.7243Z" fill="#55C2F9" stroke="#454CEE" stroke-width="0.75" stroke-linecap="round" stroke-linejoin="round"/>
<path d="M100.786 10.7048L103.589 9.07471C102.514 9.69754 101.852 11.0259 101.842 12.909C101.833 16.6995 104.499 21.3221 107.803 23.2295L105 24.8595C101.696 22.9521 99.0298 18.3296 99.0396 14.5391C99.0444 12.6511 99.7111 11.3276 100.786 10.7048Z" fill="#4EA7EA" stroke="#454CEE" stroke-width="0.75" stroke-linecap="round" stroke-linejoin="round"/>
<path d="M112.061 23.648L109.258 25.278C108.173 25.9106 106.664 25.823 105.005 24.8644L107.808 23.2344C109.467 24.1929 110.976 24.2805 112.061 23.648Z" fill="#4EA7EA" stroke="#454CEE" stroke-width="0.75" stroke-linecap="round" stroke-linejoin="round"/>
<path d="M116.284 31.0586L113.481 32.6887C113.987 32.3967 114.445 31.9393 114.839 31.2922L117.642 29.6621C117.243 30.3093 116.785 30.7667 116.284 31.0586Z" fill="#4EA7EA" stroke="#454CEE" stroke-width="0.75" stroke-linecap="round" stroke-linejoin="round"/>
<path d="M96.5627 3.28439L99.3655 1.65433C99.9153 1.33318 100.524 1.20667 101.18 1.24073L98.3777 2.87079C97.7208 2.83673 97.1126 2.96324 96.5627 3.28439Z" fill="#55C2F9" stroke="#454CEE" stroke-width="0.75" stroke-linecap="round" stroke-linejoin="round"/>
<path d="M113.593 28.5527L116.401 26.9226L117.642 29.667L114.839 31.297L113.593 28.5527Z" fill="#55C2F9" stroke="#454CEE" stroke-width="0.75" stroke-linecap="round" stroke-linejoin="round"/>
<path d="M98.3777 2.87567L101.18 1.24561L102.956 3.67367L100.154 5.30373L98.3777 2.87567Z" fill="#4EA7EA" stroke="#454CEE" stroke-width="0.75" stroke-linecap="round" stroke-linejoin="round"/>
<path d="M114.542 26.4799L117.345 24.8499C117.121 25.6479 116.805 26.3388 116.396 26.9178L113.593 28.5479C113.997 27.9689 114.318 27.273 114.542 26.4799Z" fill="#55C2F9" stroke="#454CEE" stroke-width="0.75" stroke-linecap="round" stroke-linejoin="round"/>
<path d="M100.154 5.30377L102.957 3.67371C103.662 3.61532 104.426 3.6883 105.229 3.89754L102.426 5.5276C101.623 5.31837 100.864 5.24538 100.154 5.30377Z" fill="#55C2F9" stroke="#454CEE" stroke-width="0.75" stroke-linecap="round" stroke-linejoin="round"/>
<path d="M113.613 17.3127L116.416 15.6826C116.819 16.7288 117.136 17.7895 117.355 18.8406L114.552 20.4706C114.333 19.4245 114.017 18.3637 113.613 17.3127Z" fill="#55C2F9" stroke="#454CEE" stroke-width="0.75" stroke-linecap="round" stroke-linejoin="round"/>
<path d="M107.657 8.53949L110.46 6.90942C111.263 7.61984 112.022 8.43244 112.732 9.29856L109.929 10.9286C109.224 10.0576 108.46 9.2499 107.657 8.53949Z" fill="#55C2F9" stroke="#454CEE" stroke-width="0.75" stroke-linecap="round" stroke-linejoin="round"/>
<path d="M116.678 22.1152L119.481 20.4851C120.011 22.7575 119.948 24.407 119.466 25.6235L116.664 27.2535C117.145 26.037 117.209 24.3875 116.678 22.1152Z" fill="#55C2F9" stroke="#454CEE" stroke-width="0.75" stroke-linecap="round" stroke-linejoin="round"/>
<path d="M114.552 20.4658L117.36 18.8357L119.486 20.4852L116.678 22.1153L114.552 20.4658Z" fill="#4EA7EA" stroke="#454CEE" stroke-width="0.75" stroke-linecap="round" stroke-linejoin="round"/>
<path d="M102.796 3.29412L105.599 1.66406C106.431 1.8441 107.2 2.15065 107.925 2.56911C108.693 3.0119 109.404 3.58121 110.07 4.24783L107.268 5.87789C106.601 5.21127 105.891 4.64197 105.122 4.19917C104.397 3.78071 103.628 3.47416 102.796 3.29412Z" fill="#55C2F9" stroke="#454CEE" stroke-width="0.75" stroke-linecap="round" stroke-linejoin="round"/>
<path d="M107.268 5.87786L110.075 4.2478L110.46 6.90943L107.657 8.53949L107.268 5.87786Z" fill="#4EA7EA" stroke="#454CEE" stroke-width="0.75" stroke-linecap="round" stroke-linejoin="round"/>
<path d="M114.844 15.9745L117.647 14.3445L116.42 15.6826L113.613 17.3127L114.844 15.9745Z" fill="#4EA7EA" stroke="#454CEE" stroke-width="0.75" stroke-linecap="round" stroke-linejoin="round"/>
<path d="M109.925 10.9335L112.732 9.30347L114.494 8.88501L111.691 10.5151L109.925 10.9335Z" fill="#4EA7EA" stroke="#454CEE" stroke-width="0.75" stroke-linecap="round" stroke-linejoin="round"/>
<path d="M116.664 27.2537L114.542 26.48C114.318 27.278 114.002 27.969 113.593 28.548L114.834 31.2923C114.002 32.6402 112.922 33.1608 111.662 33.1024L109.886 30.6695C109.18 30.7279 108.416 30.6549 107.613 30.4457L107.243 32.684C106.411 32.5039 105.638 32.1974 104.913 31.7789C104.149 31.3361 103.433 30.7717 102.772 30.1051L102.382 27.4386C101.58 26.7233 100.82 25.9156 100.11 25.0446L98.3437 25.463C96.7575 23.5946 95.7648 21.7796 95.1955 20.0036L96.4217 18.6654C96.0227 17.6193 95.7016 16.5634 95.4875 15.5124L93.3611 13.8677C92.8307 11.5954 92.894 9.94097 93.3757 8.72937L95.4972 9.50304C95.721 8.70504 96.0373 8.01409 96.446 7.43505L95.2052 4.69071C96.0373 3.34286 97.1175 2.82222 98.3778 2.88547L100.154 5.31354C100.859 5.25514 101.623 5.32813 102.426 5.53736L102.796 3.30394C103.628 3.48397 104.397 3.79052 105.122 4.20899C105.891 4.65178 106.601 5.22108 107.268 5.88771L107.657 8.5542C108.46 9.26461 109.219 10.0772 109.929 10.9433L111.691 10.5249C113.277 12.3982 114.27 14.2132 114.844 15.9844L113.618 17.3225C114.022 18.3735 114.338 19.4294 114.557 20.4804L116.683 22.1299C117.214 24.4023 117.15 26.0518 116.669 27.2683L116.664 27.2537ZM105 24.8597C108.299 26.7671 110.985 25.2344 110.995 21.4439C111.005 17.6485 108.338 13.0259 105.039 11.1185C101.735 9.21109 99.0493 10.7438 99.0395 14.5392C99.0298 18.3297 101.696 22.9523 105 24.8597Z" fill="#E7EDF7" stroke="#454CEE" stroke-width="0.75" stroke-linecap="round" stroke-linejoin="round"/>
<path d="M111.691 10.5151L114.493 8.88501C116.08 10.7584 117.072 12.5733 117.646 14.3445L114.844 15.9746C114.27 14.1985 113.277 12.3836 111.691 10.5151Z" fill="#55C2F9" stroke="#454CEE" stroke-width="0.75" stroke-linecap="round" stroke-linejoin="round"/>
<path d="M128.789 18.0085L130.497 17.011L130.273 18.3783L128.561 19.3709L128.789 18.0085Z" fill="#8F65E0" stroke="#454CEE" stroke-width="0.75" stroke-linecap="round" stroke-linejoin="round"/>
<path d="M120.099 4.74898L121.812 3.75635L123.106 4.22834L121.393 5.22097L120.099 4.74898Z" fill="#B06BF2" stroke="#454CEE" stroke-width="0.75" stroke-linecap="round" stroke-linejoin="round"/>
<path d="M128.906 13.6049C126.892 12.442 125.262 9.61978 125.267 7.30849C125.267 6.16015 125.675 5.34755 126.332 4.96802L124.619 5.96065C123.962 6.34019 123.559 7.15279 123.554 8.30113C123.549 10.6173 125.174 13.4346 127.193 14.5975C128.205 15.1815 129.125 15.235 129.787 14.8506L131.5 13.8579C130.838 14.2423 129.918 14.1888 128.906 13.6049Z" fill="#8F65E0" stroke="#454CEE" stroke-width="0.75" stroke-linecap="round" stroke-linejoin="round"/>
<path d="M134.078 18.383L132.366 19.3757C132.672 19.1956 132.954 18.9183 133.193 18.5241L134.906 17.5315C134.662 17.9256 134.385 18.203 134.078 18.383Z" fill="#8F65E0" stroke="#454CEE" stroke-width="0.75" stroke-linecap="round" stroke-linejoin="round"/>
<path d="M122.045 1.43044L123.758 0.43781C124.094 0.243175 124.463 0.165322 124.862 0.184785L123.15 1.17742C122.751 1.15796 122.381 1.23581 122.045 1.43044Z" fill="#B06BF2" stroke="#454CEE" stroke-width="0.75" stroke-linecap="round" stroke-linejoin="round"/>
<path d="M132.434 16.8503L134.147 15.8577L134.906 17.5315L133.193 18.5242L132.434 16.8503Z" fill="#B06BF2" stroke="#454CEE" stroke-width="0.75" stroke-linecap="round" stroke-linejoin="round"/>
<path d="M123.15 1.18232L124.862 0.184814L125.948 1.6689L124.235 2.66154L123.15 1.18232Z" fill="#8F65E0" stroke="#454CEE" stroke-width="0.75" stroke-linecap="round" stroke-linejoin="round"/>
<path d="M133.013 15.5852L134.726 14.5925C134.589 15.0791 134.395 15.5024 134.147 15.8577L132.434 16.8503C132.682 16.4951 132.877 16.0717 133.013 15.5852Z" fill="#B06BF2" stroke="#454CEE" stroke-width="0.75" stroke-linecap="round" stroke-linejoin="round"/>
<path d="M124.235 2.66148L125.948 1.66884C126.381 1.63478 126.843 1.67857 127.334 1.80508L125.622 2.79772C125.135 2.67121 124.668 2.62741 124.235 2.66148Z" fill="#B06BF2" stroke="#454CEE" stroke-width="0.75" stroke-linecap="round" stroke-linejoin="round"/>
<path d="M132.448 9.98946L134.161 8.99683C134.409 9.63425 134.599 10.2814 134.735 10.9237L133.023 11.9163C132.886 11.2789 132.697 10.6318 132.448 9.98946Z" fill="#B06BF2" stroke="#454CEE" stroke-width="0.75" stroke-linecap="round" stroke-linejoin="round"/>
<path d="M128.814 4.63692L130.526 3.64429C131.018 4.07735 131.48 4.57367 131.913 5.10404L130.2 6.09668C129.767 5.5663 129.305 5.07485 128.814 4.63692Z" fill="#B06BF2" stroke="#454CEE" stroke-width="0.75" stroke-linecap="round" stroke-linejoin="round"/>
<path d="M134.317 12.9235L136.03 11.9309C136.356 13.3177 136.317 14.3249 136.02 15.0645L134.307 16.0572C134.604 15.3175 134.638 14.3103 134.317 12.9235Z" fill="#B06BF2" stroke="#454CEE" stroke-width="0.75" stroke-linecap="round" stroke-linejoin="round"/>
<path d="M133.023 11.9165L134.731 10.9238L136.03 11.9262L134.317 12.9237L133.023 11.9165Z" fill="#8F65E0" stroke="#454CEE" stroke-width="0.75" stroke-linecap="round" stroke-linejoin="round"/>
<path d="M125.845 1.43526L127.558 0.442627C128.064 0.549676 128.536 0.739444 128.979 0.992469C129.446 1.26496 129.884 1.61043 130.288 2.01916L128.575 3.0118C128.166 2.60307 127.733 2.25759 127.266 1.9851C126.823 1.73208 126.352 1.54231 125.845 1.43526Z" fill="#B06BF2" stroke="#454CEE" stroke-width="0.75" stroke-linecap="round" stroke-linejoin="round"/>
<path d="M128.575 3.01192L130.288 2.01929L130.522 3.64448L128.814 4.63712L128.575 3.01192Z" fill="#8F65E0" stroke="#454CEE" stroke-width="0.75" stroke-linecap="round" stroke-linejoin="round"/>
<path d="M133.198 9.17694L134.911 8.17944L134.161 8.99691L132.448 9.98954L133.198 9.17694Z" fill="#8F65E0" stroke="#454CEE" stroke-width="0.75" stroke-linecap="round" stroke-linejoin="round"/>
<path d="M130.196 6.09672L131.908 5.10408L132.984 4.84619L131.276 5.84369L130.196 6.09672Z" fill="#8F65E0" stroke="#454CEE" stroke-width="0.75" stroke-linecap="round" stroke-linejoin="round"/>
<path d="M134.312 16.0572L133.018 15.5853C132.881 16.0718 132.687 16.4952 132.439 16.8504L133.198 18.5242C132.692 19.3466 132.03 19.6677 131.261 19.6288L130.176 18.1447C129.743 18.1836 129.281 18.135 128.789 18.0084L128.565 19.3709C128.059 19.259 127.587 19.0741 127.145 18.8162C126.678 18.5486 126.244 18.2031 125.836 17.7944L125.597 16.1692C125.106 15.7312 124.644 15.2398 124.211 14.7094L123.13 14.9624C122.162 13.8238 121.559 12.7144 121.208 11.6293L121.958 10.8118C121.714 10.1744 121.52 9.52726 121.388 8.88497L120.089 7.8826C119.763 6.49583 119.802 5.4886 120.099 4.74899L121.393 5.22098C121.529 4.73439 121.724 4.31106 121.972 3.95586L121.213 2.282C121.719 1.45967 122.381 1.13852 123.15 1.17745L124.235 2.66154C124.668 2.62748 125.13 2.67127 125.622 2.79778L125.85 1.43534C126.356 1.54239 126.828 1.73216 127.271 1.98518C127.738 2.25767 128.176 2.60315 128.58 3.01188L128.818 4.63707C129.31 5.07014 129.772 5.56645 130.205 6.09683L131.281 5.84381C132.249 6.98728 132.852 8.09183 133.203 9.17692L132.453 9.99438C132.701 10.6318 132.891 11.279 133.027 11.9213L134.327 12.9285C134.653 14.3153 134.614 15.3225 134.317 16.0621L134.312 16.0572ZM127.193 14.5975C129.208 15.7604 130.848 14.8262 130.852 12.51C130.857 10.1939 129.232 7.37169 127.218 6.20875C125.203 5.04581 123.563 5.98005 123.559 8.2962C123.554 10.6123 125.179 13.4297 127.198 14.5926" fill="white"/>
<path d="M127.193 14.5975C129.208 15.7604 130.848 14.8262 130.852 12.51C130.857 10.1939 129.232 7.37169 127.218 6.20875C125.203 5.04581 123.563 5.98005 123.559 8.2962C123.554 10.6123 125.179 13.4297 127.198 14.5926M134.312 16.0572L133.018 15.5853C132.881 16.0718 132.687 16.4952 132.439 16.8504L133.198 18.5242C132.692 19.3466 132.03 19.6677 131.261 19.6288L130.176 18.1447C129.743 18.1836 129.281 18.135 128.789 18.0084L128.565 19.3709C128.059 19.259 127.587 19.0741 127.145 18.8162C126.678 18.5486 126.244 18.2031 125.836 17.7944L125.597 16.1692C125.106 15.7312 124.644 15.2398 124.211 14.7094L123.13 14.9624C122.162 13.8238 121.559 12.7144 121.208 11.6293L121.958 10.8118C121.714 10.1744 121.52 9.52726 121.388 8.88497L120.089 7.8826C119.763 6.49583 119.802 5.4886 120.099 4.74899L121.393 5.22098C121.529 4.73439 121.724 4.31106 121.972 3.95586L121.213 2.282C121.719 1.45967 122.381 1.13852 123.15 1.17745L124.235 2.66154C124.668 2.62748 125.13 2.67127 125.622 2.79778L125.85 1.43534C126.356 1.54239 126.828 1.73216 127.271 1.98518C127.738 2.25767 128.176 2.60315 128.58 3.01188L128.818 4.63707C129.31 5.07014 129.772 5.56645 130.205 6.09683L131.281 5.84381C132.249 6.98728 132.852 8.09183 133.203 9.17692L132.453 9.99438C132.701 10.6318 132.891 11.279 133.027 11.9213L134.327 12.9285C134.653 14.3153 134.614 15.3225 134.317 16.0621L134.312 16.0572Z" stroke="#454CEE" stroke-width="0.75" stroke-linecap="round" stroke-linejoin="round"/>
<path d="M131.276 5.84371L132.989 4.85107C133.957 5.99455 134.56 7.0991 134.911 8.18419L133.198 9.17682C132.848 8.09174 132.244 6.98719 131.276 5.84371Z" fill="#B06BF2" stroke="#454CEE" stroke-width="0.75" stroke-linecap="round" stroke-linejoin="round"/>
<path d="M153.892 36.085L155.016 35.4329C155.318 35.2578 155.736 35.2821 156.194 35.5497L155.07 36.2017C154.608 35.9341 154.194 35.9098 153.892 36.085Z" fill="#454CEE"/>
<path d="M181.915 70.5354L180.791 71.1874C181.088 71.0122 181.273 70.6473 181.273 70.1217L182.397 69.4697C182.397 69.9904 182.212 70.3602 181.915 70.5354Z" fill="#454CEE"/>
<path d="M181.321 53.2712L182.445 52.6143L182.397 69.4696L181.273 70.1265L181.321 53.2712Z" fill="#454CEE"/>
<path d="M155.07 36.2018L156.199 35.5498L180.791 49.7484L179.662 50.4004L155.07 36.2018Z" fill="#454CEE"/>
<path d="M179.662 50.4003L180.786 49.7483C181.706 50.2787 182.445 51.5633 182.445 52.6191L181.321 53.2712C181.321 52.2153 180.582 50.9307 179.662 50.4003Z" fill="#454CEE"/>
<path d="M179.662 50.4003C180.582 50.9307 181.321 52.2153 181.321 53.2712L181.273 70.1265C181.273 71.1824 180.523 71.6009 179.604 71.0754L155.012 56.8768C154.092 56.3464 153.357 55.0667 153.357 54.0108L153.406 37.1555C153.406 36.0996 154.15 35.6714 155.07 36.2018L179.662 50.4003Z" fill="white" stroke="#454CEE" stroke-width="0.75" stroke-miterlimit="10"/>
<path d="M159.595 48.5368L159.576 55.0425L157.6 53.899L157.62 47.3982L159.595 48.5368Z" fill="#FF98FF" stroke="#454CEE" stroke-width="0.75" stroke-linejoin="round"/>
<path d="M163.376 47.3933L163.347 57.2174L161.371 56.0788L161.401 46.2546L163.376 47.3933Z" fill="#FCCC54" stroke="#454CEE" stroke-width="0.75" stroke-miterlimit="10"/>
<path d="M167.045 51.4758L167.025 59.339L165.055 58.2004L165.074 50.3372L167.045 51.4758Z" fill="#FF98FF" stroke="#454CEE" stroke-width="0.75" stroke-linejoin="round"/>
<path d="M170.743 48.4638L170.709 61.4654L168.733 60.3267L168.767 47.3203L170.743 48.4638Z" fill="#FCCC54" stroke="#454CEE" stroke-width="0.75" stroke-miterlimit="10"/>
<path d="M178.241 52.7895L178.202 65.7959L176.227 64.6524L176.266 51.6509L178.241 52.7895Z" fill="#FCCC54" stroke="#454CEE" stroke-width="0.75" stroke-miterlimit="10"/>
<path d="M174.509 52.6337L174.475 63.6451L172.5 62.5017L172.534 51.4902L174.509 52.6337Z" fill="#FF98FF" stroke="#454CEE" stroke-width="0.75" stroke-linejoin="round"/>
<path d="M163.391 42.4933L163.386 43.1648L157.284 39.6419L157.289 38.9705L163.391 42.4933Z" fill="#454CEE"/>
<path d="M178.489 67.1731L178.485 67.791L157.595 55.7286L157.6 55.1106L178.489 67.1731Z" fill="#454CEE"/>
<path d="M162.923 87.4148L164.709 86.3784L170.173 96.913L168.388 97.9494L162.923 87.4148Z" fill="#454CEE" stroke="#454CEE" stroke-width="0.75" stroke-miterlimit="10"/>
<path d="M170.85 96.5968L169.064 97.6332C170.553 96.7671 171.497 94.9619 171.58 92.4073L173.366 91.3708C173.283 93.9254 172.339 95.7307 170.85 96.5968Z" fill="#EFB44B" stroke="#454CEE" stroke-width="0.75" stroke-linejoin="round"/>
<path d="M171.58 92.412C171.487 95.3364 170.261 97.2779 168.383 97.9542L162.923 87.4148L171.58 92.412Z" fill="#FCCC54" stroke="#454CEE" stroke-width="0.75" stroke-linejoin="round"/>
<path d="M162.923 87.4148L164.709 86.3784L173.365 91.3756L171.58 92.4121L162.923 87.4148Z" fill="#EFB44B" stroke="#454CEE" stroke-width="0.75" stroke-linejoin="round"/>
<path d="M162.953 77.1187L162.923 87.4148L168.383 97.9543C166.889 98.4992 164.967 98.2365 162.894 97.0395C158.106 94.2757 154.243 87.5754 154.257 82.0818C154.272 76.5834 158.165 74.3597 162.948 77.1235L162.953 77.1187Z" fill="white" stroke="#454CEE" stroke-width="0.75" stroke-linejoin="round"/>
<path d="M156.792 76.5155L158.578 75.479C160.155 74.5642 162.335 74.6908 164.743 76.0824L162.958 77.1188C160.549 75.7272 158.369 75.6007 156.792 76.5155Z" fill="#454CEE" stroke="#454CEE" stroke-width="0.75" stroke-miterlimit="10"/>
<path d="M162.953 77.1187L164.738 76.0823L164.709 86.3784L162.923 87.4149L162.953 77.1187Z" fill="#454CEE" stroke="#454CEE" stroke-width="0.75" stroke-miterlimit="10"/>
<path d="M165.191 74.5447C170.422 77.5664 174.655 84.8944 174.636 90.9037C174.636 91.0302 174.636 91.1567 174.626 91.2638L165.157 85.7994L165.191 74.5447Z" fill="#FF98FF" stroke="#454CEE" stroke-width="0.75" stroke-linejoin="round"/>
<path d="M165.191 74.5447L166.977 73.5083C172.207 76.53 176.441 83.858 176.421 89.8673C176.421 89.9938 176.421 90.1203 176.412 90.2274L174.626 91.2638C174.636 91.1519 174.636 91.0254 174.636 90.9037C174.65 84.8944 170.422 77.5616 165.191 74.5447Z" fill="#D267D2" stroke="#454CEE" stroke-width="0.75" stroke-linejoin="round"/>
<path d="M53.281 27.7498L52.157 27.0977C51.8553 26.9226 51.4369 26.9469 50.9795 27.2145L52.1035 27.8665C52.5658 27.5989 52.9794 27.5746 53.281 27.7498Z" fill="#454CEE"/>
<path d="M26.9226 65.1098L28.0467 65.7618C27.7498 65.5867 27.5649 65.2217 27.5649 64.6962L26.4409 64.0442C26.4409 64.5648 26.6258 64.9346 26.9226 65.105V65.1098Z" fill="#454CEE"/>
<path d="M27.5163 43.9726L26.3923 43.3206L26.4361 64.0442L27.565 64.7011L27.5163 43.9726Z" fill="#454CEE"/>
<path d="M52.1034 27.8666L50.9794 27.2097L28.0466 40.4497L29.1755 41.1017L52.1034 27.8666Z" fill="#454CEE"/>
<path d="M29.1756 41.1017L28.0516 40.4497C27.1319 40.9801 26.3923 42.2647 26.3923 43.3206L27.5163 43.9726C27.5163 42.9167 28.256 41.6321 29.1756 41.1017Z" fill="#454CEE"/>
<path d="M29.1756 41.1017C28.256 41.6321 27.5164 42.9166 27.5164 43.9725L27.565 64.7011C27.565 65.757 28.3144 66.1754 29.234 65.6499L52.1619 52.4099C53.0816 51.8796 53.8163 50.5998 53.8163 49.5439L53.7677 28.8154C53.7677 27.7595 53.0232 27.3313 52.1035 27.8617L29.1756 41.1017Z" fill="white" stroke="#454CEE" stroke-width="0.75" stroke-miterlimit="10"/>
<path d="M34.241 40.8826C34.2799 40.8631 34.314 40.8388 34.3529 40.8193L34.3237 42.1818C34.3237 42.1818 34.2799 42.2061 34.2556 42.2207C34.1485 42.284 34.0415 42.3521 33.9393 42.4299C33.8858 42.4689 33.8323 42.5127 33.7787 42.5564C33.7009 42.6197 33.623 42.6927 33.5452 42.7657C32.4017 43.88 31.7983 45.6657 32.1973 46.7508C32.2314 46.8433 32.2703 46.9309 32.319 47.0087C32.6742 47.5975 33.3603 47.7094 34.1047 47.3445C34.1631 47.3153 34.2167 47.2861 34.2751 47.252C34.2896 47.2423 34.3042 47.2325 34.3188 47.2277C34.4843 47.1304 34.6449 47.0087 34.8103 46.8676C34.8346 46.8481 34.8541 46.8287 34.8784 46.8092C34.9173 46.7751 34.9514 46.7411 34.9903 46.707C35.6278 46.0842 36.0949 45.2619 36.3187 44.4639L37.4135 44.3179C37.0729 45.5441 36.3528 46.8141 35.3747 47.7629C35.3358 47.797 35.3017 47.831 35.2628 47.8651L35.2239 47.904C34.9222 48.1814 34.6157 48.4101 34.314 48.5852C34.3042 48.5901 34.2896 48.5998 34.2799 48.6047C34.2605 48.6193 34.2361 48.629 34.2167 48.6436C32.9077 49.3735 31.6864 49.1594 31.1609 48.0013C31.1366 47.9478 31.1171 47.8943 31.0928 47.8359C30.9663 47.4953 30.9079 47.1158 30.903 46.7022C30.8884 45.0964 31.7643 43.082 33.1608 41.7195C33.5208 41.3692 33.8858 41.0918 34.2459 40.8826H34.241Z" fill="#454CEE" stroke="#454CEE" stroke-width="0.75" stroke-linejoin="round"/>
<path d="M34.2604 43.9239C34.6546 43.6952 34.9709 43.8801 34.9709 44.3326C34.9709 44.7851 34.6546 45.335 34.2604 45.5588C33.8663 45.7875 33.5452 45.6026 33.5452 45.1549C33.5452 44.7024 33.8614 44.1526 34.2556 43.9239H34.2604Z" fill="#454CEE"/>
<path d="M37.4379 41.6466C37.7104 42.3863 37.6812 43.34 37.4038 44.318L36.309 44.464C36.489 43.8265 36.5085 43.2037 36.3333 42.722C36.0268 41.8802 35.2044 41.705 34.3188 42.1819L34.348 40.8194C35.7056 40.0798 36.961 40.3475 37.4379 41.6418V41.6466Z" fill="#FF98FF" stroke="#454CEE" stroke-width="0.75" stroke-miterlimit="10"/>
<path d="M43.0093 51.4999C43.4277 51.2469 43.8511 50.8576 44.216 50.3516C43.8511 50.8576 43.4277 51.2517 43.0093 51.4999Z" fill="#454CEE"/>
<path d="M42.9558 48.2691C43.3499 48.0404 43.6711 48.2253 43.6711 48.6778C43.6711 49.1303 43.3548 49.6802 42.9607 49.904C42.5665 50.1327 42.2502 49.9478 42.2502 49.5001C42.2502 49.0476 42.5665 48.4978 42.9607 48.2739L42.9558 48.2691Z" fill="#454CEE"/>
<path d="M43.131 45.0381C44.0895 44.5466 45.014 44.5369 45.6369 45.1257C46.7609 46.1864 46.4689 48.7799 44.9848 50.9209C44.9119 51.028 44.834 51.135 44.7562 51.2323C44.2258 51.9281 43.6273 52.4682 43.0336 52.8235C43.0093 52.8381 42.9898 52.8478 42.9655 52.8624C42.9509 52.8721 42.9315 52.8818 42.9169 52.8916C42.0264 53.3928 41.1505 53.4755 40.5083 53.0619C40.4693 53.0376 40.4304 53.0084 40.3915 52.9792C40.3769 52.9646 40.3623 52.9548 40.3428 52.9402C40.3185 52.9208 40.2942 52.9013 40.2698 52.877C40.0168 52.6386 39.8368 52.3223 39.7249 51.9476L40.8489 50.9258C40.9219 51.1691 41.0386 51.3734 41.2041 51.534C41.243 51.5729 41.2868 51.607 41.3306 51.6362C41.3403 51.6411 41.35 51.6459 41.3549 51.6557C41.7539 51.9135 42.2843 51.8795 42.8341 51.5973C42.8779 51.5778 42.9169 51.5535 42.9606 51.5291C42.9752 51.5194 42.9898 51.5145 43.0044 51.5048C43.4229 51.2518 43.8462 50.8625 44.2112 50.3565C44.2306 50.3273 44.255 50.2981 44.2744 50.2689C44.8486 49.4417 45.1454 48.5074 45.1406 47.7386C45.1406 47.2131 44.9946 46.7703 44.6978 46.4881C44.289 46.1037 43.6857 46.1086 43.0628 46.4297L43.1212 45.0478L43.131 45.0381Z" fill="#B06BF2" stroke="#454CEE" stroke-width="0.75" stroke-miterlimit="10"/>
<path d="M43.1162 54.5413C43.2573 54.4634 43.3644 54.5267 43.3692 54.6872C43.3692 54.8429 43.2573 55.0376 43.1211 55.1203L33.1363 60.8863C32.9952 60.9642 32.8833 60.9009 32.8833 60.7452C32.8833 60.5847 32.9952 60.39 33.1363 60.3122L43.1211 54.5461L43.1162 54.5413Z" fill="#454CEE"/>
<path d="M34.2895 53.2713C34.6836 53.0426 34.9999 53.2275 34.9999 53.68C34.9999 54.1325 34.6836 54.6824 34.2895 54.9062C33.8954 55.1349 33.5742 54.95 33.5742 54.5023C33.5742 54.0498 33.8905 53.5 34.2846 53.2713H34.2895Z" fill="#454CEE"/>
<path d="M34.6497 48.3665C34.5378 48.4492 34.421 48.5222 34.3091 48.5854C34.421 48.5173 34.5378 48.4443 34.6497 48.3665Z" fill="#FF98FF"/>
<path d="M36.27 56.0011C35.7298 56.7601 35.0194 57.4559 34.2993 57.8744C33.8808 58.1128 33.477 58.2539 33.112 58.3075C31.8372 58.4924 30.9321 57.6019 30.9272 55.9475C30.9272 54.9987 31.2192 53.9623 31.7106 53.0037C32.3237 51.8067 33.2483 50.7362 34.2798 50.1377V51.4855C33.6083 51.8748 33.0098 52.5706 32.606 53.354C32.2897 53.9769 32.0951 54.6532 32.0951 55.2712C32.0951 56.3465 32.6887 56.9304 33.5207 56.8137C33.764 56.7796 34.0268 56.6871 34.2944 56.5314C34.7713 56.2541 35.2189 55.8162 35.579 55.3052L35.9634 55.6896L36.27 56.0011Z" fill="#454CEE" stroke="#454CEE" stroke-width="0.75" stroke-linejoin="round"/>
<path d="M34.2847 51.4904L34.3187 51.4709L34.2847 51.4904Z" fill="#454CEE"/>
<path d="M43.0677 46.42C43.0288 46.4395 42.985 46.4638 42.946 46.4881C42.4886 46.7509 42.0264 47.1839 41.6323 47.7532C40.8878 48.8286 40.6056 50.0888 40.8537 50.9258L39.7297 51.9476C39.3453 50.6728 39.7784 48.741 40.9267 47.0817C41.5301 46.2108 42.2356 45.5441 42.9412 45.1403C43.0044 45.1013 43.0677 45.0673 43.1309 45.0381L43.0725 46.42H43.0677Z" fill="#454CEE" stroke="#454CEE" stroke-width="0.75" stroke-linejoin="round"/>
<path d="M42.9265 38.9217C43.3206 38.693 43.6418 38.8779 43.6418 39.3304C43.6418 39.7829 43.3255 40.3328 42.9314 40.5566C42.5372 40.7853 42.2209 40.6004 42.2209 40.1527C42.2209 39.7002 42.5372 39.1504 42.9314 38.9265L42.9265 38.9217Z" fill="#454CEE"/>
<path d="M41.2478 39.0823C41.2478 39.0823 41.2673 39.0531 41.2721 39.0385C41.2624 39.0531 41.2527 39.0677 41.2478 39.0823C40.9267 39.7051 40.7369 40.3815 40.7369 41.0043C40.7369 42.0796 41.3305 42.6635 42.1626 42.5419L41.7539 44.0406C40.479 44.2206 39.574 43.335 39.5691 41.6806C39.5691 40.7318 39.8562 39.6905 40.3525 38.7319L41.2478 39.0823Z" fill="#454CEE"/>
<path d="M41.2478 39.0823C41.2478 39.0823 41.2673 39.0531 41.2721 39.0385C41.2624 39.0531 41.2527 39.0677 41.2478 39.0823ZM41.2478 39.0823C40.9267 39.7051 40.7369 40.3815 40.7369 41.0043C40.7369 42.0796 41.3305 42.6635 42.1626 42.5419L41.7539 44.0406M41.2478 39.0823L40.3525 38.7319C39.8562 39.6905 39.5691 40.7318 39.5691 41.6806C39.574 43.335 40.479 44.2206 41.7539 44.0406M41.7539 44.0406L41.8317 44.026" stroke="#454CEE" stroke-width="0.75" stroke-linejoin="round"/>
<path d="M42.9217 35.8757C44.7805 34.8003 46.2889 35.6665 46.2937 37.8026C46.2986 39.9387 44.7999 42.5322 42.9412 43.6075C42.5227 43.8508 42.1188 43.9968 41.749 44.0455L42.1578 42.5516C42.401 42.5176 42.6589 42.4251 42.9363 42.2646C44.1479 41.5639 45.1259 39.8706 45.1211 38.4789C45.1211 37.0873 44.1333 36.5228 42.9217 37.2235C42.2502 37.6128 41.6468 38.3086 41.2478 39.0872L40.3477 38.7368C40.9608 37.5398 41.8853 36.4693 42.9168 35.8757H42.9217Z" fill="#FCCC54" stroke="#454CEE" stroke-width="0.75" stroke-miterlimit="10"/>
<path d="M50.1183 32.7275C50.6389 32.4258 51.0671 32.6691 51.0671 33.2676C51.0671 33.871 50.6438 34.6009 50.1232 34.9025C49.6025 35.2042 49.1743 34.9609 49.1743 34.3624C49.1743 33.7639 49.5976 33.0292 50.1183 32.7275Z" fill="#454CEE"/>
<path d="M50.1281 36.6396C50.6487 36.3379 51.0769 36.5812 51.0769 37.1797C51.0769 37.7831 50.6536 38.513 50.1329 38.8146C49.6123 39.1163 49.1841 38.8779 49.1841 38.2745C49.1841 37.676 49.6074 36.9413 50.1281 36.6396Z" fill="#454CEE"/>
<path d="M50.1378 40.5468C50.6585 40.2452 51.0867 40.4884 51.0867 41.0869C51.0867 41.6854 50.6633 42.4202 50.1427 42.7219C49.622 43.0236 49.1938 42.7803 49.1938 42.1818C49.1938 41.5833 49.6172 40.8485 50.1378 40.5468Z" fill="#454CEE"/>
<path d="M50.1476 44.4592C50.6682 44.1575 51.0964 44.4008 51.0964 44.9993C51.0964 45.5978 50.6731 46.3325 50.1525 46.6342C49.6318 46.9359 49.2036 46.6926 49.2036 46.0941C49.2036 45.4956 49.6269 44.7609 50.1476 44.4592Z" fill="#454CEE"/>
<path d="M34.28 50.1423C36.1388 49.0669 37.6472 49.9331 37.6521 52.0692C37.6521 53.3586 37.112 54.8184 36.2702 56.0008L35.5792 55.305C36.1291 54.5313 36.4843 53.5824 36.4794 52.7407C36.4794 51.349 35.4916 50.7894 34.28 51.4853V50.1374V50.1423Z" fill="#55C2F9" stroke="#454CEE" stroke-width="0.75" stroke-miterlimit="10"/>
<path d="M53.3685 59.3147L52.4294 58.7698C52.1764 58.6238 51.8309 58.6433 51.4465 58.8671L52.3856 59.4121C52.77 59.1882 53.1204 59.1688 53.3685 59.3147Z" fill="#454CEE"/>
<path d="M31.3702 84.7144L32.3093 85.2594C32.0611 85.1134 31.9054 84.8069 31.9054 84.3738L30.9663 83.8289C30.9663 84.2668 31.122 84.5733 31.3702 84.7144Z" fill="#454CEE"/>
<path d="M31.8664 72.8565L30.9272 72.3115L30.9662 83.829L31.9053 84.374L31.8664 72.8565Z" fill="#454CEE"/>
<path d="M52.3856 59.4122L51.4465 58.8672L32.3091 69.9127L33.2482 70.4625L52.3856 59.4122Z" fill="#454CEE"/>
<path d="M33.2483 70.4625L32.3092 69.9175C31.5452 70.3603 30.9224 71.4308 30.9273 72.3115L31.8664 72.8565C31.8664 71.9757 32.4843 70.9052 33.2483 70.4625Z" fill="#454CEE"/>
<path d="M33.2484 70.4623C32.4844 70.9051 31.8616 71.9756 31.8665 72.8563L31.9054 84.3738C31.9054 85.2545 32.5331 85.6049 33.297 85.1621L52.4345 74.1117C53.1984 73.6689 53.8164 72.6033 53.8164 71.7226L53.7774 60.2051C53.7774 59.3244 53.1546 58.9692 52.3907 59.412L33.2533 70.4623H33.2484Z" fill="white" stroke="#454CEE" stroke-width="0.75" stroke-miterlimit="10"/>
<path d="M51.904 70.9343L51.9088 72.0924L36.051 81.2499L36.0461 80.087L51.904 70.9343Z" fill="#454CEE"/>
<path d="M51.8893 65.2705L51.8942 66.4334L36.0364 75.591L36.0315 74.4281L51.8893 65.2705Z" fill="#454CEE"/>
<path d="M51.8991 68.1025V69.2655L36.0413 78.423V77.2601L51.8991 68.1025Z" fill="#454CEE"/>
<path d="M45.8267 65.9468V67.1097L36.0268 72.7687L36.022 71.6058L45.8267 65.9468Z" fill="#454CEE"/>
<path d="M34.7616 72.5596C34.9319 72.4623 35.073 72.5401 35.073 72.7396C35.073 72.9391 34.9368 73.1776 34.7616 73.2797C34.5864 73.3819 34.4502 73.2992 34.4502 73.0997C34.4502 72.9002 34.5864 72.6618 34.7616 72.5596Z" fill="#454CEE"/>
<path d="M34.7714 75.3769C34.9417 75.2795 35.0828 75.3623 35.0828 75.5569C35.0828 75.7515 34.9465 75.9948 34.7714 76.097C34.6011 76.1943 34.46 76.1116 34.46 75.917C34.46 75.7175 34.5962 75.4742 34.7714 75.3769Z" fill="#454CEE"/>
<path d="M34.7763 78.2137C34.9466 78.1163 35.0877 78.1942 35.0877 78.3937C35.0877 78.5932 34.9514 78.8316 34.7763 78.9338C34.606 79.0311 34.4648 78.9533 34.4648 78.7538C34.4648 78.5543 34.6011 78.3158 34.7763 78.2137Z" fill="#454CEE"/>
<path d="M34.786 81.0407C34.9563 80.9434 35.0974 81.0261 35.0974 81.2207C35.0974 81.4153 34.9612 81.6586 34.786 81.7608C34.6109 81.863 34.4746 81.7754 34.4746 81.5808C34.4746 81.3813 34.6109 81.138 34.786 81.0407Z" fill="#454CEE"/>
<path d="M100.748 27.7837L105.433 25.0588C100.786 27.7594 97.901 33.4962 97.8766 41.6417C97.828 58.0396 109.404 78.0869 123.671 86.3248L118.985 89.0497C104.718 80.8118 93.1422 60.7694 93.1908 44.3666C93.2152 36.2211 96.1006 30.4843 100.748 27.7837Z" fill="#454CEE"/>
<path d="M142.078 88.1107L137.392 90.8356C132.682 93.5702 126.167 93.1955 118.985 89.045L123.67 86.3201C130.852 90.4658 137.368 90.8453 142.078 88.1107Z" fill="#454CEE"/>
<path d="M105.433 25.0589C110.143 22.3194 116.659 22.6989 123.841 26.8447L119.155 29.5695C111.973 25.4238 105.457 25.0443 100.747 27.7838C102.154 26.9663 104.027 25.8763 105.433 25.0589Z" fill="#454CEE"/>
<path d="M100.582 27.4967L105.268 24.7719C110.017 22.0129 116.596 22.3925 123.841 26.5771L119.155 29.302C111.91 25.1173 105.331 24.7378 100.582 27.4967Z" fill="#454CEE"/>
<path d="M149.64 71.5279C149.615 79.6734 146.73 85.4102 142.083 88.1107L137.397 90.8356C142.044 88.1351 144.929 82.3982 144.954 74.2528C145.002 57.8549 133.427 37.8124 119.155 29.5745L123.841 26.8496C138.112 35.0875 149.683 55.1348 149.64 71.5279Z" fill="#454CEE"/>
<path d="M119.155 29.3019C133.558 37.6177 145.231 57.8402 145.187 74.3889C145.139 90.9377 133.388 97.6331 118.985 89.3223C104.587 81.0114 92.9085 60.784 92.9572 44.2352C93.0058 27.6913 104.757 20.991 119.155 29.3068V29.3019ZM118.985 89.0498C133.256 97.2877 144.905 90.6506 144.949 74.2527C144.998 57.8548 133.422 37.8123 119.15 29.5744C104.883 21.3365 93.2345 27.9735 93.1859 44.3715C93.1372 60.7694 104.713 80.8167 118.98 89.0546" fill="#454CEE"/>
<path d="M144.949 74.2479C144.905 90.6458 133.256 97.2829 118.985 89.045C115.588 87.084 112.343 84.4516 109.37 81.3618C99.8619 71.4695 93.1519 56.8573 93.1859 44.3667C93.2346 27.9687 104.883 21.3317 119.15 29.5696C122.021 31.224 124.775 33.3552 127.354 35.8417C137.601 45.7145 144.983 61.1441 144.944 74.2479H144.949Z" fill="#D7E4F9" stroke="#454CEE" stroke-width="0.75" stroke-miterlimit="10"/>
<path d="M143.523 72.8222C143.475 89.225 131.826 95.862 117.559 87.6193C114.698 85.9698 111.944 83.8434 109.375 81.3618C99.8668 71.4695 93.1567 56.8573 93.1908 44.3667C93.2395 27.9687 104.888 21.3317 119.155 29.5696C122.026 31.224 124.78 33.3552 127.359 35.8417C136.862 45.734 143.562 60.3364 143.528 72.8173L143.523 72.8222Z" fill="white" stroke="#454CEE" stroke-width="0.75" stroke-miterlimit="10"/>
<path d="M142.248 88.3978L137.563 91.1227C142.253 88.3978 145.168 82.6075 145.187 74.3842C145.236 57.8403 133.558 37.6129 119.155 29.2971L123.841 26.5723C138.244 34.888 149.917 55.1105 149.873 71.6593C149.849 79.8826 146.939 85.6681 142.248 88.3978Z" fill="#454CEE"/>
<path d="M139.533 71.124C139.519 75.5811 138.424 79.1284 136.521 81.5953C132.916 86.3104 126.405 87.0986 119.004 82.8215C107.72 76.3013 98.5676 60.4532 98.6017 47.4857C98.6211 41.6369 100.499 37.3647 103.599 35.0242C107.37 32.1777 112.941 32.202 119.136 35.7833C130.419 42.3036 139.572 58.1516 139.533 71.1192V71.124Z" fill="#454CEE"/>
<path d="M139.533 71.124C139.519 75.5812 138.424 79.1284 136.521 81.5954C132.75 84.4516 127.179 84.4224 120.98 80.8412C109.696 74.3258 100.543 58.4777 100.582 45.5102C100.597 41.0433 101.696 37.4961 103.599 35.0291C107.37 32.1826 112.941 32.2069 119.136 35.7882C130.42 42.3084 139.572 58.1565 139.533 71.124Z" fill="white" stroke="#454CEE" stroke-width="0.75" stroke-miterlimit="10"/>
<path d="M120.011 37.968C120.221 38.0897 120.386 38.3768 120.386 38.6152L120.376 41.8704C120.376 42.1089 120.206 42.2062 120.002 42.0845C119.792 41.9629 119.627 41.6758 119.627 41.4374L119.637 38.1821C119.637 37.9437 119.807 37.8464 120.011 37.968Z" fill="#454CEE"/>
<path d="M111.238 35.608C111.37 35.681 111.496 35.8318 111.564 36.0119L112.971 39.6467C113.073 39.9143 113.01 40.143 112.834 40.1576C112.776 40.1576 112.713 40.143 112.645 40.1089C112.513 40.0359 112.387 39.8851 112.319 39.7051L110.912 36.0703C110.81 35.8075 110.873 35.5788 111.049 35.5642C111.107 35.5642 111.175 35.5788 111.238 35.6129V35.608Z" fill="#454CEE"/>
<path d="M104.801 39.277C104.864 39.3159 104.927 39.3694 104.986 39.4424L107.433 42.4884C107.613 42.7123 107.676 43.0091 107.569 43.1599C107.501 43.2572 107.375 43.2621 107.243 43.1891C107.18 43.1502 107.117 43.0967 107.054 43.0237L104.606 39.9777C104.426 39.7538 104.368 39.457 104.47 39.311C104.538 39.2137 104.664 39.2089 104.796 39.2818L104.801 39.277Z" fill="#454CEE"/>
<path d="M105.253 49.6315C105.462 49.7532 105.628 50.0402 105.628 50.2787C105.628 50.5171 105.458 50.6144 105.253 50.4928L102.416 48.8578C102.207 48.7362 102.042 48.4491 102.042 48.2107C102.042 47.9723 102.212 47.8749 102.416 47.9966L105.253 49.6315Z" fill="#454CEE"/>
<path d="M107.2 59.2122C107.331 59.2852 107.457 59.4361 107.526 59.6161C107.628 59.8789 107.564 60.1076 107.384 60.1221L104.927 60.3362C104.869 60.3411 104.805 60.3217 104.742 60.2876C104.611 60.2146 104.489 60.0638 104.416 59.8837C104.314 59.621 104.377 59.3923 104.552 59.3777L107.01 59.1636C107.068 59.1636 107.131 59.1782 107.2 59.2122Z" fill="#454CEE"/>
<path d="M112.562 68.506C112.625 68.5449 112.688 68.5984 112.752 68.6714C112.932 68.8952 112.99 69.192 112.888 69.338L111.462 71.3379C111.394 71.4352 111.268 71.4401 111.136 71.3671C111.073 71.3282 111.01 71.2746 110.951 71.2016C110.771 70.9778 110.713 70.681 110.815 70.535L112.241 68.5352C112.309 68.4378 112.435 68.433 112.567 68.506H112.562Z" fill="#454CEE"/>
<path d="M119.909 75.0117C120.118 75.1334 120.284 75.4205 120.284 75.6589L120.274 78.9141C120.274 79.1526 120.104 79.2499 119.899 79.1282C119.695 79.0066 119.525 78.7195 119.525 78.4811L119.534 75.2258C119.534 74.9874 119.705 74.8901 119.909 75.0117Z" fill="#454CEE"/>
<path d="M127.266 76.9969C127.398 77.0699 127.519 77.2208 127.592 77.4008L129.003 81.0405C129.106 81.3081 129.042 81.5368 128.862 81.5514C128.804 81.5562 128.741 81.5368 128.677 81.5027C128.546 81.4297 128.424 81.2789 128.351 81.0988L126.94 77.4592C126.838 77.1964 126.901 76.9677 127.081 76.9531C127.14 76.9483 127.203 76.9677 127.266 77.0018V76.9969Z" fill="#454CEE"/>
<path d="M132.667 73.9169C132.731 73.9558 132.794 74.0093 132.852 74.0823L135.3 77.1283C135.48 77.3521 135.543 77.649 135.436 77.7949C135.368 77.8923 135.241 77.8971 135.11 77.8241C135.047 77.7852 134.984 77.7317 134.925 77.6587L132.478 74.6127C132.298 74.3888 132.239 74.092 132.341 73.946C132.409 73.8487 132.536 73.8439 132.667 73.9169Z" fill="#454CEE"/>
<path d="M137.494 68.2433C137.704 68.365 137.869 68.6521 137.869 68.8905C137.869 69.1289 137.699 69.2262 137.494 69.1046L134.658 67.4697C134.448 67.348 134.283 67.0609 134.283 66.8225C134.283 66.5841 134.453 66.4868 134.658 66.6084L137.494 68.2433Z" fill="#454CEE"/>
<path d="M135.173 56.8133C135.305 56.8863 135.431 57.0371 135.499 57.2172C135.602 57.4848 135.538 57.7135 135.358 57.7281L132.901 57.9373C132.843 57.9422 132.779 57.9227 132.716 57.8887C132.585 57.8157 132.463 57.6648 132.39 57.4848C132.288 57.2172 132.351 56.9885 132.526 56.9739L134.984 56.7646C135.042 56.7646 135.11 56.7792 135.173 56.8133Z" fill="#454CEE"/>
<path d="M128.775 45.734C128.838 45.7729 128.901 45.8264 128.96 45.8994C129.14 46.1232 129.203 46.4201 129.096 46.566L127.67 48.5659C127.602 48.6632 127.475 48.6681 127.344 48.5951C127.281 48.5562 127.218 48.5026 127.159 48.4297C126.979 48.2058 126.916 47.909 127.023 47.7582L128.449 45.7583C128.517 45.661 128.643 45.6561 128.775 45.7291V45.734Z" fill="#454CEE"/>
<path d="M117.077 57.6797L118.639 56.7698C118.333 56.9498 118.143 57.3293 118.143 57.8695C118.143 58.9545 118.902 60.2732 119.846 60.823L118.284 61.733C117.34 61.188 116.576 59.8693 116.581 58.7794C116.581 58.2393 116.771 57.8597 117.077 57.6797Z" fill="#454CEE"/>
<path d="M121.063 60.9398L119.501 61.8497C119.189 62.0297 118.761 62.0054 118.284 61.728L119.846 60.8181C120.323 61.0906 120.751 61.1198 121.063 60.9398Z" fill="#454CEE"/>
<path d="M115.827 55.529L117.389 54.6191C118.021 54.2493 118.897 54.3028 119.861 54.8624L118.299 55.7723C117.335 55.2127 116.459 55.1641 115.827 55.529Z" fill="#454CEE"/>
<path d="M122.313 63.0905L120.751 64.0004C121.374 63.6403 121.758 62.8666 121.763 61.7718C121.768 59.5676 120.225 56.8816 118.299 55.7722L119.861 54.8623C121.783 55.9717 123.33 58.6577 123.325 60.8619C123.325 61.9616 122.936 62.7304 122.313 63.0905Z" fill="#454CEE"/>
<path d="M118.299 55.7674C120.221 56.8768 121.768 59.5628 121.763 61.767C121.758 63.9761 120.201 64.8617 118.279 63.7523C116.362 62.6429 114.81 59.9618 114.815 57.7527C114.82 55.5485 116.382 54.658 118.304 55.7674H118.299ZM118.284 61.7281C119.228 62.2731 119.997 61.8351 120.002 60.7501C120.002 59.665 119.243 58.3415 118.299 57.7965C117.355 57.2515 116.586 57.6894 116.581 58.7745C116.581 59.8596 117.34 61.1831 118.284 61.7281Z" fill="white" stroke="#454CEE" stroke-width="0.75" stroke-miterlimit="10"/>
<g opacity="0.52">
<path d="M80.9921 122.868C86.0574 125.792 86.7922 133.271 82.2815 141.144C77.0069 150.355 66.5551 156.627 58.94 155.153C57.8354 154.939 56.8525 154.574 55.9913 154.077C50.9259 151.153 50.1912 143.674 54.7018 135.801C59.9764 126.585 70.4283 120.318 78.0433 121.792C79.1479 122.006 80.1357 122.371 80.9921 122.868Z" fill="#D7E4F9"/>
<path d="M87.78 133.879C91.4391 135.991 91.989 141.343 88.7678 146.968C84.9919 153.566 77.4595 158.048 71.9514 156.977C71.1436 156.822 70.4235 156.554 69.7958 156.189C66.1367 154.077 65.5868 148.725 68.808 143.1C72.5839 136.502 80.1163 132.02 85.6244 133.091C86.4322 133.247 87.1523 133.514 87.78 133.879Z" fill="#D7E4F9"/>
</g>
<path d="M80.2623 75.2503L83.3862 73.4353C83.3229 73.4742 83.2645 73.5132 83.2062 73.5618L80.0823 75.3768C80.1407 75.3281 80.1991 75.2892 80.2623 75.2503Z" fill="white" stroke="#454CEE" stroke-width="0.75" stroke-miterlimit="10"/>
<path d="M81.1575 76.7879L84.2814 74.9729C84.1354 75.0556 84.0186 75.1967 83.9407 75.3816C83.9261 75.4157 83.9115 75.4498 83.8969 75.4887C83.6488 76.2915 84.111 77.5567 84.9334 78.3157C85.0842 78.452 85.2351 78.5639 85.381 78.6515C85.5562 78.7537 85.7314 78.8169 85.892 78.8461C86.1158 78.885 86.3153 78.851 86.4856 78.7585L83.3617 80.5735C83.1963 80.6708 82.9919 80.7 82.7681 80.6611C82.6075 80.6368 82.4323 80.5686 82.2572 80.4664C82.1063 80.3789 81.9555 80.2669 81.8095 80.1307C80.9872 79.3716 80.5249 78.1065 80.7731 77.3036C80.7828 77.2696 80.8023 77.2307 80.8169 77.1966C80.8947 77.0068 81.0115 76.8706 81.1575 76.7879Z" fill="#454CEE" stroke="#454CEE" stroke-width="0.75" stroke-linejoin="round"/>
<path d="M85.3276 75.0508C84.2863 75.6542 83.245 76.2624 82.2037 76.8658C82.0967 76.8074 81.9945 76.7636 81.8923 76.7344L85.0162 74.9194C85.1184 74.9486 85.2206 74.9924 85.3276 75.0508Z" fill="white" stroke="#454CEE" stroke-width="0.75" stroke-miterlimit="10"/>
<path d="M85.3275 75.0508H85.3324L82.2085 76.8706H82.2036C83.2449 76.2624 84.2862 75.6541 85.3275 75.0508Z" fill="white" stroke="#454CEE" stroke-width="0.75" stroke-miterlimit="10"/>
<path d="M82.2085 76.8706L85.3324 75.0557C85.3324 75.0557 85.3616 75.0751 85.381 75.08L82.2572 76.895C82.2572 76.895 82.228 76.8755 82.2085 76.8706Z" fill="white" stroke="#454CEE" stroke-width="0.75" stroke-miterlimit="10"/>
<path d="M83.3618 80.5687C83.5369 80.4665 83.6732 80.2962 83.7462 80.048C83.9943 79.25 83.5272 77.9849 82.7097 77.2259C82.6416 77.1626 82.5784 77.1042 82.5054 77.0556C82.4227 76.9923 82.3351 76.9339 82.2572 76.8852C82.2378 76.8755 82.228 76.8658 82.2086 76.8609L82.1842 76.8463C82.1502 76.822 82.1112 76.8123 82.0723 76.7928C82.0626 76.7928 82.0528 76.7831 82.048 76.7831C82.0237 76.7685 81.9993 76.7587 81.975 76.7539C81.9507 76.7393 81.9215 76.7295 81.8971 76.7295C81.8825 76.7295 81.8679 76.7198 81.8534 76.7149C81.8193 76.7052 81.7804 76.6955 81.7512 76.6906C81.5614 76.6614 81.3765 76.676 81.2257 76.749C81.2013 76.7587 81.1819 76.7733 81.1575 76.7879C81.1283 76.8025 81.0943 76.822 81.0699 76.8463C80.9678 76.929 80.885 77.0458 80.8218 77.1918C80.8072 77.2259 80.7926 77.2648 80.7829 77.2988C80.5347 78.1017 80.997 79.3668 81.8144 80.121C81.9653 80.2573 82.1161 80.3741 82.267 80.4568C82.4421 80.559 82.6173 80.6271 82.7779 80.6514C82.88 80.6709 82.9774 80.6709 83.065 80.6514C83.0893 80.6514 83.1233 80.6514 83.1477 80.6368C83.1623 80.6368 83.172 80.6368 83.1817 80.6271C83.2109 80.6271 83.2401 80.6076 83.2693 80.5979C83.2985 80.5882 83.3277 80.5736 83.3569 80.559C83.3569 80.559 83.3601 80.559 83.3666 80.559" fill="white"/>
<path d="M83.3618 80.5687C83.5369 80.4665 83.6732 80.2962 83.7462 80.048C83.9943 79.25 83.5272 77.9849 82.7097 77.2259C82.6416 77.1626 82.5784 77.1042 82.5054 77.0556C82.4227 76.9923 82.3351 76.9339 82.2572 76.8852C82.2378 76.8755 82.228 76.8658 82.2086 76.8609L82.1842 76.8463C82.1502 76.822 82.1112 76.8123 82.0723 76.7928C82.0626 76.7928 82.0528 76.7831 82.048 76.7831C82.0237 76.7685 81.9993 76.7587 81.975 76.7539C81.9507 76.7393 81.9215 76.7295 81.8971 76.7295C81.8825 76.7295 81.8679 76.7198 81.8534 76.7149C81.8193 76.7052 81.7804 76.6955 81.7512 76.6906C81.5614 76.6614 81.3765 76.676 81.2257 76.749C81.2013 76.7587 81.1819 76.7733 81.1575 76.7879C81.1283 76.8025 81.0943 76.822 81.0699 76.8463C80.9678 76.929 80.885 77.0458 80.8218 77.1918C80.8072 77.2259 80.7926 77.2648 80.7829 77.2988C80.5347 78.1017 80.997 79.3668 81.8144 80.121C81.9653 80.2573 82.1161 80.3741 82.267 80.4568C82.4421 80.559 82.6173 80.6271 82.7779 80.6514C82.88 80.6709 82.9774 80.6709 83.065 80.6514C83.0893 80.6514 83.1233 80.6514 83.1477 80.6368C83.1623 80.6368 83.172 80.6368 83.1817 80.6271C83.2109 80.6271 83.2401 80.6076 83.2693 80.5979C83.2985 80.5882 83.3277 80.5736 83.3569 80.559C83.3569 80.559 83.3601 80.559 83.3666 80.559" stroke="#454CEE" stroke-width="0.75" stroke-miterlimit="10"/>
<path d="M85.0163 79.6102C84.9628 79.2695 84.8654 78.9192 84.7389 78.5689C84.52 77.9801 84.2086 77.3962 83.8144 76.8707C83.6636 76.6663 83.4884 76.4668 83.3132 76.2819C83.2986 76.2673 83.2889 76.2576 83.2792 76.2478C83.211 76.1797 83.1478 76.1213 83.0797 76.0581C82.997 75.9754 82.9045 75.8975 82.8218 75.8343C82.6418 75.6883 82.4568 75.5618 82.2817 75.4596C82.1308 75.3769 81.9849 75.3039 81.8389 75.2455C81.5469 75.1287 81.2647 75.0703 81.0068 75.0703C80.9387 75.0703 80.8754 75.0703 80.8073 75.0849C80.7635 75.0849 80.7197 75.0995 80.6759 75.1092C80.6613 75.1092 80.6516 75.1092 80.637 75.119C80.603 75.1287 80.564 75.1384 80.5348 75.1482C80.5105 75.1482 80.4959 75.1628 80.4716 75.1725C80.4716 75.1725 80.4472 75.1822 80.4424 75.1822C80.3937 75.2066 80.3451 75.226 80.3013 75.2552C80.2283 75.2941 80.165 75.3379 80.1018 75.3915C79.8779 75.5764 79.6979 75.8537 79.5811 76.2041C79.1335 77.6589 79.9753 79.9556 81.4593 81.3278C81.727 81.576 81.9995 81.7803 82.2671 81.9312C83.0797 82.4032 83.8485 82.4421 84.3837 82.0577C84.3935 82.048 84.4032 82.0431 84.4081 82.0382C84.4664 81.9944 84.52 81.9458 84.5735 81.8874L84.5881 81.8728C84.6319 81.8241 84.6708 81.7755 84.7146 81.7171C84.7243 81.7025 84.7341 81.6927 84.7389 81.683C84.7827 81.6198 84.8216 81.5565 84.8606 81.4786C84.8606 81.4786 84.8606 81.4786 84.8606 81.4689C84.8946 81.3959 84.9287 81.3132 84.9579 81.2256C84.9579 81.211 84.9676 81.1964 84.9725 81.1818C84.992 81.1234 85.0017 81.065 85.0163 81.0067C85.1185 80.5882 85.1185 80.1211 85.0406 79.6296L85.0163 79.6102Z" fill="#FF6E80" stroke="#454CEE" stroke-width="0.75" stroke-linejoin="round"/>
<path d="M83.3522 80.5736C83.323 80.5931 83.2938 80.6028 83.2646 80.6125C83.2354 80.6271 83.2062 80.6369 83.177 80.6417C83.1624 80.6417 83.1527 80.6515 83.1429 80.6515C83.1186 80.6612 83.0846 80.6661 83.0602 80.6661C82.9726 80.6807 82.8753 80.6807 82.7731 80.6661C82.6126 80.6417 82.4423 80.5736 82.2622 80.4714C82.1114 80.3887 81.9605 80.2719 81.8097 80.1357C80.9874 79.3766 80.53 78.1115 80.7781 77.3135C80.7879 77.2794 80.8025 77.2405 80.8171 77.2064C80.8803 77.0605 80.963 76.9437 81.0652 76.861C81.0896 76.8366 81.1236 76.8172 81.1528 76.8026C81.1771 76.7831 81.1966 76.7734 81.2209 76.7636C81.3766 76.6907 81.5567 76.6761 81.7464 76.7053C81.7756 76.7053 81.8146 76.7199 81.8486 76.7296C81.8632 76.7296 81.8778 76.7393 81.8924 76.7442C81.9168 76.7442 81.9459 76.7588 81.9703 76.7685C81.9946 76.7783 82.0189 76.788 82.0433 76.7977C82.0433 76.7977 82.0579 76.7977 82.0676 76.8074C82.1017 76.8269 82.1406 76.8366 82.1795 76.861L82.2038 76.8756C82.2038 76.8756 82.233 76.895 82.2525 76.8999C82.3303 76.9486 82.4179 77.0069 82.5007 77.0702C82.5736 77.1189 82.6369 77.1773 82.705 77.2405C83.5273 77.9996 83.9896 79.2647 83.7414 80.0627C83.6685 80.306 83.5273 80.4812 83.357 80.5833C83.357 80.5833 83.3538 80.5833 83.3473 80.5833L83.3522 80.5736Z" fill="#454CEE" stroke="#454CEE" stroke-width="0.75" stroke-linejoin="round"/>
<path d="M82.0723 76.8025C82.1161 76.822 82.1647 76.8463 82.2134 76.8706C82.1647 76.8463 82.1209 76.822 82.0723 76.8025Z" fill="white" stroke="#454CEE" stroke-width="0.75" stroke-miterlimit="10"/>
<path d="M82.0481 76.7878C82.0481 76.7878 82.0627 76.7927 82.0724 76.7976C82.0724 76.7976 82.0578 76.7927 82.0481 76.7878Z" fill="white" stroke="#454CEE" stroke-width="0.75" stroke-miterlimit="10"/>
<path d="M82.048 76.7879C81.9945 76.7636 81.941 76.7441 81.8923 76.7295C81.9459 76.7441 81.9945 76.7636 82.048 76.7879Z" fill="white" stroke="#454CEE" stroke-width="0.75" stroke-miterlimit="10"/>
<path d="M87.381 80.2913L84.2571 82.1063C84.5636 81.9311 84.8021 81.6294 84.9432 81.2061L88.067 79.3911C87.9259 79.8144 87.6875 80.1161 87.381 80.2913Z" fill="white" stroke="#454CEE" stroke-width="0.75" stroke-miterlimit="10"/>
<path d="M84.948 81.1624L88.0718 79.3474L88.0621 79.3912L84.9382 81.211L84.948 81.1624Z" fill="white" stroke="#454CEE" stroke-width="0.75" stroke-miterlimit="10"/>
<path d="M70.5012 44.5808L73.63 42.761L84.9528 73.4159L81.8289 75.2357L70.5012 44.5808Z" fill="#D267D2" stroke="#454CEE" stroke-width="0.75" stroke-linejoin="round"/>
<path d="M80.2622 75.2504L83.3861 73.4354C83.8094 73.1873 84.3593 73.1824 84.9529 73.4208C85.0989 73.4792 85.2448 73.5474 85.3957 73.6349C85.6633 73.7907 85.9309 73.9902 86.1986 74.2383C86.4662 74.4865 86.7192 74.7687 86.9382 75.0606L83.8143 76.8756C83.5953 76.5837 83.3423 76.3014 83.0747 76.0533C82.807 75.8051 82.5346 75.6056 82.2718 75.4499C82.121 75.3623 81.975 75.2942 81.829 75.2358C81.2354 75.0023 80.6855 75.0071 80.2622 75.2504Z" fill="#D267D2" stroke="#454CEE" stroke-width="0.75" stroke-linejoin="round"/>
<path d="M83.8142 76.8706L86.9381 75.0557C87.9453 76.4084 88.4416 78.1552 88.0718 79.3474L84.948 81.1623C85.3178 79.975 84.8214 78.2233 83.8142 76.8706Z" fill="white" stroke="#454CEE" stroke-width="0.75" stroke-miterlimit="10"/>
<path d="M65.4895 35.9585L72.2044 44.43L70.5013 44.5759L81.8291 75.2308C81.1478 74.9583 80.5201 75.007 80.0822 75.3719L67.7716 44.8144L65.9712 44.9701L65.4895 35.9585Z" fill="#FF98FF" stroke="#454CEE" stroke-width="0.75" stroke-linejoin="round"/>
<path d="M65.4895 35.9585L68.6183 34.1436L75.3331 42.615L72.2092 44.4348L65.4895 35.9585Z" fill="#D267D2" stroke="#454CEE" stroke-width="0.75" stroke-linejoin="round"/>
<path d="M83.8142 76.8706L86.943 75.0557L102.407 77.0993L99.2828 78.9192L83.8142 76.8706Z" fill="#D267D2" stroke="#454CEE" stroke-width="0.75" stroke-linejoin="round"/>
<path d="M106.626 82.6563L109.749 80.8364L104.723 85.3081L101.599 87.128L106.626 82.6563Z" fill="#D267D2" stroke="#454CEE" stroke-width="0.75" stroke-linejoin="round"/>
<path d="M98.5967 76.5007L101.725 74.6809L109.749 80.8362L106.625 82.656L98.5967 76.5007Z" fill="#D267D2" stroke="#454CEE" stroke-width="0.75" stroke-linejoin="round"/>
<path d="M98.5969 76.5007L106.621 82.656L101.594 87.1278L100.855 84.5051L84.9336 81.2109C85.318 79.975 84.8217 78.2281 83.8096 76.8754L99.2733 78.9191L98.592 76.5007H98.5969Z" fill="#FF98FF" stroke="#454CEE" stroke-width="0.75" stroke-linejoin="round"/>
<path d="M74.3648 61.3193C74.3842 61.2609 74.3988 61.1976 74.4086 61.1393C74.4621 60.7986 74.6421 59.6114 74.5837 58.8864C74.5156 58.03 74.5399 57.232 74.2334 56.8865C73.9268 56.541 73.776 57.1347 73.7273 57.811C73.6787 58.4874 73.3916 58.7404 73.3916 58.7404L72.0535 55.4219C72.0535 55.4219 71.6642 56.8232 71.6156 57.4169C71.5669 58.0105 71.3869 59.2513 71.6156 59.9763C71.8443 60.7013 71.8783 61.4458 71.8783 61.4458L71.4988 62.4725L73.8733 62.9348L74.3648 61.329V61.3193Z" fill="white" stroke="#454CEE" stroke-width="0.75" stroke-miterlimit="10"/>
<path d="M71.4939 62.2197C71.4939 62.2197 71.6447 61.7331 71.7031 61.6747C71.7615 61.6163 72.36 61.5093 73.2067 61.7866C74.0485 62.064 74.2723 62.6089 74.2723 62.7938C74.2723 62.9787 74.1069 63.6843 74.1069 63.6843L71.4939 62.2245V62.2197Z" fill="white" stroke="#454CEE" stroke-width="0.75" stroke-miterlimit="10"/>
<path d="M68.4627 67.7472C68.4627 67.7472 70.7447 62.5164 71.2411 62.239C71.7374 61.9617 73.9903 62.3558 74.2676 63.6209C74.545 64.886 71.1243 75.6153 70.5015 76.496C70.0441 77.1431 64.1223 74.7297 64.1223 74.7297C64.1223 74.7297 68.122 68.3943 68.4627 67.7472Z" fill="#EFB44B" stroke="#454CEE" stroke-width="0.75" stroke-miterlimit="10"/>
<path d="M89.1426 83.6829C89.1426 83.6829 88.8944 82.9384 88.7873 82.5978C88.6803 82.2572 88.6316 80.9824 88.9674 80.5785C89.3031 80.1746 89.8676 82.228 89.8676 82.228L92.9331 82.8655C92.9331 82.8655 92.5243 83.8289 92.0815 84.1598C91.6387 84.4906 91.4052 84.6561 91.4052 84.6561L91.2251 85.1767L89.0598 84.1938L89.1426 83.6878V83.6829Z" fill="white" stroke="#454CEE" stroke-width="0.75" stroke-miterlimit="10"/>
<path d="M88.6267 84.5392C88.6267 84.5392 88.7776 84.0527 88.8359 83.9943C88.8943 83.9359 89.4928 83.8288 90.3395 84.1062C91.1813 84.3835 91.4051 84.9285 91.4051 85.1134C91.4051 85.2983 91.2397 86.0039 91.2397 86.0039L88.6267 84.5441V84.5392Z" fill="white" stroke="#454CEE" stroke-width="0.75" stroke-miterlimit="10"/>
<path d="M73.8782 135.806C73.8782 135.806 74.3842 137.407 75.0849 137.855C75.7856 138.302 78.0336 138.39 79.2111 136.648C80.3887 134.906 80.4179 133.451 81.683 131.962C82.9481 130.473 83.3666 128.483 82.7486 127.558C82.1307 126.634 80.2232 126.293 77.7514 129.271C75.2795 132.244 73.8782 135.811 73.8782 135.811V135.806Z" fill="#454CEE" stroke="#454CEE" stroke-width="0.75" stroke-linejoin="round"/>
<path d="M63.879 145.036C63.879 145.036 66.5746 145.747 68.2582 145.747C69.9418 145.747 71.0026 147.43 70.0732 148.457C69.0611 149.576 67.5089 150.009 64.3266 150.345C61.1443 150.681 60.0252 151.279 58.5995 150.905C57.1787 150.53 58.5995 145.479 58.5995 145.479L63.8741 145.031L63.879 145.036Z" fill="#454CEE" stroke="#454CEE" stroke-width="0.75" stroke-linejoin="round"/>
<path d="M61.8403 99.8765C61.8403 99.8765 60.5703 105.38 62.9497 108.893L68.2583 119.875C68.2583 119.875 72.0002 134.302 73.5719 136.098C73.5719 136.098 76.5644 136.249 77.9122 133.855C79.26 131.461 78.8951 131.033 77.9122 128.094C75.2944 120.274 75.5182 116.493 75.2165 114.474C74.9148 112.455 72.1462 99.8813 72.1462 99.8813H61.8354L61.8403 99.8765Z" fill="#D7E4F9" stroke="#454CEE" stroke-width="0.75" stroke-miterlimit="10"/>
<path d="M65.2608 101.594C65.2608 101.594 64.7451 106.587 66.6865 110.552L64.5115 125.203C64.5115 125.203 58.6725 134.969 58.074 146.715C58.074 146.715 59.5289 148.097 62.4143 147.017C64.2098 146.345 64.492 145.835 65.6307 143.124C68.2485 136.915 71.9173 130.702 73.8637 127.335C75.81 123.967 78.4279 100.168 78.4279 100.168L65.256 101.589L65.2608 101.594Z" fill="white" stroke="#454CEE" stroke-width="0.75" stroke-miterlimit="10"/>
<path d="M62.0154 96.0664L63.4897 97.8035L65.9178 95.6868L63.6454 93.6042L62.0154 96.0664Z" fill="white" stroke="#454CEE" stroke-width="0.75" stroke-miterlimit="10"/>
<path d="M64.2973 74.063C64.2973 74.063 61.2562 74.7296 61.3146 80.5151C61.3486 83.9553 64.4676 85.2204 66.1755 86.5877C67.8835 87.955 75.6932 91.0302 76.1895 90.6263C76.6809 90.2273 76.17 87.5025 75.2406 86.9818C74.3113 86.4612 70.7689 80.7681 70.511 80.7438C70.2531 80.7243 67.3628 79.6149 67.3628 79.6149L64.3071 74.0581L64.2973 74.063Z" fill="#EFB44B" stroke="#454CEE" stroke-width="0.75" stroke-miterlimit="10"/>
<path d="M64.1223 103.978C64.1223 103.978 66.3606 106.251 70.0587 106.095C73.7567 105.939 66.1027 97.8328 66.1027 97.8328L64.1223 103.973V103.978Z" fill="white" stroke="#454CEE" stroke-width="0.75" stroke-miterlimit="10"/>
<path d="M80.0774 86.1011L79.5957 88.6995L79.4594 89.4245L79.0215 91.7747C79.0215 91.8039 79.0118 91.8331 79.0021 91.8623C78.7588 93.2199 78.5933 94.5872 78.5203 95.9594C78.4863 96.4751 78.4668 96.9909 78.4619 97.5116C78.4522 98.2025 78.4717 98.8983 78.5009 99.5942C78.6177 101.784 78.7247 104.129 78.7004 104.382C78.642 104.913 78.4036 106.027 77.6153 107.019C76.9341 107.876 75.8392 108.645 74.0973 108.864C73.9513 108.883 73.8053 108.898 73.6496 108.907C69.499 109.199 66.1075 106.645 66.1075 106.645L66.1416 105.312L66.2486 101.487L66.2876 99.964L65.7815 101.536L65.3679 102.815L64.8084 104.538L64.5407 105.365C64.5407 105.365 62.5019 103.681 61.5142 102.441C61.2563 102.115 61.0714 101.818 61.013 101.599C60.7405 100.524 61.0227 98.5237 62.2489 94.5385C63.2561 91.2833 63.2999 88.0134 62.9107 84.1256C62.8279 83.2449 62.716 82.335 62.5895 81.3861C61.9862 76.8609 63.1296 74.642 64.278 74.0581C64.278 74.0581 64.2877 74.0581 64.2926 74.0581C64.4045 74.0046 64.5115 73.9657 64.6186 73.9365C64.6624 73.9268 64.7013 73.917 64.7451 73.9122C66.02 73.7419 68.701 74.9535 68.701 74.9535C68.774 74.9778 69.538 75.1822 70.4771 75.4838C70.6133 75.5325 70.7544 75.5763 70.9004 75.6249C72.1753 76.058 73.6204 76.6322 74.0437 77.1285C74.2919 77.4156 74.798 77.9216 75.3819 78.4958C75.6641 78.7683 75.9609 79.0554 76.2626 79.3376C77.3866 80.4129 78.4863 81.425 78.4863 81.425L78.5836 81.717L80.0725 86.0914L80.0774 86.1011Z" fill="#FCCC54" stroke="#454CEE" stroke-width="0.75" stroke-miterlimit="10"/>
<path d="M79.5567 67.9126C79.5567 67.9126 79.2502 71.7664 78.7539 73.7808C78.2576 75.7953 75.9171 75.3136 75.9171 75.3136L75.3526 78.6808C75.3526 78.6808 71.5086 78.564 70.3554 76.0581L70.8566 73.6641C70.8566 73.6641 68.1755 70.2288 69.4552 66.993C70.735 63.762 73.6301 63.1246 75.6981 63.3582C77.7661 63.5966 79.7757 65.0418 79.5567 67.9077V67.9126Z" fill="white" stroke="#454CEE" stroke-width="0.75" stroke-miterlimit="10"/>
<path d="M79.5617 68.2533C79.5617 68.2533 79.3525 69.3141 78.6129 69.4844C77.8732 69.6547 77.8927 69.606 77.8927 69.606L77.7467 71.0025L76.9731 71.1777C76.9731 71.1777 77.0217 69.9564 76.4865 69.7958C75.9512 69.6352 75.5766 71.3334 75.9172 71.8443C76.2578 72.3504 76.6714 72.2628 76.6714 72.2628C76.6714 72.2628 75.6398 74.9974 74.1363 75.3477C72.6327 75.6932 71.0027 74.6957 70.3555 74.0145C69.9516 73.5863 69.8008 73.1338 69.3823 71.9611C69.1342 71.2653 68.4773 70.0975 68.4627 69.1243C68.4238 66.5113 69.5234 66.3751 69.5234 66.3751C69.5234 66.3751 69.1828 64.8375 71.0367 63.2901C72.8906 61.7428 75.815 61.8255 77.3672 62.9495C78.9243 64.0735 79.2357 63.3242 80.8414 63.9713C81.401 64.2 82.0676 65.616 81.6346 66.6281C81.4643 67.0222 80.9582 68.5599 79.5617 68.2582V68.2533Z" fill="#454CEE" stroke="#454CEE" stroke-width="0.75" stroke-linejoin="round"/>
<path d="M76.2917 79.3621C76.2917 79.3621 76.1311 77.5422 76.0289 77.2746C75.9267 77.007 75.4499 76.8221 73.2311 76.1993C71.0122 75.5764 70.4818 74.4962 70.0828 74.3113C69.6838 74.1215 68.7058 74.9633 68.7058 74.9633C68.7058 74.9633 69.4211 77.2503 72.3941 78.1943C75.3672 79.1382 76.3014 79.3621 76.3014 79.3621H76.2917Z" fill="white" stroke="#454CEE" stroke-width="0.75" stroke-miterlimit="10"/>
<path d="M66.6476 98.7037H66.6379C66.5795 98.6891 66.5406 98.6307 66.5503 98.5724C66.5649 98.5091 67.8398 91.9499 68.0149 85.9211C68.1852 79.8583 69.4114 77.4351 69.465 77.3378C69.4942 77.2842 69.5623 77.2599 69.6158 77.2891C69.6693 77.3183 69.6937 77.3864 69.6645 77.4399C69.6499 77.4643 68.4139 79.9264 68.2388 85.9309C68.0685 91.9743 66.7839 98.5529 66.7741 98.621C66.7644 98.6794 66.7109 98.7135 66.6525 98.7086L66.6476 98.7037Z" fill="#EFB44B"/>
<path d="M79.8292 88.8504L79.6443 91.2298C79.6151 91.6094 79.5908 91.9938 79.5762 92.3733C79.3816 92.203 79.1918 92.0375 79.002 91.8624C78.7588 93.2199 78.5933 94.5873 78.5203 95.9594C76.9487 94.3488 76.0825 92.383 75.6057 90.6119C75.1969 89.0888 75.0802 87.7167 75.0461 86.8408C75.0461 86.69 75.0364 86.5586 75.0364 86.4369C75.0364 86.0671 75.051 85.8579 75.051 85.8579L79.5957 88.7044L79.8292 88.8504Z" fill="#454CEE" stroke="#454CEE" stroke-width="0.75" stroke-linejoin="round"/>
<path d="M91.3419 85.853C91.0645 84.5878 88.8117 84.1937 88.3153 84.4711C87.9163 84.69 86.3933 88.0475 85.7851 89.4099C84.6562 88.0085 81.2112 83.7752 79.732 82.4858C79.3719 82.1744 78.9875 81.9116 78.5885 81.7267C76.9974 80.9628 75.2554 81.3034 74.8175 83.746C74.652 84.6414 74.7493 85.5464 75.0413 86.432C75.1045 86.6169 75.1727 86.8018 75.2554 86.9867C75.4987 87.5755 75.8296 88.1594 76.2188 88.7287C76.9682 89.8284 77.9462 90.8794 79.007 91.8526C79.1967 92.0277 79.3865 92.1932 79.5811 92.3635C82.452 94.8548 83.5127 96.3924 85.4348 96.9033C86.8507 97.278 87.9942 96.6308 88.5684 95.4241C88.5684 95.4241 88.5684 95.4241 88.5732 95.4192C89.1961 94.5385 91.6144 87.1083 91.337 85.8432L91.3419 85.853Z" fill="#FCCC54" stroke="#454CEE" stroke-width="0.75" stroke-miterlimit="10"/>
</svg>
