<svg width="86" height="86" viewBox="0 0 86 86" fill="none" xmlns="http://www.w3.org/2000/svg">
<g clip-path="url(#clip0_27_1096)">
<path d="M43 43H0C33.2455 42.9142 42.9266 33.7994 43 0.764001V0C43.0006 0.256077 43.0006 0.510742 43 0.764001V43Z" fill="#454CEE"/>
<path d="M43.0005 43H86.0005C52.755 42.9142 43.0739 33.7994 43.0005 0.764001V0C42.9999 0.256077 42.9999 0.510742 43.0005 0.764001V43Z" fill="#454CEE"/>
<path d="M43 43H0C33.2455 43.0858 42.9266 52.2006 43 85.236V86C43.0006 85.7439 43.0006 85.4893 43 85.236V43Z" fill="#454CEE"/>
<path d="M43.0005 43H86.0005C52.755 43.0858 43.0739 52.2006 43.0005 85.236V86C42.9999 85.7439 42.9999 85.4893 43.0005 85.236V43Z" fill="#454CEE"/>
</g>
<defs>
<clipPath id="clip0_27_1096">
<rect width="86" height="86" fill="white"/>
</clipPath>
</defs>
</svg>
