<svg width="324" height="240" viewBox="0 0 324 240" fill="none" xmlns="http://www.w3.org/2000/svg">
<path fill-rule="evenodd" clip-rule="evenodd" d="M76.1579 123.742C107.342 142.199 139.293 160.214 170.713 178.539C170.993 178.701 171.464 178.694 171.773 178.524C194.477 165.749 215.958 153.41 238.324 140.435C238.625 140.258 238.655 139.993 238.39 139.838C207.183 121.432 175.122 103.55 143.916 85.1512C143.651 84.9963 143.187 85.0184 142.878 85.1955C120.491 98.0959 98.4715 110.162 76.1873 123.122C75.8855 123.299 75.8707 123.579 76.1579 123.749V123.742Z" fill="#B5BCC6"/>
<path fill-rule="evenodd" clip-rule="evenodd" d="M231.565 160.886L165.854 198.923L211.497 225.336L277.209 187.306L231.565 160.886Z" fill="#B5BCC6"/>
<path fill-rule="evenodd" clip-rule="evenodd" d="M286.528 171.1L305.264 160.258L324 149.41L305.264 138.568L286.528 127.727L267.793 138.568L249.057 149.41L267.793 160.258L286.528 171.1Z" fill="#B5BCC6"/>
<path fill-rule="evenodd" clip-rule="evenodd" d="M106.407 87.0479L118.09 80.2878L129.766 73.5276L118.09 66.7675L106.407 60.0073L94.7241 66.7675L83.0483 73.5276L94.7241 80.2878L106.407 87.0479Z" fill="#B5BCC6"/>
<path fill-rule="evenodd" clip-rule="evenodd" d="M12.9715 97.3284L6.48574 101.077L0 104.834L6.48574 108.59L12.9715 112.339L19.4572 108.59L25.943 104.834L19.4572 101.077L12.9715 97.3284Z" fill="#B5BCC6"/>
<path fill-rule="evenodd" clip-rule="evenodd" d="M50.5314 115.771L58.7251 111.026L66.9262 106.28L58.7251 101.542L50.5314 96.7969L42.3378 101.542L34.1367 106.28L42.3378 111.026L50.5314 115.771Z" fill="#B5BCC6"/>
<path fill-rule="evenodd" clip-rule="evenodd" d="M286.234 207.476L275.258 213.83L264.281 220.185L275.258 226.531L286.234 232.886L297.211 226.531L308.187 220.185L297.211 213.83L286.234 207.476Z" fill="#B5BCC6"/>
<path fill-rule="evenodd" clip-rule="evenodd" d="M73.6401 144.199L58.4306 135.395L43.2285 144.199L28.0264 152.996L43.2285 161.794L58.4306 170.591L73.6401 161.794L88.8422 152.996L73.6401 144.199Z" fill="#B5BCC6"/>
<path fill-rule="evenodd" clip-rule="evenodd" d="M114.873 190.089L115.116 190.214L116.949 191.144L121.043 193.218L142.171 204.421L146.367 206.539C146.514 206.613 146.662 206.672 146.801 206.723C147.361 206.945 147.957 207.019 148.517 206.989C150.019 206.908 151.417 206.059 152.139 204.635C152.632 203.661 152.713 202.598 152.455 201.631C152.257 200.738 151.741 199.934 151.005 199.351C150.769 199.144 150.512 198.974 150.232 198.841C143.202 195.269 129.06 187.594 122.022 184.037L120.638 183.351L120.446 183.255C120.689 182.598 120.873 181.816 120.939 181.159C120.962 180.775 120.962 180.391 120.939 180.007V179.638C120.962 179.262 120.962 178.871 120.939 178.487V178.192V178.207V178.221V178.236V178.251V178.266V178.281V178.295V178.31V178.325V178.34V178.354V178.369L120.954 178.236V178.221C120.976 177.845 120.976 177.454 120.954 177.07C120.697 174.037 118.569 171.033 114.579 168.723C106.039 163.771 92.1328 163.771 83.5931 168.723C79.7134 170.967 77.6006 173.86 77.2472 176.804L77.2178 177.092V178.281V181.151L77.2472 181.439C77.6006 184.376 79.7134 187.277 83.5931 189.52C92.0665 194.435 105.804 194.583 114.358 189.749C114.513 189.882 114.682 190 114.866 190.111L114.873 190.089ZM114.056 189.447H114.049V189.432L114.019 189.395L114.049 189.424V189.439H114.056V189.447Z" fill="#B5BCC6"/>
<path fill-rule="evenodd" clip-rule="evenodd" d="M113.762 212.9L106.496 217.107L99.2222 221.321L106.496 225.528L113.762 229.734L121.035 225.528L128.309 221.321L121.035 217.107L113.762 212.9Z" fill="#B5BCC6"/>
<path fill-rule="evenodd" clip-rule="evenodd" d="M159.25 218.723L150.063 224.037L140.868 229.358L150.063 234.679L159.25 240L168.438 234.679L177.633 229.358L168.438 224.037L159.25 218.723Z" fill="#B5BCC6"/>
<path fill-rule="evenodd" clip-rule="evenodd" d="M75.937 117.041L75.9591 113.668L81.4289 113.712C102.049 101.816 123.111 90.1847 143.739 78.2954C144.048 78.1183 144.512 78.0961 144.777 78.2511C174.151 95.5721 203.502 112.908 232.876 130.236L238.566 130.281L238.537 133.801H238.53C238.508 133.897 238.427 134 238.294 134.074C215.929 147.048 193.947 159.033 171.236 171.808C170.934 171.978 170.455 171.985 170.183 171.823C138.755 153.498 107.313 135.838 76.1284 117.38C75.9739 117.284 75.9076 117.159 75.9297 117.041H75.937Z" fill="#3B3FBD"/>
<path fill-rule="evenodd" clip-rule="evenodd" d="M265.879 51.5794L178.582 0.952149C177.993 0.605285 177.294 0.287942 176.595 0.398643C176.035 0.487204 175.579 0.870968 175.27 1.33591C174.784 2.06654 174.474 2.87835 174.143 3.69016C174.003 4.02964 173.863 4.36912 173.731 4.70861C173.554 5.15141 173.37 5.58683 173.194 6.02964C172.973 6.561 172.759 7.09975 172.538 7.63111C172.288 8.25104 172.03 8.87097 171.78 9.48351C171.493 10.1772 171.213 10.8783 170.926 11.5721C170.61 12.3396 170.3 13.1071 169.991 13.8747C169.652 14.7012 169.314 15.5352 168.975 16.3617C168.614 17.2474 168.254 18.133 167.893 19.0186C167.51 19.9485 167.135 20.8857 166.752 21.8156C166.354 22.7898 165.957 23.7566 165.559 24.7307C165.147 25.7344 164.742 26.7381 164.33 27.7418C163.91 28.775 163.491 29.8009 163.071 30.8267C162.644 31.8747 162.217 32.9226 161.79 33.9632C161.356 35.0186 160.929 36.0739 160.494 37.1293C160.06 38.1846 159.633 39.2473 159.199 40.3027C158.772 41.3581 158.337 42.406 157.91 43.4614C157.483 44.502 157.064 45.5425 156.637 46.5831C156.217 47.6016 155.805 48.62 155.385 49.6385C154.98 50.6274 154.576 51.6237 154.171 52.6127C153.78 53.5647 153.39 54.5241 153 55.4761C152.625 56.3913 152.257 57.299 151.881 58.2141C151.528 59.0776 151.182 59.9337 150.828 60.7972C150.497 61.6016 150.173 62.3986 149.842 63.2031C149.54 63.9411 149.238 64.6791 148.944 65.4097C148.671 66.0739 148.406 66.7381 148.134 67.3949C147.898 67.978 147.655 68.561 147.42 69.1366C147.221 69.6311 147.015 70.1256 146.816 70.6127C146.654 71.0112 146.492 71.4097 146.33 71.8008C146.213 72.0961 146.095 72.3839 145.97 72.6791C145.896 72.8562 145.822 73.0407 145.749 73.2252C145.719 73.2842 145.697 73.3507 145.675 73.4097C144.909 75.9854 147.435 78.4577 149.614 79.7492L237.41 129.506C239.597 130.79 240.628 128.841 240.628 128.841L269.051 60.192C271.253 54.8045 268.22 52.9374 265.879 51.5573V51.5794Z" fill="#3B3FBD"/>
<path fill-rule="evenodd" clip-rule="evenodd" d="M267.226 53.1884C266.622 52.3323 265.849 51.5721 265.01 51.0703L177.633 0.487247C177.353 0.317505 177.051 0.184664 176.735 0.088723C174.887 -0.457402 174.232 1.63854 173.724 2.89315C173.591 3.21787 173.459 3.5426 173.326 3.86732C173.15 4.29536 172.98 4.72341 172.804 5.15145C172.59 5.67544 172.377 6.19942 172.163 6.71603C171.913 7.32858 171.662 7.93374 171.42 8.54629C171.14 9.23263 170.853 9.92636 170.573 10.6127C170.264 11.3729 169.955 12.133 169.638 12.9005C169.299 13.7271 168.961 14.5537 168.629 15.3802C168.269 16.2658 167.908 17.1441 167.547 18.0297C167.164 18.9596 166.789 19.8895 166.406 20.8267C166.009 21.8009 165.611 22.7751 165.214 23.7419C164.801 24.7455 164.389 25.7566 163.977 26.7603C163.557 27.7935 163.138 28.8267 162.711 29.8599C162.284 30.9079 161.857 31.9633 161.422 33.0112C160.988 34.074 160.554 35.1367 160.119 36.192C159.685 37.2548 159.25 38.3175 158.816 39.3802C158.382 40.443 157.955 41.4983 157.52 42.5537C157.093 43.6016 156.666 44.6496 156.24 45.6902C155.82 46.716 155.4 47.7419 154.981 48.7677C154.576 49.764 154.163 50.7603 153.759 51.764C153.368 52.7234 152.971 53.6902 152.581 54.6496C152.205 55.5721 151.83 56.4872 151.454 57.4098C151.101 58.2806 150.748 59.1441 150.394 60.0149C150.063 60.8267 149.732 61.6312 149.4 62.443C149.099 63.1884 148.797 63.9264 148.488 64.6717C148.215 65.3433 147.943 66.0075 147.67 66.6791C147.427 67.2622 147.192 67.8526 146.949 68.443C146.743 68.9374 146.544 69.4393 146.338 69.9337C146.176 70.3323 146.014 70.7382 145.845 71.1367C145.727 71.4319 145.602 71.7271 145.484 72.0223C145.41 72.2068 145.337 72.3913 145.263 72.5684C145.241 72.6348 145.212 72.6939 145.189 72.7603C144.571 74.8415 146.728 77.2031 148.657 78.3396L235.835 129.668C237.764 130.805 238.537 129.971 239.354 128.207L267.756 58.3765C268.455 56.6644 268.271 54.7013 267.211 53.1884H267.226Z" fill="url(#paint0_linear_27_1190)"/>
<path fill-rule="evenodd" clip-rule="evenodd" d="M265.069 55.5277L236.166 125.875L148.465 74.5093L177.368 4.15503L265.069 55.5277Z" fill="#3B3FBD"/>
<path fill-rule="evenodd" clip-rule="evenodd" d="M170.72 168.804C139.293 150.48 107.35 132.472 76.1652 114.007C75.8781 113.838 75.8928 113.557 76.1946 113.38C98.4788 100.421 120.491 88.3542 142.885 75.4538C143.194 75.2767 143.658 75.2546 143.923 75.4096C175.13 93.8081 207.19 111.697 238.397 130.096C238.662 130.251 238.633 130.517 238.331 130.694C215.966 143.668 194.484 156.007 171.78 168.782C171.478 168.952 171 168.959 170.72 168.797V168.804Z" fill="url(#paint1_linear_27_1190)"/>
<path fill-rule="evenodd" clip-rule="evenodd" d="M137.209 145.624C130.539 141.661 123.678 137.808 117.016 133.845C116.758 133.69 116.788 133.424 117.082 133.255C120.94 131.004 129.516 126.081 133.381 123.838C133.676 123.668 134.125 123.653 134.382 123.808C141.096 127.801 148.061 131.646 154.782 135.639C155.039 135.793 155.01 136.052 154.716 136.222C150.806 138.443 142.134 143.373 138.218 145.594C137.916 145.764 137.467 145.779 137.209 145.624Z" fill="#3B3FBD"/>
<path fill-rule="evenodd" clip-rule="evenodd" d="M137.209 145.623C130.613 141.705 123.818 137.889 117.229 133.97C121.153 131.682 129.568 126.856 133.381 124.635C133.675 124.465 134.125 124.45 134.382 124.612C141.023 128.561 147.906 132.369 154.561 136.31C150.578 138.568 142.083 143.402 138.218 145.594C137.916 145.764 137.467 145.778 137.209 145.623Z" fill="#FEFFFF"/>
<path fill-rule="evenodd" clip-rule="evenodd" d="M223.247 125.55C224.572 124.782 226.707 124.79 228.024 125.55C229.342 126.317 229.335 127.557 228.01 128.317C226.684 129.085 224.55 129.085 223.232 128.317C221.914 127.55 221.921 126.31 223.247 125.543V125.55Z" fill="#3B3FBD"/>
<path fill-rule="evenodd" clip-rule="evenodd" d="M228.959 126.62C229.129 127.218 228.805 127.86 228.002 128.325C226.677 129.092 224.542 129.092 223.224 128.325C222.864 128.118 222.606 127.867 222.444 127.609C222.275 127.004 222.599 126.369 223.401 125.904C224.726 125.136 226.861 125.144 228.179 125.904C228.54 126.111 228.797 126.362 228.959 126.62Z" fill="#FF98FF"/>
<path fill-rule="evenodd" clip-rule="evenodd" d="M213.551 130.303C214.692 130.967 215.833 131.631 216.974 132.303C217.46 132.583 218.182 132.62 218.594 132.376C219.013 132.148 219.418 131.904 219.823 131.668C220.236 131.432 220.177 131.004 219.705 130.731C218.564 130.066 217.423 129.402 216.275 128.731C215.804 128.45 215.082 128.421 214.67 128.657C214.265 128.893 213.853 129.129 213.441 129.365C213.028 129.601 213.072 130.022 213.558 130.303H213.551Z" fill="#FF98FF"/>
<path fill-rule="evenodd" clip-rule="evenodd" d="M207.765 126.923C208.913 127.594 210.054 128.259 211.203 128.93C211.674 129.211 212.403 129.24 212.808 129.004C213.227 128.768 213.632 128.532 214.037 128.295C214.449 128.052 214.39 127.639 213.919 127.358C212.771 126.694 211.63 126.03 210.489 125.358C210.003 125.078 209.281 125.041 208.869 125.284C208.464 125.521 208.052 125.757 207.632 125.993C207.22 126.229 207.271 126.657 207.75 126.93L207.765 126.923Z" fill="#FF98FF"/>
<path fill-rule="evenodd" clip-rule="evenodd" d="M201.978 123.543C203.127 124.214 204.268 124.878 205.409 125.55C205.88 125.83 206.609 125.86 207.021 125.624C207.441 125.395 207.846 125.151 208.258 124.915C208.67 124.672 208.619 124.258 208.14 123.978C206.999 123.314 205.858 122.65 204.717 121.978C204.231 121.69 203.509 121.661 203.097 121.897C202.692 122.133 202.28 122.369 201.86 122.605C201.448 122.849 201.5 123.27 201.978 123.543Z" fill="#FF98FF"/>
<path fill-rule="evenodd" clip-rule="evenodd" d="M196.192 120.17C197.34 120.841 198.481 121.505 199.623 122.17C200.094 122.45 200.822 122.48 201.235 122.243C201.647 122.015 202.059 121.779 202.464 121.542C202.876 121.306 202.832 120.886 202.346 120.605C201.205 119.941 200.064 119.277 198.923 118.605C198.445 118.332 197.723 118.295 197.304 118.531C196.891 118.767 196.486 119.004 196.074 119.24C195.654 119.476 195.706 119.897 196.185 120.17H196.192Z" fill="#FF98FF"/>
<path fill-rule="evenodd" clip-rule="evenodd" d="M190.413 116.79C191.561 117.461 192.695 118.125 193.844 118.79C194.322 119.07 195.044 119.1 195.463 118.863C195.868 118.627 196.28 118.391 196.685 118.155C197.105 117.919 197.053 117.498 196.582 117.225C195.441 116.561 194.3 115.897 193.152 115.225C192.673 114.945 191.952 114.915 191.532 115.144C191.12 115.38 190.715 115.616 190.303 115.852C189.883 116.088 189.935 116.509 190.413 116.782V116.79Z" fill="#FF98FF"/>
<path fill-rule="evenodd" clip-rule="evenodd" d="M184.634 113.424C185.775 114.096 186.916 114.76 188.057 115.424C188.543 115.705 189.265 115.742 189.677 115.498C190.089 115.269 190.501 115.033 190.914 114.797C191.326 114.553 191.274 114.14 190.803 113.86C189.662 113.196 188.521 112.531 187.373 111.86C186.894 111.579 186.173 111.55 185.76 111.786C185.348 112.022 184.943 112.258 184.524 112.487C184.111 112.723 184.155 113.144 184.634 113.424Z" fill="#FF98FF"/>
<path fill-rule="evenodd" clip-rule="evenodd" d="M178.855 110.044C179.996 110.716 181.137 111.38 182.278 112.044C182.764 112.325 183.486 112.362 183.905 112.118C184.318 111.889 184.73 111.653 185.142 111.417C185.554 111.181 185.503 110.76 185.032 110.48C183.891 109.815 182.749 109.151 181.601 108.472C181.122 108.192 180.401 108.162 179.989 108.399C179.577 108.635 179.172 108.871 178.752 109.1C178.34 109.336 178.391 109.756 178.862 110.037L178.855 110.044Z" fill="#FF98FF"/>
<path fill-rule="evenodd" clip-rule="evenodd" d="M173.076 106.664C174.224 107.336 175.365 108 176.506 108.664C176.985 108.937 177.706 108.974 178.119 108.738C178.538 108.509 178.951 108.273 179.355 108.037C179.768 107.801 179.716 107.38 179.245 107.1C178.104 106.435 176.963 105.771 175.822 105.107C175.336 104.826 174.614 104.79 174.195 105.033C173.783 105.269 173.37 105.505 172.958 105.734C172.546 105.97 172.597 106.391 173.068 106.671L173.076 106.664Z" fill="#FF98FF"/>
<path fill-rule="evenodd" clip-rule="evenodd" d="M167.297 103.292C168.445 103.963 169.586 104.627 170.727 105.292C171.206 105.565 171.927 105.602 172.34 105.365C172.759 105.137 173.172 104.901 173.584 104.664C173.996 104.428 173.952 104.008 173.466 103.727C172.325 103.063 171.184 102.399 170.05 101.727C169.564 101.447 168.843 101.41 168.423 101.646C168.011 101.882 167.599 102.118 167.186 102.347C166.767 102.583 166.826 103.004 167.297 103.284V103.292Z" fill="#FF98FF"/>
<path fill-rule="evenodd" clip-rule="evenodd" d="M161.518 99.9189C162.666 100.591 163.808 101.255 164.949 101.919C165.427 102.199 166.149 102.229 166.561 101.993C166.98 101.764 167.393 101.528 167.805 101.292C168.217 101.055 168.173 100.642 167.702 100.362C166.561 99.6975 165.42 99.0333 164.271 98.3617C163.8 98.0813 163.071 98.0518 162.652 98.2806C162.239 98.5167 161.827 98.7529 161.422 98.9817C160.995 99.2178 161.047 99.6311 161.525 99.9116L161.518 99.9189Z" fill="#FF98FF"/>
<path fill-rule="evenodd" clip-rule="evenodd" d="M155.739 96.5387C156.887 97.2103 158.028 97.8745 159.169 98.5461C159.641 98.8266 160.369 98.8561 160.796 98.6273C161.209 98.3911 161.621 98.155 162.033 97.9188C162.46 97.6826 162.409 97.2694 161.93 96.9889C160.789 96.3247 159.648 95.6605 158.5 94.9889C158.028 94.7085 157.3 94.679 156.873 94.9078C156.46 95.1439 156.048 95.3801 155.636 95.6162C155.224 95.8524 155.268 96.2657 155.739 96.5461V96.5387Z" fill="#FF98FF"/>
<path fill-rule="evenodd" clip-rule="evenodd" d="M149.974 93.1735C151.116 93.8378 152.257 94.502 153.398 95.1662C153.884 95.4466 154.605 95.4835 155.025 95.2473C155.444 95.0186 155.857 94.7824 156.269 94.5462C156.681 94.3101 156.63 93.8894 156.158 93.6164C155.017 92.9521 153.876 92.2879 152.728 91.6164C152.257 91.3359 151.528 91.3064 151.116 91.5426C150.703 91.7787 150.291 92.0149 149.871 92.2437C149.459 92.4798 149.503 92.8931 149.982 93.1735H149.974Z" fill="#FF98FF"/>
<path fill-rule="evenodd" clip-rule="evenodd" d="M144.203 89.8007C145.329 90.465 146.478 91.1292 147.619 91.7934C148.105 92.0738 148.826 92.1107 149.246 91.8745C149.666 91.6458 150.078 91.4096 150.49 91.1734C150.902 90.9373 150.858 90.5166 150.38 90.2435C149.239 89.5793 148.097 88.9151 146.956 88.2435C146.485 87.9631 145.756 87.9336 145.337 88.1697C144.925 88.4059 144.512 88.6421 144.093 88.8709C143.673 89.107 143.732 89.5277 144.203 89.8007Z" fill="#FF98FF"/>
<path fill-rule="evenodd" clip-rule="evenodd" d="M138.424 86.4281C139.572 87.0997 140.714 87.7639 141.855 88.4281C142.326 88.7085 143.055 88.738 143.474 88.5019C143.894 88.2731 144.306 88.0369 144.718 87.8008C145.138 87.5646 145.086 87.1439 144.608 86.8709C143.467 86.2067 142.326 85.5425 141.185 84.8709C140.706 84.5904 139.977 84.5535 139.558 84.7897C139.146 85.0259 138.733 85.2546 138.306 85.4908C137.887 85.727 137.946 86.1476 138.417 86.4207L138.424 86.4281Z" fill="#FF98FF"/>
<path fill-rule="evenodd" clip-rule="evenodd" d="M208.714 132.664C210.15 133.506 211.578 134.339 213.006 135.173C213.117 135.24 213.279 135.247 213.374 135.188C214.619 134.472 215.855 133.756 217.085 133.041C217.173 132.989 217.166 132.893 217.063 132.834C215.634 132 214.206 131.159 212.771 130.325C212.668 130.266 212.506 130.258 212.41 130.31C211.181 131.026 209.936 131.742 208.692 132.458C208.597 132.509 208.611 132.605 208.714 132.664Z" fill="#FF98FF"/>
<path fill-rule="evenodd" clip-rule="evenodd" d="M195.515 130.406C196.95 131.247 198.378 132.081 199.807 132.915C199.91 132.974 200.072 132.982 200.175 132.93C201.419 132.214 202.663 131.498 203.9 130.782C203.995 130.731 203.981 130.635 203.87 130.568C202.442 129.734 201.014 128.9 199.578 128.059C199.475 128 199.313 127.993 199.218 128.044C197.974 128.76 196.729 129.469 195.485 130.185C195.397 130.236 195.404 130.332 195.515 130.399V130.406Z" fill="#FF98FF"/>
<path fill-rule="evenodd" clip-rule="evenodd" d="M189.537 132.384C190.972 133.225 192.408 134.066 193.844 134.9C193.947 134.959 194.109 134.967 194.204 134.915C195.448 134.199 196.7 133.483 197.937 132.76C198.025 132.709 198.018 132.613 197.915 132.554C196.486 131.72 195.058 130.886 193.623 130.044C193.512 129.978 193.35 129.971 193.255 130.022C192.018 130.738 190.766 131.454 189.522 132.17C189.426 132.221 189.441 132.317 189.544 132.376L189.537 132.384Z" fill="#FF98FF"/>
<path fill-rule="evenodd" clip-rule="evenodd" d="M181.895 133.395C183.338 134.236 184.766 135.077 186.202 135.911C186.305 135.97 186.474 135.985 186.57 135.933C187.822 135.218 189.066 134.502 190.31 133.778C190.398 133.727 190.391 133.631 190.28 133.564C188.852 132.73 187.424 131.897 185.974 131.048C185.871 130.989 185.709 130.981 185.613 131.033C184.362 131.749 183.11 132.465 181.866 133.181C181.778 133.232 181.785 133.328 181.895 133.395Z" fill="#FF98FF"/>
<path fill-rule="evenodd" clip-rule="evenodd" d="M189.36 143.852C190.788 144.686 192.217 145.528 193.645 146.362C193.755 146.428 193.925 146.435 194.028 146.376C195.441 145.557 196.855 144.745 198.261 143.926C198.356 143.867 198.342 143.764 198.231 143.705C196.81 142.878 195.39 142.044 193.961 141.203C193.851 141.137 193.674 141.129 193.579 141.181C192.165 141.993 190.744 142.812 189.331 143.624C189.235 143.683 189.25 143.786 189.36 143.852Z" fill="#FF98FF"/>
<path fill-rule="evenodd" clip-rule="evenodd" d="M183.633 140.502C185.061 141.336 186.496 142.17 187.917 143.004C188.035 143.078 188.204 143.078 188.3 143.026C189.714 142.214 191.127 141.395 192.548 140.583C192.644 140.524 192.629 140.428 192.518 140.362C191.098 139.528 189.655 138.694 188.226 137.853C188.116 137.786 187.947 137.786 187.851 137.838C186.43 138.65 185.017 139.469 183.603 140.281C183.508 140.34 183.522 140.443 183.633 140.502Z" fill="#FF98FF"/>
<path fill-rule="evenodd" clip-rule="evenodd" d="M178.089 137.262C179.518 138.103 180.938 138.93 182.367 139.764C182.477 139.83 182.654 139.838 182.749 139.779C184.163 138.967 185.576 138.148 186.99 137.336C187.093 137.284 187.085 137.181 186.968 137.115C185.547 136.281 184.119 135.447 182.683 134.613C182.573 134.546 182.396 134.539 182.3 134.591C180.887 135.41 179.473 136.222 178.06 137.033C177.964 137.092 177.964 137.188 178.089 137.262Z" fill="#FF98FF"/>
<path fill-rule="evenodd" clip-rule="evenodd" d="M171.096 133.173C172.973 134.273 174.857 135.373 176.742 136.472C176.875 136.546 177.066 136.561 177.176 136.495C178.575 135.69 179.981 134.886 181.38 134.081C181.49 134.015 181.476 133.904 181.351 133.823C179.466 132.723 177.589 131.624 175.697 130.524C175.564 130.45 175.373 130.435 175.262 130.502C173.871 131.306 172.465 132.111 171.066 132.915C170.956 132.982 170.97 133.092 171.096 133.173Z" fill="#FF98FF"/>
<path fill-rule="evenodd" clip-rule="evenodd" d="M136.348 112.856C138.233 113.956 140.11 115.055 141.995 116.155C142.12 116.236 142.318 116.243 142.429 116.177C143.835 115.38 145.248 114.583 146.662 113.779C146.772 113.712 146.758 113.601 146.632 113.528C144.748 112.428 142.871 111.328 140.986 110.229C140.853 110.155 140.662 110.148 140.544 110.207C139.146 111.011 137.732 111.808 136.326 112.605C136.208 112.672 136.223 112.782 136.355 112.856H136.348Z" fill="#FF98FF"/>
<path fill-rule="evenodd" clip-rule="evenodd" d="M130.628 109.513C132.041 110.339 133.447 111.159 134.854 111.978C134.964 112.044 135.141 112.052 135.244 112C136.672 111.196 138.1 110.384 139.521 109.572C139.617 109.52 139.609 109.417 139.499 109.351C138.093 108.531 136.687 107.712 135.281 106.886C135.17 106.819 134.993 106.812 134.89 106.871C133.47 107.683 132.041 108.487 130.613 109.292C130.517 109.351 130.517 109.446 130.635 109.506L130.628 109.513Z" fill="#FF98FF"/>
<path fill-rule="evenodd" clip-rule="evenodd" d="M143.408 116.982C147.751 119.52 152.102 122.066 156.438 124.598C160.774 127.137 165.125 129.683 169.469 132.214C169.741 132.376 170.153 132.391 170.389 132.258C171.64 131.542 172.892 130.827 174.143 130.111C174.379 129.97 174.35 129.727 174.077 129.572C169.734 127.033 165.39 124.494 161.054 121.956C156.711 119.417 152.367 116.886 148.031 114.347C147.766 114.192 147.347 114.17 147.111 114.303C145.859 115.018 144.601 115.734 143.349 116.443C143.106 116.583 143.136 116.819 143.408 116.982Z" fill="#FF98FF"/>
<path fill-rule="evenodd" clip-rule="evenodd" d="M176.308 130.133C177.743 130.974 179.171 131.808 180.6 132.65C180.71 132.716 180.872 132.723 180.968 132.672C182.219 131.956 183.471 131.24 184.707 130.517C184.803 130.465 184.788 130.369 184.685 130.31C183.257 129.476 181.814 128.635 180.379 127.793C180.276 127.734 180.114 127.727 180.018 127.779C178.774 128.502 177.522 129.21 176.271 129.926C176.183 129.978 176.19 130.074 176.293 130.133H176.308Z" fill="#FF98FF"/>
<path fill-rule="evenodd" clip-rule="evenodd" d="M170.72 126.864C172.156 127.705 173.591 128.546 175.027 129.38C175.13 129.439 175.292 129.447 175.388 129.395C176.639 128.679 177.891 127.963 179.135 127.247C179.238 127.203 179.223 127.107 179.113 127.041C177.684 126.207 176.256 125.373 174.821 124.532C174.71 124.465 174.548 124.458 174.453 124.509C173.208 125.225 171.957 125.941 170.705 126.657C170.61 126.709 170.625 126.805 170.728 126.864H170.72Z" fill="#FF98FF"/>
<path fill-rule="evenodd" clip-rule="evenodd" d="M165.14 123.602C166.576 124.443 168.004 125.277 169.439 126.111C169.55 126.177 169.712 126.185 169.807 126.133C171.059 125.417 172.31 124.709 173.555 123.985C173.65 123.934 173.636 123.838 173.532 123.779C172.104 122.945 170.661 122.104 169.226 121.262C169.123 121.203 168.961 121.196 168.865 121.247C167.621 121.963 166.369 122.679 165.118 123.395C165.015 123.439 165.03 123.535 165.14 123.602Z" fill="#FF98FF"/>
<path fill-rule="evenodd" clip-rule="evenodd" d="M159.552 120.332C160.988 121.173 162.423 122.015 163.859 122.856C163.962 122.915 164.124 122.922 164.22 122.871C165.471 122.155 166.723 121.446 167.967 120.723C168.063 120.671 168.048 120.575 167.945 120.516C166.517 119.682 165.088 118.849 163.653 118.007C163.542 117.941 163.373 117.933 163.285 117.985C162.041 118.701 160.789 119.417 159.53 120.125C159.434 120.177 159.449 120.273 159.552 120.332Z" fill="#FF98FF"/>
<path fill-rule="evenodd" clip-rule="evenodd" d="M153.972 117.07C155.408 117.911 156.836 118.745 158.271 119.579C158.374 119.638 158.536 119.646 158.632 119.594C159.884 118.886 161.142 118.17 162.394 117.461C162.482 117.41 162.475 117.314 162.364 117.247C160.936 116.413 159.508 115.579 158.073 114.738C157.969 114.679 157.793 114.664 157.704 114.716C156.46 115.432 155.201 116.148 153.95 116.856C153.854 116.908 153.869 117.004 153.979 117.07H153.972Z" fill="#FF98FF"/>
<path fill-rule="evenodd" clip-rule="evenodd" d="M148.385 113.801C149.82 114.642 151.248 115.476 152.684 116.31C152.794 116.376 152.956 116.384 153.052 116.332C154.311 115.624 155.562 114.908 156.806 114.192C156.902 114.14 156.887 114.044 156.784 113.985C155.356 113.151 153.921 112.31 152.478 111.469C152.375 111.41 152.213 111.402 152.117 111.454C150.873 112.17 149.614 112.878 148.355 113.594C148.259 113.646 148.274 113.742 148.377 113.801H148.385Z" fill="#FF98FF"/>
<path fill-rule="evenodd" clip-rule="evenodd" d="M142.797 110.539C144.232 111.38 145.675 112.221 147.104 113.055C147.207 113.114 147.369 113.122 147.464 113.07C148.723 112.362 149.975 111.646 151.226 110.93C151.322 110.878 151.314 110.782 151.204 110.723C149.776 109.889 148.348 109.055 146.912 108.214C146.802 108.148 146.64 108.14 146.544 108.192C145.3 108.908 144.041 109.616 142.782 110.325C142.686 110.376 142.701 110.472 142.804 110.531L142.797 110.539Z" fill="#FF98FF"/>
<path fill-rule="evenodd" clip-rule="evenodd" d="M137.217 107.277C138.652 108.118 140.08 108.952 141.516 109.786C141.619 109.845 141.796 109.86 141.884 109.808C143.143 109.1 144.402 108.391 145.646 107.675C145.742 107.624 145.727 107.528 145.617 107.461C144.188 106.627 142.76 105.786 141.325 104.952C141.222 104.893 141.06 104.886 140.964 104.937C139.705 105.646 138.446 106.354 137.187 107.063C137.092 107.115 137.099 107.21 137.217 107.277Z" fill="#FF98FF"/>
<path fill-rule="evenodd" clip-rule="evenodd" d="M125.519 106.605C126.608 107.247 127.705 107.882 128.795 108.517C129.214 108.76 129.84 108.79 130.208 108.583C130.561 108.384 130.915 108.177 131.276 107.978C131.651 107.771 131.607 107.41 131.187 107.166C130.105 106.531 129.008 105.897 127.919 105.255C127.499 105.011 126.873 104.981 126.498 105.181C126.144 105.387 125.791 105.587 125.43 105.786C125.062 105.993 125.099 106.354 125.519 106.598V106.605Z" fill="#FF98FF"/>
<path fill-rule="evenodd" clip-rule="evenodd" d="M119.924 103.328C121.013 103.971 122.095 104.605 123.185 105.24C123.597 105.483 124.23 105.513 124.598 105.306C124.959 105.107 125.32 104.908 125.673 104.701C126.041 104.495 125.99 104.126 125.578 103.882C124.495 103.247 123.406 102.613 122.316 101.971C121.897 101.727 121.264 101.697 120.903 101.904C120.549 102.111 120.189 102.31 119.828 102.509C119.46 102.716 119.504 103.085 119.924 103.328Z" fill="#FF98FF"/>
<path fill-rule="evenodd" clip-rule="evenodd" d="M122.611 101.815C123.7 102.45 124.783 103.092 125.88 103.727C126.292 103.97 126.925 104 127.293 103.793C127.646 103.594 128 103.387 128.36 103.188C128.736 102.989 128.692 102.62 128.272 102.376C127.19 101.742 126.108 101.107 125.018 100.465C124.599 100.221 123.965 100.192 123.597 100.399C123.237 100.605 122.883 100.804 122.53 101.004C122.169 101.21 122.199 101.572 122.618 101.815H122.611Z" fill="#FF98FF"/>
<path fill-rule="evenodd" clip-rule="evenodd" d="M114.314 100.052C115.404 100.694 116.501 101.329 117.583 101.963C117.995 102.207 118.635 102.236 119.004 102.037C119.357 101.83 119.718 101.631 120.071 101.432C120.432 101.225 120.402 100.864 119.983 100.62C118.893 99.9853 117.796 99.3433 116.707 98.7086C116.294 98.465 115.661 98.4355 115.293 98.6422C114.94 98.8488 114.579 99.0481 114.226 99.2473C113.858 99.4466 113.894 99.8156 114.314 100.059V100.052Z" fill="#FF98FF"/>
<path fill-rule="evenodd" clip-rule="evenodd" d="M183.905 129.092C185.341 129.934 186.769 130.768 188.212 131.602C188.315 131.661 188.484 131.675 188.58 131.624C189.831 130.908 191.075 130.192 192.312 129.476C192.401 129.425 192.393 129.329 192.283 129.262C190.847 128.428 189.419 127.594 187.984 126.753C187.88 126.694 187.718 126.686 187.623 126.738C186.371 127.454 185.127 128.163 183.876 128.878C183.787 128.93 183.795 129.026 183.905 129.092Z" fill="#FF98FF"/>
<path fill-rule="evenodd" clip-rule="evenodd" d="M178.266 125.801C179.702 126.642 181.137 127.483 182.573 128.317C182.676 128.376 182.838 128.384 182.926 128.332C184.178 127.616 185.422 126.9 186.666 126.185C186.754 126.133 186.747 126.037 186.644 125.978C185.216 125.144 183.787 124.31 182.352 123.469C182.241 123.402 182.08 123.395 181.984 123.447C180.747 124.162 179.496 124.878 178.244 125.594C178.156 125.646 178.163 125.742 178.266 125.801Z" fill="#FF98FF"/>
<path fill-rule="evenodd" clip-rule="evenodd" d="M172.641 122.509C174.077 123.351 175.505 124.185 176.933 125.019C177.036 125.078 177.198 125.085 177.294 125.033C178.546 124.318 179.797 123.609 181.041 122.893C181.137 122.842 181.122 122.746 181.012 122.679C179.584 121.845 178.155 121.011 176.72 120.17C176.617 120.111 176.448 120.096 176.352 120.148C175.108 120.864 173.864 121.58 172.612 122.288C172.516 122.34 172.531 122.436 172.641 122.502V122.509Z" fill="#FF98FF"/>
<path fill-rule="evenodd" clip-rule="evenodd" d="M167.039 119.232C168.475 120.074 169.903 120.908 171.331 121.742C171.442 121.808 171.604 121.816 171.699 121.764C172.951 121.048 174.202 120.339 175.439 119.624C175.527 119.572 175.52 119.476 175.417 119.417C173.989 118.583 172.553 117.742 171.118 116.9C171.015 116.841 170.853 116.834 170.757 116.886C169.513 117.601 168.261 118.317 167.01 119.026C166.922 119.078 166.929 119.173 167.032 119.232H167.039Z" fill="#FF98FF"/>
<path fill-rule="evenodd" clip-rule="evenodd" d="M161.4 115.941C162.836 116.782 164.271 117.624 165.707 118.458C165.81 118.517 165.972 118.524 166.068 118.472C167.319 117.757 168.571 117.048 169.815 116.332C169.903 116.281 169.896 116.185 169.793 116.126C168.364 115.292 166.936 114.458 165.501 113.616C165.39 113.55 165.228 113.543 165.133 113.594C163.888 114.31 162.637 115.019 161.385 115.727C161.29 115.779 161.304 115.875 161.408 115.934L161.4 115.941Z" fill="#FF98FF"/>
<path fill-rule="evenodd" clip-rule="evenodd" d="M156.019 112.797C157.454 113.639 158.882 114.472 160.311 115.306C160.414 115.365 160.576 115.373 160.671 115.321C161.923 114.613 163.174 113.904 164.426 113.188C164.522 113.137 164.507 113.041 164.396 112.974C162.968 112.14 161.54 111.306 160.105 110.465C160.001 110.406 159.84 110.399 159.744 110.45C158.492 111.159 157.241 111.867 155.982 112.576C155.886 112.627 155.894 112.723 156.011 112.79L156.019 112.797Z" fill="#FF98FF"/>
<path fill-rule="evenodd" clip-rule="evenodd" d="M150.431 109.528C151.867 110.369 153.295 111.203 154.723 112.037C154.833 112.103 154.995 112.111 155.091 112.059C156.343 111.351 157.602 110.642 158.846 109.926C158.941 109.875 158.927 109.779 158.824 109.72C157.395 108.886 155.96 108.044 154.524 107.21C154.421 107.151 154.259 107.144 154.171 107.196C152.919 107.912 151.668 108.62 150.416 109.329C150.321 109.38 150.335 109.476 150.439 109.535L150.431 109.528Z" fill="#FF98FF"/>
<path fill-rule="evenodd" clip-rule="evenodd" d="M144.851 106.266C146.286 107.107 147.722 107.948 149.157 108.782C149.261 108.841 149.422 108.849 149.511 108.797C150.77 108.089 152.021 107.38 153.273 106.664C153.361 106.613 153.354 106.517 153.251 106.458C151.822 105.624 150.394 104.79 148.959 103.948C148.848 103.882 148.686 103.875 148.591 103.926C147.346 104.642 146.088 105.351 144.836 106.059C144.74 106.111 144.755 106.207 144.858 106.266H144.851Z" fill="#FF98FF"/>
<path fill-rule="evenodd" clip-rule="evenodd" d="M139.315 103.033C140.743 103.875 142.171 104.709 143.599 105.543C143.702 105.602 143.879 105.616 143.968 105.565C145.226 104.856 146.478 104.148 147.729 103.439C147.825 103.388 147.81 103.292 147.7 103.225C146.272 102.391 144.844 101.557 143.415 100.723C143.312 100.664 143.15 100.657 143.055 100.709C141.796 101.417 140.544 102.126 139.285 102.834C139.19 102.886 139.197 102.982 139.315 103.048V103.033Z" fill="#FF98FF"/>
<path fill-rule="evenodd" clip-rule="evenodd" d="M133.764 99.7934C135.2 100.635 136.628 101.469 138.056 102.303C138.166 102.369 138.328 102.376 138.424 102.325C139.683 101.616 140.934 100.908 142.186 100.199C142.282 100.148 142.267 100.052 142.164 99.9926C140.736 99.1587 139.3 98.3247 137.864 97.4834C137.761 97.4243 137.599 97.417 137.504 97.4686C136.252 98.1771 135.001 98.8856 133.742 99.5941C133.646 99.6457 133.661 99.7417 133.764 99.8007V99.7934Z" fill="#FF98FF"/>
<path fill-rule="evenodd" clip-rule="evenodd" d="M131.688 104.044C133.124 104.886 134.559 105.727 135.987 106.561C136.09 106.62 136.252 106.627 136.348 106.576C137.607 105.867 138.866 105.159 140.117 104.443C140.213 104.391 140.206 104.303 140.095 104.236C138.674 103.402 137.246 102.568 135.811 101.727C135.7 101.661 135.538 101.653 135.442 101.705C134.191 102.421 132.932 103.122 131.673 103.838C131.578 103.889 131.592 103.985 131.695 104.044H131.688Z" fill="#FF98FF"/>
<path fill-rule="evenodd" clip-rule="evenodd" d="M123.951 94.0516C126.719 95.6679 129.494 97.2915 132.248 98.9003C132.395 98.9889 132.608 98.9963 132.741 98.9225C133.955 98.2361 135.178 97.5571 136.392 96.8708C136.517 96.797 136.503 96.6715 136.355 96.583C133.602 94.9741 130.834 93.3579 128.066 91.7416C127.919 91.6531 127.705 91.6457 127.573 91.7195C126.358 92.3985 125.136 93.0848 123.921 93.7638C123.796 93.8376 123.811 93.9631 123.958 94.0516H123.951Z" fill="#FF98FF"/>
<path fill-rule="evenodd" clip-rule="evenodd" d="M119.224 96.7601C122.942 98.9298 126.638 101.1 130.348 103.262C130.517 103.365 130.782 103.373 130.93 103.291C132.122 102.62 133.315 101.956 134.5 101.277C134.647 101.188 134.633 101.041 134.463 100.945C130.753 98.7822 127.05 96.6125 123.332 94.4428C123.17 94.3468 122.913 94.3321 122.758 94.4206C121.573 95.0922 120.373 95.7638 119.18 96.428C119.033 96.5166 119.04 96.6568 119.217 96.7601H119.224Z" fill="#FF98FF"/>
<path fill-rule="evenodd" clip-rule="evenodd" d="M195.139 135.66C197.944 137.299 200.734 138.937 203.524 140.568C203.671 140.657 203.9 140.664 204.025 140.59C205.225 139.897 206.432 139.203 207.625 138.509C207.765 138.435 207.743 138.31 207.595 138.221C204.798 136.59 202 134.952 199.203 133.321C199.056 133.232 198.827 133.225 198.702 133.299C197.51 133.993 196.302 134.686 195.095 135.38C194.97 135.454 194.977 135.579 195.132 135.668L195.139 135.66Z" fill="#FF98FF"/>
<path fill-rule="evenodd" clip-rule="evenodd" d="M187.557 136.708C191.326 138.915 195.102 141.122 198.864 143.321C199.034 143.424 199.291 143.432 199.446 143.35C200.624 142.671 201.809 141.992 202.98 141.306C203.127 141.218 203.112 141.07 202.943 140.974C199.181 138.775 195.404 136.575 191.642 134.369C191.473 134.266 191.215 134.258 191.061 134.339C189.89 135.026 188.705 135.697 187.52 136.376C187.373 136.465 187.387 136.612 187.557 136.708Z" fill="#FF98FF"/>
<path fill-rule="evenodd" clip-rule="evenodd" d="M189.898 127.129C191.333 127.971 192.776 128.812 194.204 129.646C194.307 129.705 194.469 129.712 194.565 129.661C195.809 128.945 197.053 128.236 198.29 127.513C198.379 127.461 198.371 127.366 198.268 127.306C196.84 126.473 195.404 125.639 193.976 124.797C193.866 124.731 193.704 124.723 193.608 124.775C192.371 125.491 191.127 126.207 189.876 126.923C189.78 126.974 189.795 127.07 189.898 127.129Z" fill="#FF98FF"/>
<path fill-rule="evenodd" clip-rule="evenodd" d="M184.332 123.882C185.768 124.723 187.196 125.557 188.624 126.391C188.734 126.458 188.896 126.465 188.992 126.406C190.236 125.69 191.488 124.982 192.724 124.266C192.813 124.214 192.805 124.118 192.702 124.059C191.274 123.225 189.839 122.391 188.403 121.55C188.3 121.491 188.138 121.483 188.042 121.535C186.806 122.251 185.554 122.967 184.31 123.675C184.222 123.727 184.229 123.823 184.332 123.882Z" fill="#FF98FF"/>
<path fill-rule="evenodd" clip-rule="evenodd" d="M178.737 120.605C180.173 121.446 181.601 122.28 183.029 123.114C183.14 123.181 183.302 123.188 183.39 123.136C184.641 122.42 185.886 121.712 187.13 120.996C187.218 120.944 187.211 120.849 187.108 120.789C185.679 119.956 184.244 119.114 182.808 118.28C182.705 118.221 182.543 118.214 182.448 118.266C181.211 118.981 179.959 119.69 178.715 120.406C178.612 120.457 178.627 120.546 178.737 120.612V120.605Z" fill="#FF98FF"/>
<path fill-rule="evenodd" clip-rule="evenodd" d="M173.135 117.336C174.57 118.177 175.999 119.011 177.427 119.845C177.53 119.904 177.692 119.911 177.788 119.86C179.039 119.151 180.283 118.435 181.535 117.727C181.63 117.675 181.616 117.579 181.505 117.513C180.077 116.679 178.649 115.845 177.213 115.011C177.11 114.952 176.941 114.937 176.845 114.989C175.608 115.705 174.357 116.413 173.105 117.129C173.01 117.181 173.024 117.277 173.135 117.343V117.336Z" fill="#FF98FF"/>
<path fill-rule="evenodd" clip-rule="evenodd" d="M167.569 114.074C169.005 114.915 170.44 115.756 171.869 116.59C171.972 116.649 172.134 116.657 172.229 116.605C173.481 115.897 174.725 115.181 175.969 114.472C176.058 114.421 176.05 114.325 175.947 114.266C174.519 113.432 173.091 112.598 171.655 111.756C171.545 111.69 171.383 111.683 171.287 111.734C170.043 112.45 168.799 113.159 167.547 113.867C167.452 113.919 167.466 114.015 167.569 114.074Z" fill="#FF98FF"/>
<path fill-rule="evenodd" clip-rule="evenodd" d="M162.136 110.908C163.572 111.749 165 112.583 166.428 113.417C166.531 113.476 166.693 113.483 166.789 113.432C168.041 112.723 169.292 112.015 170.544 111.306C170.639 111.255 170.625 111.159 170.514 111.092C169.086 110.258 167.658 109.424 166.222 108.59C166.119 108.531 165.95 108.517 165.854 108.568C164.61 109.284 163.358 109.993 162.107 110.701C162.011 110.753 162.026 110.849 162.136 110.915V110.908Z" fill="#FF98FF"/>
<path fill-rule="evenodd" clip-rule="evenodd" d="M156.482 107.602C157.918 108.443 159.346 109.277 160.774 110.111C160.885 110.177 161.047 110.185 161.142 110.133C162.394 109.424 163.645 108.716 164.89 108C164.978 107.948 164.971 107.852 164.868 107.793C163.439 106.959 162.004 106.118 160.576 105.284C160.473 105.225 160.311 105.218 160.215 105.269C158.971 105.985 157.719 106.694 156.468 107.395C156.372 107.447 156.387 107.542 156.49 107.602H156.482Z" fill="#FF98FF"/>
<path fill-rule="evenodd" clip-rule="evenodd" d="M150.902 104.347C152.338 105.188 153.773 106.03 155.201 106.856C155.305 106.915 155.466 106.923 155.562 106.871C156.814 106.162 158.065 105.454 159.309 104.745C159.398 104.694 159.39 104.598 159.287 104.539C157.859 103.705 156.431 102.871 154.995 102.037C154.885 101.971 154.723 101.963 154.627 102.015C153.383 102.723 152.132 103.432 150.873 104.14C150.777 104.192 150.792 104.288 150.895 104.347H150.902Z" fill="#FF98FF"/>
<path fill-rule="evenodd" clip-rule="evenodd" d="M145.418 101.136C146.853 101.978 148.289 102.812 149.717 103.653C149.82 103.712 149.982 103.719 150.078 103.668C151.329 102.959 152.588 102.251 153.832 101.542C153.928 101.491 153.913 101.395 153.81 101.336C152.382 100.502 150.954 99.6678 149.518 98.8339C149.408 98.7675 149.246 98.7601 149.15 98.8117C147.906 99.5202 146.655 100.229 145.396 100.937C145.3 100.989 145.315 101.085 145.418 101.144V101.136Z" fill="#FF98FF"/>
<path fill-rule="evenodd" clip-rule="evenodd" d="M139.712 97.8082C141.148 98.6496 142.576 99.4835 144.004 100.31C144.115 100.377 144.277 100.384 144.372 100.332C145.624 99.6237 146.883 98.9226 148.127 98.2141C148.223 98.1625 148.208 98.0665 148.105 98.0075C146.677 97.1736 145.241 96.3396 143.805 95.4983C143.702 95.4392 143.54 95.4319 143.445 95.4835C142.193 96.1846 140.934 96.8931 139.676 97.6016C139.58 97.6533 139.595 97.7492 139.705 97.8156L139.712 97.8082Z" fill="#FF98FF"/>
<path fill-rule="evenodd" clip-rule="evenodd" d="M134.257 94.6125C135.693 95.4539 137.121 96.2878 138.549 97.1218C138.652 97.1808 138.814 97.1882 138.91 97.1365C140.169 96.4354 141.42 95.7269 142.664 95.0184C142.76 94.9668 142.745 94.8708 142.642 94.8118C141.214 93.9778 139.793 93.1439 138.365 92.3099C138.255 92.2435 138.093 92.2361 137.997 92.2878C136.753 92.9963 135.494 93.7048 134.235 94.4059C134.139 94.4575 134.154 94.5535 134.257 94.6125Z" fill="#FF98FF"/>
<path fill-rule="evenodd" clip-rule="evenodd" d="M128.633 91.3284C130.068 92.1697 131.504 93.0036 132.932 93.8376C133.035 93.8966 133.197 93.904 133.286 93.8523C134.544 93.1512 135.796 92.4427 137.055 91.7416C137.15 91.69 137.136 91.594 137.025 91.5276C135.597 90.6937 134.169 89.8597 132.733 89.0258C132.623 88.9593 132.461 88.952 132.365 89.0036C131.114 89.7121 129.862 90.4132 128.603 91.1217C128.508 91.1734 128.522 91.2693 128.626 91.3284H128.633Z" fill="#FF98FF"/>
<path fill-rule="evenodd" clip-rule="evenodd" d="M203.024 129.343C204.459 130.185 205.902 131.018 207.33 131.852C207.433 131.911 207.595 131.919 207.691 131.867C208.935 131.151 210.172 130.443 211.409 129.72C211.497 129.668 211.49 129.572 211.387 129.513C209.958 128.679 208.523 127.845 207.095 127.011C206.984 126.945 206.822 126.937 206.734 126.989C205.497 127.712 204.253 128.421 203.016 129.137C202.928 129.188 202.935 129.284 203.038 129.343H203.024Z" fill="#FF98FF"/>
<path fill-rule="evenodd" clip-rule="evenodd" d="M197.524 126.126C198.96 126.967 200.381 127.801 201.816 128.635C201.919 128.694 202.089 128.709 202.177 128.657C203.421 127.941 204.665 127.233 205.902 126.509C205.991 126.458 205.983 126.362 205.873 126.295C204.445 125.461 203.016 124.627 201.588 123.793C201.485 123.734 201.323 123.727 201.227 123.779C199.983 124.487 198.739 125.203 197.495 125.912C197.407 125.963 197.414 126.059 197.524 126.126Z" fill="#FF98FF"/>
<path fill-rule="evenodd" clip-rule="evenodd" d="M191.871 122.819C193.306 123.661 194.742 124.495 196.163 125.329C196.266 125.388 196.428 125.395 196.523 125.343C197.767 124.635 199.012 123.919 200.248 123.203C200.344 123.152 200.329 123.056 200.226 122.997C198.798 122.163 197.363 121.329 195.934 120.487C195.831 120.428 195.669 120.421 195.574 120.473C194.337 121.188 193.093 121.897 191.849 122.613C191.753 122.664 191.768 122.76 191.871 122.819Z" fill="#FF98FF"/>
<path fill-rule="evenodd" clip-rule="evenodd" d="M186.371 119.609C187.807 120.45 189.228 121.277 190.663 122.111C190.774 122.177 190.936 122.185 191.031 122.126C192.276 121.417 193.52 120.701 194.756 119.985C194.845 119.934 194.837 119.838 194.734 119.779C193.306 118.945 191.871 118.111 190.442 117.27C190.339 117.21 190.177 117.203 190.089 117.255C188.838 117.971 187.593 118.679 186.349 119.388C186.261 119.439 186.268 119.535 186.379 119.602L186.371 119.609Z" fill="#FF98FF"/>
<path fill-rule="evenodd" clip-rule="evenodd" d="M180.703 116.295C182.138 117.137 183.566 117.971 184.995 118.797C185.098 118.856 185.26 118.864 185.355 118.812C186.599 118.103 187.844 117.388 189.095 116.679C189.183 116.627 189.176 116.531 189.066 116.465C187.637 115.631 186.209 114.797 184.781 113.963C184.678 113.904 184.509 113.889 184.413 113.941C183.176 114.657 181.932 115.365 180.681 116.074C180.592 116.126 180.6 116.221 180.71 116.288L180.703 116.295Z" fill="#FF98FF"/>
<path fill-rule="evenodd" clip-rule="evenodd" d="M175.248 113.107C176.683 113.948 178.104 114.782 179.532 115.616C179.643 115.683 179.805 115.69 179.9 115.638C181.144 114.93 182.396 114.222 183.633 113.506C183.728 113.454 183.714 113.358 183.611 113.299C182.182 112.465 180.747 111.631 179.319 110.79C179.216 110.731 179.054 110.723 178.958 110.775C177.721 111.491 176.47 112.199 175.226 112.908C175.13 112.96 175.137 113.048 175.248 113.115V113.107Z" fill="#FF98FF"/>
<path fill-rule="evenodd" clip-rule="evenodd" d="M169.579 109.801C171.015 110.642 172.443 111.469 173.871 112.303C173.974 112.362 174.136 112.369 174.232 112.317C175.483 111.609 176.727 110.9 177.972 110.192C178.06 110.14 178.053 110.044 177.942 109.978C176.514 109.144 175.093 108.31 173.658 107.476C173.555 107.417 173.393 107.41 173.29 107.454C172.045 108.17 170.801 108.878 169.55 109.587C169.461 109.639 169.469 109.734 169.579 109.801Z" fill="#FF98FF"/>
<path fill-rule="evenodd" clip-rule="evenodd" d="M164.073 106.583C165.508 107.424 166.936 108.258 168.364 109.085C168.475 109.151 168.637 109.159 168.725 109.107C169.977 108.399 171.221 107.69 172.465 106.974C172.553 106.922 172.546 106.827 172.443 106.768C171.015 105.934 169.579 105.1 168.151 104.258C168.048 104.199 167.886 104.192 167.79 104.244C166.553 104.959 165.302 105.661 164.05 106.369C163.962 106.421 163.969 106.517 164.073 106.576V106.583Z" fill="#FF98FF"/>
<path fill-rule="evenodd" clip-rule="evenodd" d="M158.418 103.284C159.854 104.125 161.282 104.952 162.71 105.786C162.821 105.852 162.983 105.86 163.071 105.808C164.323 105.1 165.574 104.391 166.811 103.683C166.907 103.631 166.892 103.535 166.789 103.476C165.361 102.649 163.925 101.808 162.497 100.967C162.394 100.908 162.232 100.9 162.136 100.952C160.892 101.661 159.641 102.369 158.389 103.077C158.301 103.129 158.308 103.225 158.411 103.284H158.418Z" fill="#FF98FF"/>
<path fill-rule="evenodd" clip-rule="evenodd" d="M152.772 99.9851C154.208 100.826 155.643 101.66 157.072 102.494C157.175 102.553 157.337 102.561 157.432 102.509C158.684 101.801 159.935 101.092 161.187 100.391C161.282 100.339 161.268 100.243 161.157 100.177C159.729 99.3505 158.308 98.5165 156.873 97.6752C156.762 97.6088 156.6 97.6014 156.505 97.653C155.261 98.3615 154.009 99.07 152.757 99.7711C152.662 99.8228 152.677 99.9187 152.78 99.9778L152.772 99.9851Z" fill="#FF98FF"/>
<path fill-rule="evenodd" clip-rule="evenodd" d="M147.207 96.7307C148.642 97.5646 150.056 98.3986 151.484 99.2325C151.587 99.2916 151.749 99.2989 151.845 99.2473C153.096 98.5388 154.348 97.8377 155.599 97.1292C155.687 97.0775 155.68 96.9816 155.57 96.9152C154.141 96.0886 152.728 95.2547 151.292 94.4133C151.189 94.3543 151.02 94.3395 150.932 94.3912C149.688 95.0997 148.429 95.8082 147.177 96.5093C147.082 96.5609 147.096 96.6569 147.207 96.7233V96.7307Z" fill="#FF98FF"/>
<path fill-rule="evenodd" clip-rule="evenodd" d="M141.84 93.5941C143.275 94.4355 144.696 95.2694 146.124 96.096C146.235 96.1624 146.397 96.1698 146.492 96.1181C147.744 95.4096 148.995 94.7085 150.24 94C150.335 93.9484 150.328 93.8524 150.217 93.7934C148.789 92.9594 147.354 92.1255 145.926 91.2842C145.823 91.2251 145.661 91.2177 145.565 91.2694C144.313 91.9705 143.054 92.679 141.803 93.3801C141.707 93.4318 141.722 93.5277 141.832 93.5941H141.84Z" fill="#FF98FF"/>
<path fill-rule="evenodd" clip-rule="evenodd" d="M133.793 88.9003C135.936 90.1475 138.085 91.4021 140.22 92.6494C140.515 92.8191 140.964 92.8413 141.222 92.6937C142.274 92.1032 143.327 91.5128 144.38 90.9151C144.637 90.7675 144.601 90.5092 144.313 90.332C142.179 89.0922 140.044 87.8449 137.901 86.5903C137.6 86.4132 137.15 86.3911 136.893 86.5387C135.84 87.1365 134.787 87.7269 133.735 88.3099C133.477 88.4575 133.506 88.7158 133.801 88.8929L133.793 88.9003Z" fill="#FF98FF"/>
<path fill-rule="evenodd" clip-rule="evenodd" d="M201.537 133.926C203.679 135.181 205.829 136.435 207.971 137.683C208.265 137.852 208.714 137.874 208.972 137.727C210.017 137.129 211.063 136.524 212.101 135.919C212.358 135.771 212.322 135.505 212.027 135.336C209.892 134.089 207.757 132.841 205.615 131.587C205.313 131.41 204.857 131.387 204.606 131.535C203.568 132.14 202.523 132.738 201.478 133.343C201.22 133.491 201.257 133.756 201.551 133.926H201.537Z" fill="#FF98FF"/>
<path fill-rule="evenodd" clip-rule="evenodd" d="M278.041 178.834C270.664 174.561 263.31 170.31 255.955 166.051C248.498 161.734 241.018 157.409 233.524 153.07C232.692 152.59 231.234 152.657 230.285 153.203C219.338 159.542 208.427 165.852 197.539 172.155C186.622 178.472 175.719 184.789 164.787 191.114C164.757 191.129 164.728 191.151 164.698 191.166H164.014V192.14C164.014 192.14 164.014 192.155 164.014 192.162C164.021 192.465 164.205 192.745 164.566 192.952C172.038 197.277 179.54 201.616 187.027 205.956C194.536 210.302 202.023 214.635 209.495 218.959C210.305 219.424 211.711 219.372 212.638 218.834C223.534 212.531 234.459 206.206 245.413 199.867C256.331 193.55 267.263 187.218 278.18 180.908C278.615 180.657 278.872 180.339 278.939 180.022C278.961 179.911 278.961 179.801 278.939 179.697V178.841H278.048L278.041 178.834Z" fill="#3B3FBD"/>
<path fill-rule="evenodd" clip-rule="evenodd" d="M278.394 178.015C270.899 173.676 263.427 169.351 255.955 165.026C248.498 160.709 241.018 156.384 233.524 152.045C232.692 151.565 231.234 151.631 230.284 152.177C219.337 158.517 208.427 164.827 197.539 171.129C186.622 177.447 175.719 183.764 164.787 190.089C163.844 190.635 163.749 191.454 164.566 191.926C172.038 196.251 179.54 200.591 187.027 204.93C194.536 209.277 202.023 213.609 209.495 217.934C210.305 218.399 211.711 218.347 212.638 217.808C223.534 211.506 234.459 205.181 245.413 198.842C256.33 192.524 267.263 186.192 278.18 179.882C279.115 179.343 279.218 178.502 278.401 178.022L278.394 178.015Z" fill="url(#paint2_linear_27_1190)"/>
<path fill-rule="evenodd" clip-rule="evenodd" d="M277.209 176.015L231.565 149.594L165.854 187.631L211.497 214.052L277.209 176.015Z" fill="#FEFFFF"/>
<path fill-rule="evenodd" clip-rule="evenodd" d="M277.208 176.015L211.497 214.052V217.218L277.208 179.181V176.015Z" fill="#FF98FF"/>
<path fill-rule="evenodd" clip-rule="evenodd" d="M165.854 187.631L211.497 214.052V217.218L165.854 190.797V187.631Z" fill="#FF98FF"/>
<path fill-rule="evenodd" clip-rule="evenodd" d="M271.562 174.908C271.231 175.099 271.231 175.409 271.562 175.601C271.893 175.793 272.431 175.793 272.762 175.601C273.093 175.409 273.093 175.099 272.762 174.908C272.431 174.716 271.893 174.716 271.562 174.908Z" fill="#3B3FBD"/>
<path fill-rule="evenodd" clip-rule="evenodd" d="M276.075 173.484C276.075 174.015 275.935 174.591 275.685 175.129L275.412 174.967C275.589 174.546 275.692 174.104 275.692 173.698C275.692 172.568 274.897 172.111 273.925 172.672C273.034 173.188 272.306 174.369 272.173 175.425L271.856 175.24C272.114 174.044 272.939 172.797 273.925 172.229C275.118 171.543 276.075 172.096 276.075 173.476V173.484Z" fill="#FF98FF"/>
<path fill-rule="evenodd" clip-rule="evenodd" d="M268.588 173.188C268.257 173.38 268.257 173.69 268.588 173.882C268.919 174.074 269.457 174.074 269.788 173.882C270.119 173.69 270.119 173.38 269.788 173.188C269.457 172.996 268.919 172.996 268.588 173.188Z" fill="#3B3FBD"/>
<path fill-rule="evenodd" clip-rule="evenodd" d="M273.101 171.764C273.101 172.295 272.961 172.871 272.71 173.41L272.438 173.247C272.615 172.827 272.718 172.384 272.718 171.978C272.718 170.849 271.923 170.391 270.951 170.952C270.068 171.469 269.331 172.649 269.199 173.705L268.875 173.52C269.133 172.325 269.965 171.077 270.944 170.509C272.136 169.823 273.093 170.376 273.093 171.756L273.101 171.764Z" fill="#FF98FF"/>
<path fill-rule="evenodd" clip-rule="evenodd" d="M265.614 171.469C265.282 171.661 265.282 171.97 265.614 172.162C265.945 172.354 266.482 172.354 266.814 172.162C267.145 171.97 267.145 171.661 266.814 171.469C266.482 171.277 265.945 171.277 265.614 171.469Z" fill="#3B3FBD"/>
<path fill-rule="evenodd" clip-rule="evenodd" d="M270.127 170.037C270.127 170.568 269.987 171.144 269.736 171.69L269.464 171.528C269.641 171.107 269.744 170.664 269.744 170.258C269.744 169.129 268.949 168.671 267.977 169.232C267.086 169.749 266.357 170.93 266.225 171.985L265.901 171.801C266.159 170.605 266.983 169.358 267.97 168.79C269.162 168.103 270.119 168.657 270.119 170.037H270.127Z" fill="#FF98FF"/>
<path fill-rule="evenodd" clip-rule="evenodd" d="M262.64 169.742C262.308 169.933 262.308 170.243 262.64 170.435C262.971 170.627 263.508 170.627 263.84 170.435C264.171 170.243 264.171 169.933 263.84 169.742C263.508 169.55 262.971 169.55 262.64 169.742Z" fill="#3B3FBD"/>
<path fill-rule="evenodd" clip-rule="evenodd" d="M267.152 168.318C267.152 168.849 267.013 169.425 266.762 169.963L266.49 169.801C266.667 169.38 266.77 168.937 266.77 168.532C266.77 167.402 265.975 166.945 265.003 167.506C264.119 168.022 263.383 169.203 263.251 170.259L262.927 170.074C263.184 168.878 264.009 167.631 264.995 167.063C266.188 166.377 267.145 166.93 267.145 168.31L267.152 168.318Z" fill="#FF98FF"/>
<path fill-rule="evenodd" clip-rule="evenodd" d="M259.665 168.022C259.334 168.214 259.334 168.524 259.665 168.716C259.997 168.908 260.534 168.908 260.865 168.716C261.197 168.524 261.197 168.214 260.865 168.022C260.534 167.83 259.997 167.83 259.665 168.022Z" fill="#3B3FBD"/>
<path fill-rule="evenodd" clip-rule="evenodd" d="M264.178 166.598C264.178 167.129 264.038 167.705 263.788 168.244L263.516 168.081C263.692 167.661 263.795 167.218 263.795 166.812C263.795 165.683 263 165.225 262.028 165.786C261.145 166.303 260.409 167.483 260.276 168.539L259.952 168.354C260.21 167.159 261.042 165.911 262.021 165.343C263.214 164.657 264.171 165.21 264.171 166.59L264.178 166.598Z" fill="#FF98FF"/>
<path fill-rule="evenodd" clip-rule="evenodd" d="M256.691 166.303C256.36 166.494 256.36 166.804 256.691 166.996C257.023 167.188 257.56 167.188 257.891 166.996C258.223 166.804 258.223 166.494 257.891 166.303C257.56 166.111 257.023 166.111 256.691 166.303Z" fill="#3B3FBD"/>
<path fill-rule="evenodd" clip-rule="evenodd" d="M261.204 164.878C261.204 165.409 261.064 165.985 260.814 166.524L260.541 166.361C260.718 165.941 260.821 165.498 260.821 165.092C260.821 163.963 260.026 163.505 259.054 164.066C258.164 164.583 257.435 165.764 257.302 166.819L256.978 166.635C257.236 165.439 258.06 164.192 259.047 163.623C260.24 162.937 261.197 163.491 261.197 164.871L261.204 164.878Z" fill="#FF98FF"/>
<path fill-rule="evenodd" clip-rule="evenodd" d="M253.717 164.583C253.386 164.775 253.386 165.085 253.717 165.277C254.048 165.468 254.586 165.468 254.917 165.277C255.248 165.085 255.248 164.775 254.917 164.583C254.586 164.391 254.048 164.391 253.717 164.583Z" fill="#3B3FBD"/>
<path fill-rule="evenodd" clip-rule="evenodd" d="M258.23 163.159C258.23 163.69 258.09 164.266 257.84 164.805L257.567 164.642C257.744 164.222 257.847 163.779 257.847 163.373C257.847 162.244 257.052 161.786 256.08 162.347C255.197 162.864 254.461 164.044 254.328 165.1L254.004 164.915C254.262 163.72 255.086 162.473 256.073 161.904C257.265 161.218 258.222 161.771 258.222 163.151L258.23 163.159Z" fill="#FF98FF"/>
<path fill-rule="evenodd" clip-rule="evenodd" d="M250.743 162.864C250.412 163.056 250.412 163.365 250.743 163.557C251.074 163.749 251.612 163.749 251.943 163.557C252.274 163.365 252.274 163.056 251.943 162.864C251.612 162.672 251.074 162.672 250.743 162.864Z" fill="#3B3FBD"/>
<path fill-rule="evenodd" clip-rule="evenodd" d="M255.256 161.432C255.256 161.963 255.116 162.539 254.866 163.085L254.593 162.923C254.77 162.502 254.873 162.059 254.873 161.653C254.873 160.524 254.078 160.066 253.106 160.627C252.215 161.144 251.486 162.325 251.354 163.38L251.03 163.196C251.288 162 252.12 160.753 253.099 160.185C254.291 159.498 255.248 160.052 255.248 161.432H255.256Z" fill="#FF98FF"/>
<path fill-rule="evenodd" clip-rule="evenodd" d="M247.776 161.137C247.445 161.328 247.445 161.638 247.776 161.83C248.107 162.022 248.645 162.022 248.976 161.83C249.307 161.638 249.307 161.328 248.976 161.137C248.645 160.945 248.107 160.945 247.776 161.137Z" fill="#3B3FBD"/>
<path fill-rule="evenodd" clip-rule="evenodd" d="M252.282 159.712C252.282 160.243 252.142 160.819 251.891 161.358L251.619 161.195C251.796 160.775 251.899 160.332 251.899 159.926C251.899 158.797 251.104 158.339 250.132 158.9C249.248 159.417 248.512 160.598 248.38 161.653L248.063 161.469C248.321 160.273 249.145 159.026 250.132 158.457C251.325 157.771 252.282 158.325 252.282 159.705V159.712Z" fill="#FF98FF"/>
<path fill-rule="evenodd" clip-rule="evenodd" d="M244.802 159.417C244.471 159.609 244.471 159.919 244.802 160.111C245.133 160.302 245.671 160.302 246.002 160.111C246.333 159.919 246.333 159.609 246.002 159.417C245.671 159.225 245.133 159.225 244.802 159.417Z" fill="#3B3FBD"/>
<path fill-rule="evenodd" clip-rule="evenodd" d="M249.315 157.993C249.315 158.524 249.175 159.1 248.925 159.639L248.652 159.476C248.829 159.056 248.932 158.613 248.932 158.207C248.932 157.078 248.137 156.62 247.165 157.181C246.282 157.698 245.546 158.878 245.413 159.934L245.089 159.749C245.347 158.554 246.171 157.307 247.158 156.738C248.35 156.052 249.307 156.605 249.307 157.985L249.315 157.993Z" fill="#FF98FF"/>
<path fill-rule="evenodd" clip-rule="evenodd" d="M241.828 157.698C241.497 157.89 241.497 158.199 241.828 158.391C242.159 158.583 242.697 158.583 243.028 158.391C243.359 158.199 243.359 157.89 243.028 157.698C242.697 157.506 242.159 157.506 241.828 157.698Z" fill="#3B3FBD"/>
<path fill-rule="evenodd" clip-rule="evenodd" d="M246.34 156.273C246.34 156.804 246.201 157.38 245.95 157.919L245.678 157.757C245.855 157.336 245.958 156.893 245.958 156.487C245.958 155.358 245.163 154.9 244.191 155.461C243.3 155.978 242.571 157.159 242.439 158.214L242.115 158.03C242.372 156.834 243.197 155.587 244.183 155.019C245.376 154.332 246.333 154.886 246.333 156.266L246.34 156.273Z" fill="#FF98FF"/>
<path fill-rule="evenodd" clip-rule="evenodd" d="M238.854 155.978C238.522 156.17 238.522 156.48 238.854 156.672C239.185 156.863 239.722 156.863 240.054 156.672C240.385 156.48 240.385 156.17 240.054 155.978C239.722 155.786 239.185 155.786 238.854 155.978Z" fill="#3B3FBD"/>
<path fill-rule="evenodd" clip-rule="evenodd" d="M243.366 154.553C243.366 155.085 243.226 155.66 242.976 156.199L242.704 156.037C242.88 155.616 242.983 155.173 242.983 154.767C242.983 153.638 242.188 153.181 241.217 153.742C240.326 154.258 239.597 155.439 239.465 156.494L239.141 156.31C239.398 155.114 240.223 153.867 241.209 153.299C242.402 152.612 243.359 153.166 243.359 154.546L243.366 154.553Z" fill="#FF98FF"/>
<path fill-rule="evenodd" clip-rule="evenodd" d="M235.879 154.258C235.548 154.45 235.548 154.76 235.879 154.952C236.211 155.144 236.748 155.144 237.079 154.952C237.411 154.76 237.411 154.45 237.079 154.258C236.748 154.066 236.211 154.066 235.879 154.258Z" fill="#3B3FBD"/>
<path fill-rule="evenodd" clip-rule="evenodd" d="M240.392 152.827C240.392 153.358 240.252 153.934 240.002 154.473L239.73 154.31C239.906 153.89 240.009 153.447 240.009 153.041C240.009 151.912 239.214 151.454 238.243 152.015C237.359 152.532 236.623 153.712 236.49 154.768L236.167 154.583C236.424 153.388 237.249 152.14 238.235 151.572C239.428 150.886 240.385 151.439 240.385 152.819L240.392 152.827Z" fill="#FF98FF"/>
<path fill-rule="evenodd" clip-rule="evenodd" d="M232.905 152.532C232.574 152.723 232.574 153.033 232.905 153.225C233.236 153.417 233.774 153.417 234.105 153.225C234.436 153.033 234.436 152.723 234.105 152.532C233.774 152.34 233.236 152.34 232.905 152.532Z" fill="#3B3FBD"/>
<path fill-rule="evenodd" clip-rule="evenodd" d="M237.418 151.107C237.418 151.638 237.278 152.214 237.028 152.76L236.755 152.598C236.932 152.177 237.035 151.734 237.035 151.328C237.035 150.199 236.24 149.742 235.268 150.303C234.378 150.819 233.649 152 233.516 153.055L233.192 152.871C233.45 151.675 234.275 150.428 235.261 149.86C236.454 149.173 237.411 149.727 237.411 151.107H237.418Z" fill="#FF98FF"/>
<path fill-rule="evenodd" clip-rule="evenodd" d="M269.361 176.834L230.152 154.14L229.784 154.354L268.993 177.048L269.361 176.834Z" fill="url(#paint3_linear_27_1190)"/>
<path fill-rule="evenodd" clip-rule="evenodd" d="M266.578 178.443L227.369 155.749L226.994 155.963L266.203 178.657L266.578 178.443Z" fill="url(#paint4_linear_27_1190)"/>
<path fill-rule="evenodd" clip-rule="evenodd" d="M263.788 180.059L224.579 157.365L224.211 157.579L263.42 180.273L263.788 180.059Z" fill="url(#paint5_linear_27_1190)"/>
<path fill-rule="evenodd" clip-rule="evenodd" d="M261.005 181.668L221.796 158.974L221.428 159.188L260.637 181.882L261.005 181.668Z" fill="url(#paint6_linear_27_1190)"/>
<path fill-rule="evenodd" clip-rule="evenodd" d="M258.222 183.284L219.013 160.59L218.638 160.804L257.847 183.498L258.222 183.284Z" fill="url(#paint7_linear_27_1190)"/>
<path fill-rule="evenodd" clip-rule="evenodd" d="M255.432 184.893L216.223 162.199L215.855 162.413L255.064 185.107L255.432 184.893Z" fill="url(#paint8_linear_27_1190)"/>
<path fill-rule="evenodd" clip-rule="evenodd" d="M252.65 186.509L213.441 163.815L213.073 164.029L252.274 186.723L252.65 186.509Z" fill="url(#paint9_linear_27_1190)"/>
<path fill-rule="evenodd" clip-rule="evenodd" d="M249.859 188.118L210.658 165.424L210.282 165.638L249.491 188.332L249.859 188.118Z" fill="url(#paint10_linear_27_1190)"/>
<path fill-rule="evenodd" clip-rule="evenodd" d="M247.077 189.727L207.868 167.041L207.5 167.255L246.709 189.948L247.077 189.727Z" fill="url(#paint11_linear_27_1190)"/>
<path fill-rule="evenodd" clip-rule="evenodd" d="M244.294 191.343L205.085 168.649L204.709 168.863L243.918 191.557L244.294 191.343Z" fill="url(#paint12_linear_27_1190)"/>
<path fill-rule="evenodd" clip-rule="evenodd" d="M241.504 192.952L202.295 170.258L201.927 170.48L241.136 193.166L241.504 192.952Z" fill="url(#paint13_linear_27_1190)"/>
<path fill-rule="evenodd" clip-rule="evenodd" d="M238.721 194.568L199.512 171.875L199.144 172.089L238.353 194.782L238.721 194.568Z" fill="url(#paint14_linear_27_1190)"/>
<path fill-rule="evenodd" clip-rule="evenodd" d="M235.938 196.177L196.729 173.483L196.354 173.697L235.563 196.391L235.938 196.177Z" fill="url(#paint15_linear_27_1190)"/>
<path fill-rule="evenodd" clip-rule="evenodd" d="M233.148 197.793L193.939 175.1L193.571 175.314L232.78 198.007L233.148 197.793Z" fill="url(#paint16_linear_27_1190)"/>
<path fill-rule="evenodd" clip-rule="evenodd" d="M230.365 199.402L191.156 176.708L190.781 176.923L229.99 199.616L230.365 199.402Z" fill="url(#paint17_linear_27_1190)"/>
<path fill-rule="evenodd" clip-rule="evenodd" d="M227.575 201.018L188.374 178.325L187.998 178.539L227.207 201.232L227.575 201.018Z" fill="url(#paint18_linear_27_1190)"/>
<path fill-rule="evenodd" clip-rule="evenodd" d="M224.793 202.627L185.584 179.934L185.216 180.148L224.425 202.841L224.793 202.627Z" fill="url(#paint19_linear_27_1190)"/>
<path fill-rule="evenodd" clip-rule="evenodd" d="M222.01 204.244L182.801 181.55L182.425 181.764L221.634 204.458L222.01 204.244Z" fill="url(#paint20_linear_27_1190)"/>
<path fill-rule="evenodd" clip-rule="evenodd" d="M219.22 205.852L180.011 183.159L179.643 183.373L218.851 206.066L219.22 205.852Z" fill="url(#paint21_linear_27_1190)"/>
<path fill-rule="evenodd" clip-rule="evenodd" d="M216.437 207.461L177.228 184.775L176.86 184.989L216.061 207.683L216.437 207.461Z" fill="url(#paint22_linear_27_1190)"/>
<path fill-rule="evenodd" clip-rule="evenodd" d="M324 144.583L286.528 166.266L249.057 144.583V141.757L267.793 135.417L286.528 124.568L324 141.757V144.583Z" fill="#3B3FBD"/>
<path fill-rule="evenodd" clip-rule="evenodd" d="M324 141.756L305.264 152.605L286.528 163.446L267.793 152.605L249.057 141.756L267.793 130.915L286.528 120.074L305.264 130.915L324 141.756Z" fill="url(#paint23_linear_27_1190)"/>
<path fill-rule="evenodd" clip-rule="evenodd" d="M299.154 128.62L298.609 128.93L267.852 111.129L268.389 110.812L299.154 128.62Z" fill="#FF98FF"/>
<path fill-rule="evenodd" clip-rule="evenodd" d="M267.852 135.018L298.609 152.827V128.93L267.852 111.129V135.018Z" fill="#FF98FF"/>
<path fill-rule="evenodd" clip-rule="evenodd" d="M267.852 111.129L283.562 131.565L298.609 128.93L267.852 111.129Z" fill="#3B3FBD"/>
<path fill-rule="evenodd" clip-rule="evenodd" d="M273.137 118L283.562 131.565L293.331 129.86V111.815L273.137 100.133V118Z" fill="#FEFFFF"/>
<path fill-rule="evenodd" clip-rule="evenodd" d="M291.807 113.454V113.085L274.654 103.159V103.528L291.807 113.454Z" fill="url(#paint24_linear_27_1190)"/>
<path fill-rule="evenodd" clip-rule="evenodd" d="M291.807 115.683V115.321L274.654 105.395V105.756L291.807 115.683Z" fill="url(#paint25_linear_27_1190)"/>
<path fill-rule="evenodd" clip-rule="evenodd" d="M291.807 117.919V117.55L274.654 107.624V107.993L291.807 117.919Z" fill="url(#paint26_linear_27_1190)"/>
<path fill-rule="evenodd" clip-rule="evenodd" d="M291.807 120.155V119.786L274.654 109.86V110.229L291.807 120.155Z" fill="url(#paint27_linear_27_1190)"/>
<path fill-rule="evenodd" clip-rule="evenodd" d="M291.807 122.384V122.022L274.654 112.096V112.458L291.807 122.384Z" fill="url(#paint28_linear_27_1190)"/>
<path fill-rule="evenodd" clip-rule="evenodd" d="M291.807 124.62V124.251L274.654 114.325V114.694L291.807 124.62Z" fill="url(#paint29_linear_27_1190)"/>
<path fill-rule="evenodd" clip-rule="evenodd" d="M291.807 126.856V126.487L274.654 116.561V116.93L291.807 126.856Z" fill="url(#paint30_linear_27_1190)"/>
<path fill-rule="evenodd" clip-rule="evenodd" d="M291.807 129.085V128.716L274.654 118.797V119.159L291.807 129.085Z" fill="url(#paint31_linear_27_1190)"/>
<path fill-rule="evenodd" clip-rule="evenodd" d="M299.154 152.517L298.609 152.827V128.93L299.154 128.62V152.517Z" fill="#FF98FF"/>
<path fill-rule="evenodd" clip-rule="evenodd" d="M129.766 69.6312L106.407 83.1515L83.0483 69.6312V66.8858L94.7241 62.9301L106.407 56.1699L129.766 66.8858V69.6312Z" fill="#3B3FBD"/>
<path fill-rule="evenodd" clip-rule="evenodd" d="M129.766 66.8858L118.09 73.6459L106.407 80.4061L94.7241 73.6459L83.0483 66.8858L94.7241 60.1256L106.407 53.3655L118.09 60.1256L129.766 66.8858Z" fill="url(#paint32_linear_27_1190)"/>
<path fill-rule="evenodd" clip-rule="evenodd" d="M105.082 68.7751L104.435 68.4725L100.805 66.1921C99.48 65.4024 99.0898 64.0666 99.0898 62.7603L99.1119 35.6312L111.362 35.5574L111.34 62.8341C111.34 65.0703 110.906 66.0223 109.279 67.1588C108.741 67.5352 108.079 67.9264 107.254 68.3913C106.599 68.7529 105.826 68.9743 105.09 68.7751H105.082Z" fill="#FF98FF"/>
<path fill-rule="evenodd" clip-rule="evenodd" d="M104.427 68.4651L100.798 66.1847C99.4727 65.395 99.0825 64.0592 99.0825 62.7529L99.1046 42.6939L103.19 40.6865L103.168 65.0777C103.168 66.2216 103.426 67.7493 104.427 68.4577V68.4651Z" fill="#FF98FF"/>
<path fill-rule="evenodd" clip-rule="evenodd" d="M91.6248 58.3765C87.4875 62.3175 84.079 66.7381 80.8103 72.3691L56.4133 26.1846C59.7629 26.3913 62.958 26.5536 66.072 26.5536C83.7182 26.5536 93.053 20.2289 107.769 12.251C112.945 9.04809 119.18 15.2769 121.764 19.2473C124.326 23.1883 127.514 31.4319 124.385 36.4282C123.354 38.0592 122.029 38.5462 120.424 39.4171L111.362 44.347C104.626 48.0149 97.1535 53.1071 91.6248 58.3765Z" fill="url(#paint33_linear_27_1190)"/>
<path fill-rule="evenodd" clip-rule="evenodd" d="M74.1406 59.7492L56.406 26.1846C59.7556 26.3913 62.9506 26.5536 66.0647 26.5536C83.7109 26.5536 93.0457 20.2289 107.762 12.251C112.937 9.04809 119.173 15.2769 121.757 19.2473C122.427 20.2732 123.141 21.6016 123.766 23.0776C122.861 23.6902 121.86 24.1551 120.748 24.7603L108.866 31.2178C100.032 36.0223 90.2408 42.7012 82.9968 49.609C79.7576 52.6938 76.8571 56.0075 74.1332 59.7492H74.1406Z" fill="url(#paint34_linear_27_1190)"/>
<path fill-rule="evenodd" clip-rule="evenodd" d="M36.8605 42.5905C36.8163 56.0075 46.2615 72.3913 57.9079 79.1367C69.5542 85.8747 79.051 80.4429 79.0878 67.026C79.1246 53.6164 69.6868 37.2178 58.0404 30.4872C46.4014 23.7492 36.8973 29.1809 36.8605 42.5905Z" fill="#FF98FF"/>
<path fill-rule="evenodd" clip-rule="evenodd" d="M39.4446 42.5978C39.4078 55.1218 48.3892 70.6347 59.1963 76.893C69.0464 82.5978 76.4744 78.5019 76.5039 67.0185C76.5407 54.5019 67.5593 38.9816 56.7448 32.7233C46.8948 27.0185 39.4741 31.1144 39.4373 42.5905L39.4446 42.5978Z" fill="#3B3FBD"/>
<path fill-rule="evenodd" clip-rule="evenodd" d="M125.659 31.5279C125.673 30.8932 125.644 30.2437 125.585 29.5869C125.651 30.2437 125.673 30.8932 125.659 31.5279Z" fill="url(#paint35_radial_27_1190)"/>
<path fill-rule="evenodd" clip-rule="evenodd" d="M125.533 29.1588C125.121 25.8156 123.737 22.2806 121.764 19.24C123.744 22.2732 125.121 25.8083 125.533 29.1588Z" fill="url(#paint36_radial_27_1190)"/>
<path fill-rule="evenodd" clip-rule="evenodd" d="M125.577 29.5941C125.563 29.4465 125.548 29.3063 125.526 29.1587C125.541 29.3063 125.563 29.4465 125.577 29.5941Z" fill="#843A84"/>
<path fill-rule="evenodd" clip-rule="evenodd" d="M78.1527 77.1367L78.1306 77.0924C78.1748 77.0408 78.219 76.9965 78.2631 76.9448L78.1601 77.1367H78.1527Z" fill="url(#paint37_linear_27_1190)"/>
<path fill-rule="evenodd" clip-rule="evenodd" d="M46.9976 26.8045L47.0271 26.7898L47.0492 26.775C48.5657 25.9558 50.2957 25.5352 52.1877 25.5352C53.5275 25.5352 54.941 25.7492 56.4134 26.1846C58.1581 26.7012 59.9838 27.5278 61.8611 28.6864C66.6831 31.6532 71.0633 36.3248 74.4939 41.7418C79.2055 49.1809 82.1208 58.0296 81.9073 65.8156C81.841 68.2879 81.4582 70.4872 80.8177 72.3765C79.1319 77.3064 74.4277 80.2732 72.2928 80.9964L72.278 80.9521C76.4522 78.9152 79.0803 74.0739 79.0951 67.0333C79.1319 53.6237 69.694 37.2252 58.0477 30.4946C57.871 30.3912 57.6943 30.2953 57.525 30.1994L57.4808 30.1772C57.3189 30.0887 57.1569 30.0001 56.9949 29.9189L56.9434 29.8894C56.7741 29.8008 56.6048 29.7123 56.4354 29.6311H56.4281C56.2588 29.5425 56.0894 29.4614 55.9201 29.3802L55.8686 29.358C55.714 29.2842 55.5594 29.2178 55.4048 29.1514L55.3459 29.1219C55.1839 29.0555 55.0293 28.989 54.8747 28.9226L54.8379 28.9079C54.676 28.8414 54.514 28.7824 54.3521 28.7233L54.2858 28.7012C54.1386 28.6495 53.9987 28.5979 53.8515 28.5462L53.7705 28.5167C53.6232 28.465 53.4834 28.4208 53.3361 28.3765L53.2699 28.3543C53.1153 28.3101 52.968 28.2658 52.8208 28.2215C52.7914 28.2141 52.7619 28.2067 52.7251 28.1994C52.5926 28.1625 52.4674 28.1256 52.3349 28.096L52.2245 28.0665C52.0993 28.037 51.9742 28.0075 51.849 27.978C51.8049 27.9706 51.7681 27.9558 51.7239 27.9484C51.5914 27.9189 51.4589 27.8968 51.3337 27.8673C51.2896 27.8599 51.2527 27.8525 51.2086 27.8451C51.0981 27.823 50.9804 27.8008 50.8699 27.7861C50.8258 27.7787 50.7742 27.7713 50.7301 27.7639C50.6196 27.7492 50.5166 27.7344 50.4061 27.7197C50.3472 27.7123 50.2883 27.7049 50.2295 27.6975C50.1338 27.6828 50.0307 27.6754 49.935 27.668C49.8687 27.668 49.8025 27.6532 49.7436 27.6532C49.6479 27.6459 49.5522 27.6385 49.4565 27.6311C49.3976 27.6311 49.3387 27.6311 49.2871 27.6237C49.1988 27.6237 49.1105 27.6163 49.0221 27.6163C48.9411 27.6163 48.8602 27.6163 48.7865 27.6163C48.7203 27.6163 48.654 27.6163 48.5878 27.6163C48.4994 27.6163 48.4111 27.6163 48.3301 27.6163C48.2639 27.6163 48.1976 27.6163 48.1313 27.6163C48.0504 27.6163 47.9767 27.6163 47.8958 27.6237C47.8221 27.6237 47.7485 27.6311 47.6823 27.6385C47.5866 27.6385 47.4909 27.6532 47.3952 27.6606C47.3583 27.6606 47.3142 27.668 47.2774 27.6754C47.1743 27.6828 47.0786 27.6975 46.9755 27.7123C46.9461 27.7123 46.9093 27.7197 46.8798 27.727C46.6074 27.7639 46.3351 27.8156 46.07 27.8746L46.0185 27.8894C45.9081 27.9115 45.7977 27.9411 45.6872 27.9706H45.6651C44.8701 28.1846 44.1192 28.4724 43.4124 28.8488H43.3977L47.0344 26.8267L46.9976 26.8045Z" fill="#FF98FF"/>
<path fill-rule="evenodd" clip-rule="evenodd" d="M56.9803 75.9264H56.9656V75.9116H56.9729V75.9264H56.9803ZM59.5127 34.0518H59.498L59.4833 34.0297H59.4686L59.4538 34.0076H59.4391L59.4244 33.9854H59.4097L59.395 33.9633H59.3802L59.3655 33.9411H59.3508L59.3361 33.919H59.3213L59.3066 33.8969H59.2919L59.2772 33.8747H59.2624L59.2477 33.8526H59.233L59.2183 33.8304H59.2035L59.1888 33.8083H59.1741L59.1594 33.7862H59.1446L59.1152 33.7566H59.1005L59.0858 33.7345L59.0563 33.7124L59.0269 33.6902L58.9974 33.6755L58.9827 33.6607L58.9385 33.6312L58.8796 33.5943L58.8502 33.5721H58.8355L58.806 33.5426L58.7766 33.5205H58.7618L58.7324 33.491H58.7177L58.7029 33.4688H58.6882L58.6735 33.4467H58.6588L58.6441 33.4245H58.6293L58.6146 33.4024H58.5999L58.5852 33.3803H58.5704L58.541 33.3581L58.5704 33.3729H58.5852L58.5999 33.3876H58.6146L58.6293 33.4024H58.6441L58.6588 33.4245H58.6735L58.6882 33.4467H58.7029L58.7177 33.4688H58.7324L58.7618 33.4983H58.7766L58.806 33.5279L58.8355 33.55H58.8502L58.8796 33.5795L58.9385 33.6164L58.9827 33.6459H58.9974V33.6607L59.0269 33.6755L59.0563 33.6976L59.0858 33.7197H59.1005L59.1152 33.7419L59.1446 33.764H59.1594L59.1741 33.7862H59.1888L59.2035 33.8083H59.2183L59.233 33.8304H59.2477L59.2624 33.8526H59.2772L59.2919 33.8747H59.3066L59.3213 33.8969H59.3361L59.3508 33.919H59.3655L59.3802 33.9411H59.395L59.4097 33.9633H59.4244L59.4391 33.9854H59.4538L59.4686 34.0076H59.4833L59.498 34.0297H59.5127V34.0518Z" fill="url(#paint38_linear_27_1190)"/>
<path fill-rule="evenodd" clip-rule="evenodd" d="M66.7125 41.6458C69.9738 45.7565 72.6461 50.5756 74.3761 55.4834L59.9617 59.9705C59.763 60.0369 59.5495 60.0664 59.3286 60.0664C58.7912 60.0664 58.1875 59.8819 57.5544 59.4908H57.5397C55.4416 58.1845 53.8073 55.1365 53.8735 52.6716C53.903 51.5351 54.2931 50.7159 54.9115 50.2952L66.7199 41.6531L66.7125 41.6458Z" fill="url(#paint39_linear_27_1190)"/>
<path fill-rule="evenodd" clip-rule="evenodd" d="M63.142 44.2583C63.2156 44.3026 63.2966 44.3469 63.3702 44.3985C66.9481 46.6052 69.7529 51.8007 69.6425 56.0074C69.6351 56.3469 69.6057 56.6716 69.5615 56.9815L59.9617 59.9705C59.763 60.0369 59.5495 60.0664 59.3286 60.0664C58.7912 60.0664 58.1875 59.8819 57.5544 59.4908H57.5397C55.4416 58.1845 53.8073 55.1365 53.8735 52.6716C53.903 51.5351 54.2931 50.7159 54.9115 50.2952L63.1494 44.2657L63.142 44.2583Z" fill="url(#paint40_linear_27_1190)"/>
<path fill-rule="evenodd" clip-rule="evenodd" d="M59.2625 60.0665C58.725 60.0665 58.1214 59.882 57.4883 59.4908H57.4735C55.3754 58.1845 53.7411 55.1366 53.8074 52.6716C53.8368 51.5351 54.227 50.7159 54.8454 50.2952C55.1619 50.0812 55.5374 49.9631 55.957 49.9631C56.4944 49.9631 57.0981 50.1476 57.7312 50.5388C59.8293 51.8303 61.4784 54.8856 61.4121 57.358C61.3753 58.7676 60.7864 59.6827 59.8956 59.9705C59.6968 60.0369 59.4833 60.0665 59.2625 60.0665Z" fill="#FF98FF"/>
<path fill-rule="evenodd" clip-rule="evenodd" d="M0 100.893L12.9715 108.406L25.943 100.893V98.4796L19.4572 96.2804L12.9715 92.5239L0 98.4796V100.893Z" fill="url(#paint41_linear_27_1190)"/>
<path fill-rule="evenodd" clip-rule="evenodd" d="M0 98.4797L6.48574 102.229L12.9715 105.985L19.4572 102.229L25.943 98.4797L19.4572 94.7233L12.9715 90.9668L6.48574 94.7233L0 98.4797Z" fill="#FEFFFF"/>
<path fill-rule="evenodd" clip-rule="evenodd" d="M34.1367 102.458L50.5314 111.949L66.9262 102.458V99.4024L58.7251 96.6275L50.5314 91.8821L34.1367 99.4024V102.458Z" fill="#3B3FBD"/>
<path fill-rule="evenodd" clip-rule="evenodd" d="M34.1367 99.4024L42.3378 104.148L50.5314 108.893L58.7251 104.148L66.9262 99.4024L58.7251 94.657L50.5314 89.9116L42.3378 94.657L34.1367 99.4024Z" fill="url(#paint42_linear_27_1190)"/>
<path fill-rule="evenodd" clip-rule="evenodd" d="M264.281 215.055L286.234 227.764L308.187 215.055V210.967L297.211 207.247L286.234 200.893L264.281 210.967V215.055Z" fill="#3B3FBD"/>
<path fill-rule="evenodd" clip-rule="evenodd" d="M264.281 210.967L275.258 217.321L286.234 223.675L297.211 217.321L308.187 210.967L297.211 204.613L286.234 198.258L275.258 204.613L264.281 210.967Z" fill="#FF98FF"/>
<path fill-rule="evenodd" clip-rule="evenodd" d="M28.0264 145.897L58.4306 163.498L88.8422 145.897V140.229L73.6401 135.085L58.4306 126.281L28.0264 140.229V145.897Z" fill="#3B3FBD"/>
<path fill-rule="evenodd" clip-rule="evenodd" d="M28.0264 140.229L43.2285 149.033L58.4306 157.83L73.6401 149.033L88.8422 140.229L73.6401 131.432L58.4306 122.635L43.2285 131.432L28.0264 140.229Z" fill="url(#paint43_linear_27_1190)"/>
<path fill-rule="evenodd" clip-rule="evenodd" d="M117.075 173.078L117.038 173.151L117.06 173.048C116.699 171.609 115.83 170.207 114.446 168.945C113.74 168.288 112.915 167.683 111.929 167.129C104.847 163.026 93.3107 163.026 86.2213 167.129C84.7637 167.978 83.6005 168.937 82.7466 169.948C81.9147 170.937 81.3699 171.978 81.1049 173.041C81.0754 173.388 81.0828 174.273 81.1049 174.568C81.657 176.731 83.3723 178.812 86.2287 180.48C93.3181 184.59 104.854 184.59 111.936 180.48C114.807 178.812 116.515 176.738 117.067 174.568C117.097 174.45 117.104 174.317 117.104 174.177C117.126 173.808 117.097 173.395 117.075 173.063V173.078Z" fill="#FEFFFF"/>
<path fill-rule="evenodd" clip-rule="evenodd" d="M87.0016 167.542C89.0924 166.339 91.5806 165.506 94.2162 165.063C97.3965 164.509 100.776 164.509 103.956 165.063C104.589 165.166 105.222 165.291 105.826 165.454L105.914 165.469C106.547 165.631 107.18 165.815 107.777 166.015C108.078 166.118 108.38 166.236 108.675 166.339C109.529 166.679 110.361 167.077 111.134 167.513L111.163 167.535C111.649 167.808 112.091 168.103 112.495 168.413C115.492 170.598 116.655 173.343 115.985 175.978C111.48 193.742 65.7849 179.911 87.0016 167.535V167.542ZM77.3503 175.985C77.8803 178.731 79.9637 181.402 83.6004 183.513C86.6261 185.269 90.3218 186.391 94.2162 186.9C95.8284 187.122 97.4627 187.225 99.0823 187.225C100.702 187.225 102.351 187.122 103.948 186.9C104.162 186.871 104.383 186.841 104.604 186.804C107.32 186.362 110.604 185.277 113.011 184.251C113.313 184.125 113.6 184 113.865 183.875C113.96 183.646 114.071 183.417 114.203 183.196C115.33 181.24 117.487 179.373 119.18 179.565L119.423 179.225C120.137 178.177 120.608 177.085 120.829 175.978C120.888 175.675 120.932 175.373 120.954 175.07C120.976 174.694 120.976 174.303 120.954 173.919C120.697 170.886 118.569 167.882 114.579 165.572C106.039 160.62 92.1328 160.62 83.5931 165.572C79.7134 167.815 77.6006 170.708 77.2472 173.653L77.2178 173.941V175.129L77.2472 175.424C77.2693 175.601 77.284 175.793 77.3429 175.97L77.3503 175.985Z" fill="#3B3FBD"/>
<path fill-rule="evenodd" clip-rule="evenodd" d="M119.43 177.779L119.187 178.111H119.195L119.445 178.155H119.452L120.468 178.679C120.711 178.022 120.895 177.24 120.961 176.583C120.984 176.199 120.984 175.815 120.961 175.432V173.616C120.939 173.919 120.895 174.221 120.836 174.524C120.615 175.624 120.152 176.723 119.43 177.771V177.779Z" fill="#3B3FBD"/>
<path fill-rule="evenodd" clip-rule="evenodd" d="M87.0016 166.096C89.0924 164.893 91.5806 164.059 94.2162 163.616C97.3965 163.063 100.776 163.063 103.956 163.616C104.589 163.72 105.222 163.845 105.826 164.008L105.914 164.022C106.547 164.185 107.18 164.369 107.777 164.568C108.078 164.672 108.38 164.79 108.675 164.893C109.529 165.233 110.361 165.631 111.134 166.067L111.163 166.089C111.649 166.362 112.091 166.657 112.495 166.967C115.492 169.151 116.655 171.897 115.985 174.532C111.48 192.295 65.7849 178.465 87.0016 166.089V166.096ZM77.3503 174.539C77.8803 177.284 79.9637 179.956 83.6004 182.067C86.6261 183.823 90.3218 184.945 94.2162 185.454C95.8284 185.675 97.4627 185.779 99.0823 185.779C100.702 185.779 102.351 185.675 103.948 185.454C104.162 185.425 104.383 185.395 104.604 185.358C107.32 184.915 110.604 183.83 113.011 182.805C113.313 182.679 113.6 182.554 113.865 182.428C113.96 182.199 114.071 181.971 114.203 181.749C115.33 179.794 117.487 177.926 119.18 178.118L119.423 177.779C120.137 176.731 120.608 175.639 120.829 174.532C120.888 174.229 120.932 173.926 120.954 173.624C120.976 173.247 120.976 172.856 120.954 172.473C120.697 169.439 118.569 166.436 114.579 164.126C106.039 159.174 92.1328 159.174 83.5931 164.126C79.7134 166.369 77.6006 169.262 77.2472 172.207L77.2178 172.495V173.683L77.2472 173.978C77.2693 174.155 77.284 174.347 77.3429 174.524L77.3503 174.539Z" fill="#FF98FF"/>
<path fill-rule="evenodd" clip-rule="evenodd" d="M113.997 184.82C113.511 184.207 113.57 183.351 113.732 182.775L113.828 182.524L113.872 182.421C113.607 182.547 113.32 182.672 113.018 182.797C110.611 183.823 107.32 184.901 104.611 185.351C104.39 185.38 104.162 185.41 103.956 185.447C100.783 186 97.4038 186 94.2161 185.447C90.3217 184.938 86.6261 183.816 83.6004 182.059C79.9637 179.956 77.8803 177.285 77.3502 174.532C77.2987 174.355 77.284 174.163 77.2545 173.986L77.2251 173.69V176.561L77.2545 176.849C77.6079 179.786 79.7207 182.687 83.6004 184.93C92.0738 189.845 105.811 189.993 114.365 185.159C114.24 185.056 114.115 184.945 114.005 184.834H113.997V184.82Z" fill="#3B3FBD"/>
<path fill-rule="evenodd" clip-rule="evenodd" d="M152.47 197.07C152.271 196.177 151.756 195.373 151.02 194.79C150.784 194.583 150.527 194.413 150.247 194.28C143.216 190.708 129.074 183.033 122.036 179.476L120.652 178.79L120.461 178.694L119.445 178.17H119.438L119.187 178.125H119.18C117.487 177.926 115.33 179.801 114.203 181.756C114.071 181.985 113.961 182.207 113.865 182.435L113.821 182.539L113.725 182.79C113.563 183.358 113.504 184.221 113.99 184.834H113.997C114.108 184.959 114.233 185.07 114.358 185.173C114.513 185.306 114.689 185.424 114.866 185.535L115.109 185.66L116.942 186.59L121.035 188.664L142.164 199.867L146.36 201.985C146.507 202.059 146.654 202.118 146.794 202.17C147.354 202.391 147.95 202.465 148.509 202.435C150.011 202.354 151.41 201.505 152.131 200.081C152.625 199.107 152.706 198.044 152.448 197.077L152.47 197.07ZM146.772 198.93C147.089 197.793 147.678 196.672 148.428 195.875C147.678 196.672 147.089 197.801 146.772 198.93Z" fill="url(#paint44_linear_27_1190)"/>
<path fill-rule="evenodd" clip-rule="evenodd" d="M152.463 197.071C150.711 199.432 148.767 199.595 146.765 198.93L120.792 185.107C119.541 184.443 118.363 183.823 117.325 183.292C115.941 182.561 114.822 182.015 114.196 181.75C114.064 181.978 113.953 182.2 113.858 182.428L113.813 182.532L113.718 182.783C113.556 183.351 113.497 184.214 113.983 184.827H113.99C114.1 184.952 114.226 185.063 114.351 185.166C114.505 185.299 114.682 185.417 114.859 185.528L115.102 185.654L116.935 186.583L121.028 188.657L142.156 199.86L146.352 201.978C146.5 202.052 146.647 202.111 146.787 202.163C147.346 202.384 147.943 202.458 148.502 202.428C150.004 202.347 151.403 201.499 152.124 200.074C152.617 199.1 152.698 198.037 152.441 197.071H152.463Z" fill="#3B3FBD"/>
<path fill-rule="evenodd" clip-rule="evenodd" d="M99.2222 216.901L113.762 225.321L128.309 216.901V214.192L121.035 211.727L113.762 207.521L99.2222 214.192V216.901Z" fill="url(#paint45_linear_27_1190)"/>
<path fill-rule="evenodd" clip-rule="evenodd" d="M99.2222 214.192L106.496 218.399L113.762 222.613L121.035 218.399L128.309 214.192L121.035 209.986L113.762 205.771L106.496 209.986L99.2222 214.192Z" fill="#FF98FF"/>
<path fill-rule="evenodd" clip-rule="evenodd" d="M140.868 225.07L159.25 235.705L177.633 225.07V221.646L168.438 218.531L159.25 213.21L140.868 221.646V225.07Z" fill="#3B3FBD"/>
<path fill-rule="evenodd" clip-rule="evenodd" d="M140.868 221.646L150.063 226.96L159.25 232.281L168.438 226.96L177.633 221.646L168.438 216.325L159.25 211.004L150.063 216.325L140.868 221.646Z" fill="url(#paint46_linear_27_1190)"/>
<defs>
<linearGradient id="paint0_linear_27_1190" x1="206.627" y1="-0.000244141" x2="206.627" y2="130.188" gradientUnits="userSpaceOnUse">
<stop stop-color="#454CEE"/>
<stop offset="1" stop-color="#9195FE"/>
</linearGradient>
<linearGradient id="paint1_linear_27_1190" x1="157.268" y1="75.3059" x2="157.268" y2="168.914" gradientUnits="userSpaceOnUse">
<stop stop-color="#454CEE"/>
<stop offset="1" stop-color="#9195FE"/>
</linearGradient>
<linearGradient id="paint2_linear_27_1190" x1="221.482" y1="151.723" x2="221.482" y2="218.25" gradientUnits="userSpaceOnUse">
<stop stop-color="#454CEE"/>
<stop offset="1" stop-color="#9195FE"/>
</linearGradient>
<linearGradient id="paint3_linear_27_1190" x1="249.572" y1="154.14" x2="249.572" y2="177.048" gradientUnits="userSpaceOnUse">
<stop stop-color="#454CEE"/>
<stop offset="1" stop-color="#9195FE"/>
</linearGradient>
<linearGradient id="paint4_linear_27_1190" x1="246.786" y1="155.749" x2="246.786" y2="178.657" gradientUnits="userSpaceOnUse">
<stop stop-color="#454CEE"/>
<stop offset="1" stop-color="#9195FE"/>
</linearGradient>
<linearGradient id="paint5_linear_27_1190" x1="243.999" y1="157.365" x2="243.999" y2="180.273" gradientUnits="userSpaceOnUse">
<stop stop-color="#454CEE"/>
<stop offset="1" stop-color="#9195FE"/>
</linearGradient>
<linearGradient id="paint6_linear_27_1190" x1="241.217" y1="158.974" x2="241.217" y2="181.882" gradientUnits="userSpaceOnUse">
<stop stop-color="#454CEE"/>
<stop offset="1" stop-color="#9195FE"/>
</linearGradient>
<linearGradient id="paint7_linear_27_1190" x1="238.43" y1="160.59" x2="238.43" y2="183.498" gradientUnits="userSpaceOnUse">
<stop stop-color="#454CEE"/>
<stop offset="1" stop-color="#9195FE"/>
</linearGradient>
<linearGradient id="paint8_linear_27_1190" x1="235.644" y1="162.199" x2="235.644" y2="185.107" gradientUnits="userSpaceOnUse">
<stop stop-color="#454CEE"/>
<stop offset="1" stop-color="#9195FE"/>
</linearGradient>
<linearGradient id="paint9_linear_27_1190" x1="232.861" y1="163.815" x2="232.861" y2="186.723" gradientUnits="userSpaceOnUse">
<stop stop-color="#454CEE"/>
<stop offset="1" stop-color="#9195FE"/>
</linearGradient>
<linearGradient id="paint10_linear_27_1190" x1="230.071" y1="165.424" x2="230.071" y2="188.332" gradientUnits="userSpaceOnUse">
<stop stop-color="#454CEE"/>
<stop offset="1" stop-color="#9195FE"/>
</linearGradient>
<linearGradient id="paint11_linear_27_1190" x1="227.288" y1="167.041" x2="227.288" y2="189.948" gradientUnits="userSpaceOnUse">
<stop stop-color="#454CEE"/>
<stop offset="1" stop-color="#9195FE"/>
</linearGradient>
<linearGradient id="paint12_linear_27_1190" x1="224.502" y1="168.649" x2="224.502" y2="191.557" gradientUnits="userSpaceOnUse">
<stop stop-color="#454CEE"/>
<stop offset="1" stop-color="#9195FE"/>
</linearGradient>
<linearGradient id="paint13_linear_27_1190" x1="221.715" y1="170.258" x2="221.715" y2="193.166" gradientUnits="userSpaceOnUse">
<stop stop-color="#454CEE"/>
<stop offset="1" stop-color="#9195FE"/>
</linearGradient>
<linearGradient id="paint14_linear_27_1190" x1="218.933" y1="171.875" x2="218.933" y2="194.782" gradientUnits="userSpaceOnUse">
<stop stop-color="#454CEE"/>
<stop offset="1" stop-color="#9195FE"/>
</linearGradient>
<linearGradient id="paint15_linear_27_1190" x1="216.146" y1="173.483" x2="216.146" y2="196.391" gradientUnits="userSpaceOnUse">
<stop stop-color="#454CEE"/>
<stop offset="1" stop-color="#9195FE"/>
</linearGradient>
<linearGradient id="paint16_linear_27_1190" x1="213.36" y1="175.1" x2="213.36" y2="198.007" gradientUnits="userSpaceOnUse">
<stop stop-color="#454CEE"/>
<stop offset="1" stop-color="#9195FE"/>
</linearGradient>
<linearGradient id="paint17_linear_27_1190" x1="210.573" y1="176.708" x2="210.573" y2="199.616" gradientUnits="userSpaceOnUse">
<stop stop-color="#454CEE"/>
<stop offset="1" stop-color="#9195FE"/>
</linearGradient>
<linearGradient id="paint18_linear_27_1190" x1="207.787" y1="178.325" x2="207.787" y2="201.232" gradientUnits="userSpaceOnUse">
<stop stop-color="#454CEE"/>
<stop offset="1" stop-color="#9195FE"/>
</linearGradient>
<linearGradient id="paint19_linear_27_1190" x1="205.004" y1="179.934" x2="205.004" y2="202.841" gradientUnits="userSpaceOnUse">
<stop stop-color="#454CEE"/>
<stop offset="1" stop-color="#9195FE"/>
</linearGradient>
<linearGradient id="paint20_linear_27_1190" x1="202.217" y1="181.55" x2="202.217" y2="204.458" gradientUnits="userSpaceOnUse">
<stop stop-color="#454CEE"/>
<stop offset="1" stop-color="#9195FE"/>
</linearGradient>
<linearGradient id="paint21_linear_27_1190" x1="199.431" y1="183.159" x2="199.431" y2="206.066" gradientUnits="userSpaceOnUse">
<stop stop-color="#454CEE"/>
<stop offset="1" stop-color="#9195FE"/>
</linearGradient>
<linearGradient id="paint22_linear_27_1190" x1="196.648" y1="184.775" x2="196.648" y2="207.683" gradientUnits="userSpaceOnUse">
<stop stop-color="#454CEE"/>
<stop offset="1" stop-color="#9195FE"/>
</linearGradient>
<linearGradient id="paint23_linear_27_1190" x1="286.528" y1="120.074" x2="286.528" y2="163.446" gradientUnits="userSpaceOnUse">
<stop stop-color="#454CEE"/>
<stop offset="1" stop-color="#9195FE"/>
</linearGradient>
<linearGradient id="paint24_linear_27_1190" x1="283.23" y1="103.159" x2="283.23" y2="113.454" gradientUnits="userSpaceOnUse">
<stop stop-color="#454CEE"/>
<stop offset="1" stop-color="#9195FE"/>
</linearGradient>
<linearGradient id="paint25_linear_27_1190" x1="283.23" y1="105.395" x2="283.23" y2="115.683" gradientUnits="userSpaceOnUse">
<stop stop-color="#454CEE"/>
<stop offset="1" stop-color="#9195FE"/>
</linearGradient>
<linearGradient id="paint26_linear_27_1190" x1="283.23" y1="107.624" x2="283.23" y2="117.919" gradientUnits="userSpaceOnUse">
<stop stop-color="#454CEE"/>
<stop offset="1" stop-color="#9195FE"/>
</linearGradient>
<linearGradient id="paint27_linear_27_1190" x1="283.23" y1="109.86" x2="283.23" y2="120.155" gradientUnits="userSpaceOnUse">
<stop stop-color="#454CEE"/>
<stop offset="1" stop-color="#9195FE"/>
</linearGradient>
<linearGradient id="paint28_linear_27_1190" x1="283.23" y1="112.096" x2="283.23" y2="122.384" gradientUnits="userSpaceOnUse">
<stop stop-color="#454CEE"/>
<stop offset="1" stop-color="#9195FE"/>
</linearGradient>
<linearGradient id="paint29_linear_27_1190" x1="283.23" y1="114.325" x2="283.23" y2="124.62" gradientUnits="userSpaceOnUse">
<stop stop-color="#454CEE"/>
<stop offset="1" stop-color="#9195FE"/>
</linearGradient>
<linearGradient id="paint30_linear_27_1190" x1="283.23" y1="116.561" x2="283.23" y2="126.856" gradientUnits="userSpaceOnUse">
<stop stop-color="#454CEE"/>
<stop offset="1" stop-color="#9195FE"/>
</linearGradient>
<linearGradient id="paint31_linear_27_1190" x1="283.23" y1="118.797" x2="283.23" y2="129.085" gradientUnits="userSpaceOnUse">
<stop stop-color="#454CEE"/>
<stop offset="1" stop-color="#9195FE"/>
</linearGradient>
<linearGradient id="paint32_linear_27_1190" x1="106.407" y1="53.3655" x2="106.407" y2="80.4061" gradientUnits="userSpaceOnUse">
<stop stop-color="#454CEE"/>
<stop offset="1" stop-color="#9195FE"/>
</linearGradient>
<linearGradient id="paint33_linear_27_1190" x1="91.0481" y1="11.3665" x2="91.0481" y2="72.3691" gradientUnits="userSpaceOnUse">
<stop stop-color="#454CEE"/>
<stop offset="1" stop-color="#9195FE"/>
</linearGradient>
<linearGradient id="paint34_linear_27_1190" x1="90.0862" y1="11.3665" x2="90.0862" y2="59.7492" gradientUnits="userSpaceOnUse">
<stop stop-color="#454CEE"/>
<stop offset="1" stop-color="#9195FE"/>
</linearGradient>
<radialGradient id="paint35_radial_27_1190" cx="0" cy="0" r="1" gradientUnits="userSpaceOnUse" gradientTransform="translate(-41.8669 -154.251) rotate(-90) scale(372.893 327.35)">
<stop stop-color="#2E2C69"/>
<stop offset="0.31" stop-color="#2B2963"/>
<stop offset="1" stop-color="#1E1A4B"/>
</radialGradient>
<radialGradient id="paint36_radial_27_1190" cx="0" cy="0" r="1" gradientUnits="userSpaceOnUse" gradientTransform="translate(-65.3731 -154.369) scale(372.832 373.756)">
<stop stop-color="#3B5285"/>
<stop offset="0.31" stop-color="#395081"/>
<stop offset="1" stop-color="#2F4773"/>
</radialGradient>
<linearGradient id="paint37_linear_27_1190" x1="70.04" y1="69.0631" x2="78.1205" y2="76.9176" gradientUnits="userSpaceOnUse">
<stop stop-color="#8684BD"/>
<stop offset="0.74" stop-color="#4A4D9B"/>
<stop offset="1" stop-color="#4A4D9B"/>
</linearGradient>
<linearGradient id="paint38_linear_27_1190" x1="37.4053" y1="53.978" x2="76.5407" y2="55.0575" gradientUnits="userSpaceOnUse">
<stop stop-color="#92BDD0"/>
<stop offset="1" stop-color="#82ABCC"/>
</linearGradient>
<linearGradient id="paint39_linear_27_1190" x1="64.1239" y1="41.6458" x2="64.1239" y2="60.0664" gradientUnits="userSpaceOnUse">
<stop stop-color="#454CEE"/>
<stop offset="1" stop-color="#9195FE"/>
</linearGradient>
<linearGradient id="paint40_linear_27_1190" x1="61.7586" y1="44.2583" x2="61.7586" y2="60.0664" gradientUnits="userSpaceOnUse">
<stop stop-color="#454CEE"/>
<stop offset="1" stop-color="#9195FE"/>
</linearGradient>
<linearGradient id="paint41_linear_27_1190" x1="12.9715" y1="92.5239" x2="12.9715" y2="108.406" gradientUnits="userSpaceOnUse">
<stop stop-color="#454CEE"/>
<stop offset="1" stop-color="#9195FE"/>
</linearGradient>
<linearGradient id="paint42_linear_27_1190" x1="50.5314" y1="89.9116" x2="50.5314" y2="108.893" gradientUnits="userSpaceOnUse">
<stop stop-color="#454CEE"/>
<stop offset="1" stop-color="#9195FE"/>
</linearGradient>
<linearGradient id="paint43_linear_27_1190" x1="58.4343" y1="122.635" x2="58.4343" y2="157.83" gradientUnits="userSpaceOnUse">
<stop stop-color="#454CEE"/>
<stop offset="1" stop-color="#9195FE"/>
</linearGradient>
<linearGradient id="paint44_linear_27_1190" x1="133.1" y1="178.111" x2="133.1" y2="202.442" gradientUnits="userSpaceOnUse">
<stop stop-color="#454CEE"/>
<stop offset="1" stop-color="#9195FE"/>
</linearGradient>
<linearGradient id="paint45_linear_27_1190" x1="113.765" y1="207.521" x2="113.765" y2="225.321" gradientUnits="userSpaceOnUse">
<stop stop-color="#454CEE"/>
<stop offset="1" stop-color="#9195FE"/>
</linearGradient>
<linearGradient id="paint46_linear_27_1190" x1="159.25" y1="211.004" x2="159.25" y2="232.281" gradientUnits="userSpaceOnUse">
<stop stop-color="#454CEE"/>
<stop offset="1" stop-color="#9195FE"/>
</linearGradient>
</defs>
</svg>
